<?xml version="1.0" standalone="no"?>
<!DOCTYPE svg PUBLIC "-//W3C//DTD SVG 20010904//EN"
 "http://www.w3.org/TR/2001/REC-SVG-20010904/DTD/svg10.dtd">
<svg version="1.0" xmlns="http://www.w3.org/2000/svg"
 width="1280.000000pt" height="550.000000pt" viewBox="0 0 1280.000000 550.000000"
 preserveAspectRatio="xMidYMid meet">
<metadata>
Created by potrace 1.15, written by Peter Selinger 2001-2017
</metadata>
<g transform="translate(0.000000,550.000000) scale(0.100000,-0.100000)"
fill="#074100" stroke="none">
<path d="M3029 5203 c-43 -36 -107 -136 -115 -179 -5 -28 -1 -42 22 -75 30
-44 31 -43 -21 -74 -42 -25 43 -113 170 -178 51 -26 61 -35 38 -30 -53 9 -123
-6 -149 -32 -18 -18 -24 -35 -24 -70 0 -119 83 -187 201 -165 68 13 84 23 158
94 l63 61 -6 -45 c-6 -46 -1 -45 30 7 9 15 13 5 24 -57 14 -86 30 -122 74
-168 49 -53 83 -66 158 -63 51 2 128 89 128 143 0 23 -61 91 -105 117 -18 11
-17 12 10 6 17 -3 68 -8 115 -11 106 -7 166 9 163 44 -2 12 -4 32 -5 43 -2 17
5 25 31 34 59 20 76 53 79 161 5 110 -7 147 -49 164 -89 37 -365 -68 -490
-187 -29 -28 -38 -31 -47 -20 -9 10 -2 26 29 70 53 74 42 74 -13 0 l-43 -57
-6 55 -6 54 -1 -51 c-2 -41 -6 -53 -21 -57 -16 -4 -21 4 -31 57 -23 123 -152
345 -237 409 -46 34 -83 34 -124 0z m378 -515 c-3 -8 -6 -5 -6 6 -1 11 2 17 5
13 3 -3 4 -12 1 -19z"/>
<path d="M10885 5006 c-37 -16 -72 -60 -114 -143 -45 -91 -61 -162 -61 -280 0
-89 -2 -102 -16 -96 -10 4 -17 -2 -21 -17 -4 -17 -11 -20 -27 -15 -11 4 -68 9
-126 12 -79 4 -121 1 -169 -11 -144 -37 -231 -95 -231 -155 0 -34 29 -62 101
-100 30 -16 53 -34 51 -40 -6 -30 19 -51 63 -51 35 0 47 -5 63 -26 16 -24 23
-26 56 -20 21 4 60 26 91 52 l55 44 0 -44 c0 -63 16 -91 64 -112 31 -15 42
-25 44 -46 2 -21 11 -30 38 -38 19 -6 47 -28 62 -48 23 -30 28 -47 31 -114 2
-43 5 -78 8 -78 17 0 43 24 52 50 12 36 3 65 -34 114 -30 39 -33 76 -7 76 10
0 24 -6 31 -12 11 -11 12 -7 9 22 -4 24 -1 38 10 46 19 14 6 40 -43 82 -58 51
-75 88 -75 162 0 47 -6 74 -20 98 -33 54 -23 50 38 -16 32 -34 63 -62 70 -62
25 0 10 34 -38 90 -52 60 -67 89 -27 53 34 -32 60 -42 122 -49 63 -8 113 -41
141 -95 20 -40 60 -65 78 -50 8 7 25 9 40 5 23 -5 25 -3 23 22 -3 44 27 42 78
-5 55 -51 107 -56 145 -16 l23 25 -35 0 c-93 0 -180 52 -198 120 -7 26 -18 38
-39 47 -22 8 -32 20 -40 51 -14 50 -25 59 -90 73 l-54 11 41 37 c44 39 82 96
82 123 0 10 -9 22 -20 28 -16 9 -20 21 -20 66 0 52 -1 55 -30 60 -23 5 -32 14
-41 43 -17 53 -58 131 -68 131 -5 0 -15 2 -23 5 -7 2 -27 -2 -43 -9z"/>
<path d="M10602 4715 c8 -11 21 -33 27 -50 l11 -30 -6 30 c-3 17 -15 39 -27
50 l-21 20 16 -20z"/>
<path d="M10452 4564 c10 -10 20 -16 22 -13 3 3 -5 11 -17 18 -21 13 -21 12
-5 -5z"/>
<path d="M8756 4198 c-22 -11 -71 -52 -110 -90 -59 -58 -74 -67 -88 -59 -92
57 -229 -108 -258 -311 -5 -35 -10 -69 -10 -75 0 -28 -18 -9 -59 62 -23 41
-44 75 -47 75 -2 0 14 -36 37 -81 38 -77 39 -82 23 -100 -16 -18 -16 -20 4
-42 28 -30 29 -46 1 -21 -11 10 -31 20 -44 21 -22 3 -24 -1 -27 -39 l-3 -43
-25 65 c-46 122 -119 284 -140 310 l-21 25 6 -25 c41 -182 185 -904 181 -908
-2 -1 -18 25 -36 60 -48 93 -172 278 -225 334 -26 27 -44 42 -41 34 2 -8 44
-112 92 -230 106 -263 212 -552 258 -703 27 -90 35 -136 40 -237 4 -69 9 -161
12 -205 7 -96 -4 -95 -15 1 -26 210 -157 717 -253 979 -50 138 -151 337 -218
433 -50 71 -79 95 -60 50 10 -25 83 -276 124 -425 13 -51 20 -93 15 -93 -5 0
-9 -20 -9 -45 0 -24 -5 -68 -11 -96 l-11 -52 -33 114 c-43 150 -122 345 -152
378 -19 20 -23 22 -19 7 4 -10 13 -67 21 -125 7 -58 23 -181 36 -272 l22 -167
-68 -78 c-37 -44 -99 -126 -137 -184 -60 -88 -70 -99 -65 -70 17 92 58 397 67
495 16 169 13 437 -4 461 -14 18 -15 18 -21 -11 -3 -17 -18 -74 -32 -127 l-26
-98 -41 0 c-38 1 -40 2 -22 15 11 8 23 15 28 15 4 0 8 5 8 11 0 7 -20 10 -55
7 -44 -2 -54 0 -52 12 1 10 -8 16 -30 18 -18 2 -33 7 -33 13 0 15 -42 10 -62
-8 -17 -15 -20 -15 -42 6 -48 45 -131 50 -186 11 -16 -12 -35 -16 -53 -13 -19
4 -32 0 -40 -11 -11 -15 -16 -15 -56 -1 -56 19 -61 19 -61 -5 0 -13 -7 -20
-19 -20 -29 0 -36 -18 -15 -41 17 -18 16 -19 -19 -19 -21 0 -37 -4 -37 -10 0
-5 5 -10 10 -10 24 0 7 -20 -17 -21 -16 0 -37 -4 -47 -8 -31 -12 -2 -23 75
-29 l68 -5 -21 -27 c-35 -48 -3 -63 75 -36 43 16 47 9 12 -24 -27 -25 -33 -50
-12 -50 6 0 35 11 64 24 l52 25 3 -22 c4 -31 39 -33 70 -4 21 19 28 22 32 11
3 -8 15 -14 26 -14 11 0 20 -1 21 -2 0 -2 15 -160 33 -352 l32 -349 -47 54
c-49 56 -71 62 -46 12 14 -27 87 -225 87 -235 0 -3 -17 -1 -38 5 -52 14 -90 3
-98 -27 -8 -33 1 -58 42 -111 l34 -45 -53 0 c-32 0 -67 -7 -90 -19 l-37 -19
-11 42 c-58 222 -178 578 -255 753 -84 194 -188 373 -215 373 -5 0 -2 -17 5
-37 7 -21 21 -81 30 -133 10 -52 33 -157 52 -232 34 -136 34 -137 19 -210 -8
-40 -24 -142 -34 -227 -11 -84 -21 -154 -23 -156 -2 -2 -88 80 -191 181 l-188
183 41 60 c62 93 59 102 -11 34 -36 -35 -68 -63 -71 -63 -4 0 -51 34 -104 75
-91 72 -154 112 -154 100 0 -4 44 -58 98 -122 53 -63 96 -117 95 -120 -4 -11
-197 -238 -205 -241 -4 -2 -8 2 -8 10 0 25 -90 195 -117 219 -23 21 -25 22
-19 4 4 -11 21 -94 36 -184 23 -129 26 -168 17 -182 -15 -24 -12 -24 -71 6
-27 14 -52 23 -55 20 -2 -3 14 -25 37 -48 l42 -42 -36 -50 c-19 -28 -39 -51
-44 -53 -6 -2 -10 -8 -10 -14 0 -6 -34 -64 -76 -130 -41 -66 -104 -171 -138
-234 l-63 -114 -15 97 -16 98 32 34 c31 34 26 38 -25 17 -13 -6 -19 11 -37 96
-12 57 -37 157 -56 223 l-33 120 21 27 c116 144 166 212 161 216 -3 3 -50 -38
-103 -91 l-98 -97 -27 84 c-33 102 -112 265 -167 346 -42 62 -70 89 -56 54 12
-29 110 -376 136 -482 l23 -94 -26 -26 c-15 -14 -28 -24 -30 -21 -1 2 -13 46
-25 97 -31 130 -123 372 -141 372 -4 0 8 -106 25 -235 42 -303 42 -309 20
-334 -10 -11 -24 -17 -31 -15 -7 3 -16 -3 -19 -14 -4 -10 -41 -50 -82 -87 -71
-64 -76 -67 -70 -39 41 201 81 673 62 747 -9 37 -23 34 -29 -5 -10 -70 -126
-502 -130 -488 -3 8 -10 48 -17 88 -8 46 -16 70 -21 65 -10 -10 -43 -234 -55
-365 l-6 -68 -28 15 c-16 8 -43 15 -60 15 -39 0 -39 -18 -1 -87 16 -29 25 -55
20 -59 -13 -7 -11 -81 2 -106 9 -17 7 -25 -17 -49 -28 -27 -31 -27 -79 -17
-27 7 -52 13 -54 14 -1 2 4 13 13 26 27 38 21 50 -26 47 -38 -3 -43 -1 -43 17
0 11 -5 27 -11 35 -6 8 -28 63 -47 123 l-37 110 24 43 c26 45 21 57 -9 23 -10
-11 -21 -20 -25 -20 -3 0 -27 48 -53 108 -49 113 -135 263 -153 269 -10 3 -4
-26 67 -325 41 -170 41 -179 1 -215 -20 -18 -21 -16 -94 136 -41 84 -98 188
-127 230 -60 89 -174 214 -179 198 -2 -6 34 -116 81 -244 47 -127 94 -265 105
-304 l20 -73 -43 30 c-54 37 -79 40 -69 8 3 -13 13 -36 21 -51 l14 -28 -54 31
c-84 47 -110 39 -60 -21 l27 -32 -32 17 c-30 15 -32 20 -32 69 0 28 -5 189
-12 357 -6 168 -12 324 -12 348 -1 45 -9 53 -25 25 -14 -27 -50 -216 -61 -323
-15 -145 -30 -412 -30 -541 0 -99 -2 -118 -17 -123 -15 -6 -14 -8 2 -20 16
-12 17 -23 11 -100 -6 -86 -30 -261 -43 -321 l-6 -30 -8 30 c-5 16 -11 124
-14 240 -3 115 -11 248 -16 295 -12 103 -39 207 -49 188 -4 -7 -20 -74 -35
-148 -26 -133 -48 -188 -120 -310 l-26 -45 6 110 c9 149 32 372 55 532 23 161
57 246 261 651 75 149 133 272 129 272 -17 0 -187 -209 -257 -317 -15 -23 -3
21 104 377 47 157 90 291 96 298 15 19 -8 15 -25 -5 -28 -32 -155 -285 -207
-410 -69 -169 -145 -406 -196 -609 -24 -94 -62 -216 -86 -270 -46 -109 -98
-250 -134 -362 -17 -50 -36 -87 -65 -120 -24 -26 -47 -57 -53 -69 -6 -13 -16
-23 -24 -23 -19 0 -16 8 14 44 37 44 83 145 83 182 0 69 -60 62 -117 -13 l-28
-37 -5 64 c-8 102 -59 111 -91 17 l-15 -46 -21 42 c-11 23 -44 82 -72 131 -28
49 -51 92 -51 97 0 11 126 317 149 362 11 20 16 37 11 37 -16 0 -113 -116
-172 -206 l-61 -93 -50 72 c-100 146 -327 402 -335 378 -2 -5 44 -88 101 -183
57 -95 131 -221 165 -279 l61 -106 -56 -129 c-31 -71 -57 -131 -59 -133 -1 -1
-41 31 -88 73 -109 97 -278 207 -293 192 -3 -3 43 -56 103 -118 60 -62 137
-149 170 -193 l61 -80 -24 -72 c-14 -40 -28 -73 -32 -73 -5 0 -1 21 7 47 15
45 15 47 -7 65 -18 13 -22 26 -19 48 3 17 1 30 -4 30 -4 0 -8 -14 -8 -30 0
-48 -66 -101 -85 -69 -5 7 -15 5 -31 -5 -13 -9 -25 -16 -26 -16 -2 0 -1 25 0
56 4 64 -12 114 -38 114 -19 0 -65 -49 -83 -87 -10 -22 -11 -22 -29 -7 -17 16
-19 16 -38 -1 -14 -13 -20 -31 -20 -62 0 -48 -8 -53 -36 -22 -30 33 -110 89
-128 89 -21 0 -21 -41 0 -81 11 -21 12 -34 5 -43 -7 -9 -5 -23 10 -50 23 -43
16 -60 -22 -54 -22 3 -25 9 -30 68 l-6 65 -1 -65 -2 -66 -42 -19 c-53 -25 -57
-53 -11 -75 l32 -15 -55 -85 c-105 -164 -166 -272 -199 -351 -18 -44 -35 -83
-39 -86 -15 -15 -4 46 23 126 50 149 55 194 56 494 0 306 -8 313 -24 20 -11
-192 -32 -338 -51 -357 -7 -7 -10 9 -11 49 -1 85 -17 119 -18 39 -1 -34 -10
-105 -21 -159 -17 -84 -32 -119 -112 -269 -50 -94 -102 -188 -115 -208 -13
-21 -23 -40 -23 -43 0 -3 32 -5 72 -3 l71 3 28 84 c16 46 31 86 34 89 3 3 2
-36 -1 -86 l-7 -92 57 0 56 0 0 68 c1 76 14 68 25 -16 l7 -53 51 3 50 3 29
120 c36 151 68 335 68 388 0 22 5 69 11 104 9 51 15 63 30 63 17 0 19 -8 19
-59 0 -161 -55 -446 -115 -603 -6 -16 0 -18 52 -18 l60 0 21 88 c30 121 44
303 36 454 l-7 127 29 6 c16 4 35 8 42 11 16 5 15 -6 -3 -30 -8 -11 -15 -31
-15 -44 0 -22 3 -24 29 -19 29 6 29 6 17 -24 -11 -30 -11 -30 -17 -7 -12 46
-22 -10 -16 -100 3 -67 0 -100 -13 -142 -21 -65 -50 -228 -50 -282 l0 -38 85
0 85 0 -6 73 c-4 39 -12 110 -19 157 -11 81 -6 141 14 163 4 4 11 -72 15 -170
8 -227 8 -225 59 -221 l40 3 20 83 c24 104 34 101 13 -3 -9 -43 -16 -79 -16
-81 0 -2 2474 -4 5498 -4 l5497 0 1 83 c1 79 15 145 68 332 13 44 26 98 29
120 l7 40 -19 -40 c-10 -22 -44 -79 -75 -127 -75 -116 -84 -140 -100 -271 -10
-84 -14 -99 -15 -59 -1 29 8 110 18 180 11 70 22 159 25 197 6 76 6 77 -34
-60 -24 -81 -86 -255 -94 -262 -9 -9 -7 60 4 155 6 51 22 115 43 170 19 48 38
101 41 117 6 28 5 28 -18 -10 -20 -31 -26 -35 -26 -20 -1 14 -7 7 -19 -20 -10
-22 -28 -49 -40 -59 l-22 -20 6 40 c3 21 10 102 15 179 6 77 13 158 15 180 5
38 4 38 -5 10 -6 -16 -26 -104 -44 -195 -19 -91 -43 -194 -53 -230 -19 -69
-47 -119 -60 -106 -5 4 -8 57 -8 117 1 93 -1 106 -12 87 l-12 -23 -1 23 c0 12
14 46 30 75 39 70 38 79 -5 31 -23 -27 -34 -34 -35 -22 0 9 21 35 47 57 25 23
44 44 40 47 -3 3 -26 -3 -51 -14 l-45 -20 -9 41 -10 42 -1 -46 c-1 -44 -4 -48
-56 -87 l-54 -41 -22 39 c-28 50 -34 46 -12 -9 l16 -42 -32 -32 -33 -32 6 50
c3 28 11 95 17 149 l12 99 141 145 c126 130 136 142 96 122 -81 -41 -214 -138
-280 -204 l-64 -66 -12 28 -13 27 6 -33 c5 -27 0 -40 -28 -75 -18 -23 -41 -48
-51 -55 -10 -7 -16 -17 -14 -21 3 -4 -4 -8 -15 -8 -18 -2 -19 6 -19 154 l0
156 108 111 c264 272 432 460 432 484 0 4 -51 -43 -112 -104 -62 -61 -166
-156 -231 -210 -65 -54 -136 -114 -157 -132 l-38 -33 -6 78 c-10 120 -26 246
-36 262 -16 28 -50 -226 -50 -372 0 -56 -2 -60 -51 -112 -44 -47 -55 -54 -78
-48 -34 8 -43 24 -25 44 35 39 2 64 -49 38 -22 -12 -22 -11 -4 9 20 22 10 36
-20 25 -10 -3 -39 -22 -65 -40 -27 -19 -48 -32 -48 -28 0 3 14 24 31 45 35 44
35 79 -1 60 -11 -6 -20 -8 -20 -5 0 3 23 50 50 105 28 55 47 100 43 100 -10 0
-133 -132 -133 -142 0 -5 -4 -8 -10 -8 -5 0 -29 42 -53 93 -24 51 -59 117 -79
147 -49 78 -141 186 -146 172 -2 -6 20 -76 49 -154 60 -164 100 -288 92 -288
-3 0 -18 9 -35 21 -36 26 -46 18 -31 -22 7 -17 9 -29 5 -27 -4 2 -25 12 -47
23 -22 11 -43 24 -46 28 -3 4 -9 115 -14 245 -9 290 -8 282 -17 282 -4 0 -10
-10 -13 -22 -23 -97 -36 -182 -45 -298 -33 -436 -39 -500 -50 -500 -8 0 -26
90 -34 181 -3 30 -12 72 -19 94 l-13 38 -18 -79 c-10 -43 -26 -124 -35 -179
-12 -64 -29 -120 -47 -155 l-29 -55 -3 44 c-4 56 23 372 43 505 17 114 49 195
192 480 l95 191 -47 -45 c-25 -25 -67 -75 -92 -112 -26 -38 -48 -66 -51 -64
-3 4 84 301 126 429 11 31 16 57 11 57 -12 0 -112 -191 -158 -302 -51 -124
-102 -283 -146 -451 -18 -73 -46 -159 -60 -192 -15 -33 -47 -115 -71 -183 -30
-84 -57 -140 -85 -177 -50 -67 -62 -66 -20 0 75 118 57 194 -26 113 l-33 -32
0 25 c0 20 20 42 90 99 49 41 88 76 85 78 -9 10 -210 -98 -238 -128 -25 -27
-31 -25 -50 15 -17 35 -16 37 13 112 16 42 27 79 25 81 -2 2 -19 -26 -37 -62
l-33 -66 -17 22 c-10 13 -18 29 -18 36 0 7 19 59 41 115 28 69 60 125 97 172
30 39 60 76 65 82 6 9 6 13 -1 13 -6 0 -67 -54 -136 -120 l-124 -120 -30 52
c-16 29 -39 64 -51 78 l-21 25 6 -30 c3 -16 8 -39 11 -50 3 -14 -4 -9 -23 15
-43 53 -156 170 -165 170 -5 0 15 -39 44 -87 30 -49 77 -127 105 -175 l51 -87
-34 -42 c-19 -22 -35 -37 -35 -32 -1 4 -7 -5 -15 -22 -7 -16 -23 -41 -33 -54
l-20 -24 -38 30 c-55 42 -134 87 -141 79 -4 -3 8 -22 26 -40 32 -33 33 -36 26
-95 -7 -57 -25 -96 -25 -52 0 28 -63 232 -99 321 l-31 75 73 75 c98 101 150
161 143 167 -7 7 -108 -41 -194 -93 -57 -35 -77 -42 -83 -32 -4 7 -21 30 -38
52 -17 21 -31 44 -31 50 0 11 256 267 355 354 73 64 55 63 -91 -8 -104 -51
-230 -138 -314 -216 l-46 -43 -13 32 c-6 17 -34 97 -61 176 l-49 143 64 99
c69 107 246 360 330 474 113 152 108 161 -27 47 -51 -43 -140 -110 -198 -149
-58 -40 -144 -105 -191 -146 l-86 -74 -43 78 c-23 43 -67 110 -97 149 -47 63
-56 84 -80 177 l-26 105 129 191 c71 106 175 258 231 338 152 220 157 235 43
131 -93 -85 -269 -278 -369 -404 -75 -95 -91 -110 -91 -85 0 6 -27 66 -59 132
l-58 119 27 36 c36 46 50 90 50 160 0 71 -19 91 -107 116 -35 9 -63 23 -63 30
0 7 17 18 38 25 113 37 242 129 242 174 0 16 -11 30 -35 44 -31 18 -34 23 -25
41 6 11 22 27 35 36 14 9 30 34 36 55 10 33 9 48 -9 102 -25 76 -72 159 -115
205 -25 26 -38 32 -71 32 -23 -1 -59 -10 -80 -22z m-535 -680 c1 -24 3 -27 6
-10 2 12 8 22 12 22 12 0 38 -33 46 -58 6 -21 5 -23 -13 -13 -30 16 -37 14
-52 -16 l-13 -28 -12 30 c-8 19 -10 36 -4 47 5 9 9 26 9 37 0 35 20 24 21 -11z
m82 -109 c7 -26 1 -39 -18 -39 -7 0 -15 -4 -17 -9 -1 -5 -12 -11 -22 -13 -30
-5 -44 51 -21 85 16 25 19 26 45 12 15 -8 30 -24 33 -36z m24 -71 c26 -74 42
-125 48 -152 3 -16 19 -41 35 -57 38 -38 92 -39 146 -3 36 25 41 26 92 14 30
-6 73 -9 96 -6 l42 7 32 -195 33 -195 -54 -73 c-52 -71 -218 -318 -287 -427
l-34 -54 -14 39 c-7 22 -25 113 -38 204 -36 239 -78 449 -134 665 -26 105 -51
197 -54 205 -4 10 6 22 32 37 20 12 39 22 42 23 3 0 10 -15 17 -32z m-923
-333 c-5 -13 -9 -13 -23 -3 -9 7 -18 14 -20 15 -2 2 8 3 22 3 20 0 25 -4 21
-15z m-17 -59 c2 -2 -146 -628 -173 -726 -39 -144 -37 -141 -61 -89 -17 36
-26 108 -53 400 -18 196 -29 366 -25 378 6 21 7 21 40 -5 22 -17 43 -24 62
-22 24 3 28 7 26 31 l-2 29 27 -18 c92 -60 130 -59 77 4 l-24 29 52 -5 c29 -2
53 -5 54 -6z m587 -401 c30 -146 76 -439 76 -477 0 -7 -24 -34 -54 -60 l-53
-47 28 74 c38 97 48 185 25 208 -10 9 -28 17 -40 17 l-23 0 -6 248 c-4 136 -9
263 -12 282 -8 62 24 -71 59 -245z m-228 -256 l7 -187 -27 -68 c-17 -43 -30
-97 -33 -141 -5 -61 -9 -73 -23 -73 -17 0 -17 3 -3 48 17 55 19 134 14 403 -4
189 -4 198 20 255 l24 59 7 -55 c4 -30 10 -139 14 -241z m1153 134 c23 -197
41 -397 41 -458 0 -58 -2 -62 -60 -135 -33 -41 -64 -76 -69 -78 -5 -2 -12 12
-16 30 -26 121 -87 260 -105 242 -13 -13 -39 -173 -47 -299 l-8 -110 -42 170
-41 169 35 71 c88 176 278 505 292 505 4 0 13 -48 20 -107z m256 -280 c-11
-30 -22 -8 -33 65 -7 42 -15 88 -17 102 -3 14 9 -15 25 -65 17 -49 28 -96 25
-102z m-3061 -2 l87 -99 -24 -25 c-18 -17 -27 -40 -32 -85 l-7 -62 -28 37
c-40 56 -76 85 -97 81 -32 -6 -26 -46 22 -144 49 -101 52 -132 7 -74 -82 108
-185 192 -212 175 -16 -10 -12 -26 16 -62 14 -18 20 -33 15 -33 -19 0 -51 39
-51 62 0 21 197 327 211 328 4 0 46 -45 93 -99z m520 -166 c11 -53 12 -72 3
-77 -24 -15 -27 -7 -27 74 0 45 2 79 5 77 2 -3 11 -36 19 -74z m-314 -76 c0
-6 -4 -7 -10 -4 -5 3 -10 11 -10 16 0 6 5 7 10 4 6 -3 10 -11 10 -16z m-1281
-165 c10 -54 24 -141 31 -192 l13 -93 -34 -29 c-19 -16 -37 -29 -40 -30 -3 0
-9 46 -13 103 -3 56 -13 145 -21 197 l-14 95 26 27 c15 15 28 26 30 24 2 -2
12 -48 22 -102z m1621 86 c0 -5 -5 -10 -11 -10 -5 0 -7 5 -4 10 3 6 8 10 11
10 2 0 4 -4 4 -10z m2645 -119 l18 -74 -24 -19 c-13 -10 -37 -28 -53 -40 l-29
-21 6 49 c13 110 19 140 35 171 20 39 23 34 47 -66z m-3590 40 c-9 -16 -25 -3
-18 15 4 10 9 12 15 6 6 -6 7 -15 3 -21z m-7 -76 c37 -11 25 -23 -28 -27 -28
-1 -50 -2 -50 0 0 18 25 42 38 38 9 -2 27 -7 40 -11z m-848 -6 c0 -5 -11 -27
-25 -47 l-25 -37 0 29 c0 16 7 38 17 48 18 20 33 24 33 7z m2140 -39 l65 -35
-60 -5 c-33 -3 -63 -3 -66 0 -10 8 -21 83 -12 78 4 -2 37 -19 73 -38z m-1336
-91 c-3 -5 -13 -9 -22 -9 -10 0 -35 -9 -57 -20 -21 -11 -40 -18 -41 -17 -2 2
5 16 15 33 16 27 22 29 64 26 26 -2 44 -8 41 -13z m3963 -111 c3 -17 1 -28 -6
-28 -6 0 -11 4 -11 8 0 5 -12 15 -26 22 -42 23 -48 46 -23 82 l23 31 19 -44
c10 -24 21 -56 24 -71z m-3882 32 c-3 -5 -10 -10 -15 -10 -5 0 -37 -16 -70
-36 -45 -26 -65 -33 -73 -25 -15 15 -27 14 -27 -4 0 -8 -7 -33 -16 -55 -13
-32 -20 -39 -35 -35 -26 8 -24 -4 5 -34 23 -24 24 -31 17 -81 -5 -30 -9 -44
-10 -30 -2 39 -44 105 -69 108 -12 2 -22 5 -22 6 0 2 20 46 44 98 l43 94 69
-4 c38 -2 87 1 109 6 54 13 57 14 50 2z m585 -6 c0 -8 -5 -12 -10 -9 -6 4 -8
11 -5 16 9 14 15 11 15 -7z m-1700 -44 c0 -16 -2 -30 -5 -30 -9 0 -26 41 -20
50 12 20 25 9 25 -20z m2068 -7 c12 -13 22 -34 22 -46 -1 -21 -1 -21 -23 4
-12 15 -35 38 -52 53 l-30 26 30 -6 c17 -3 40 -17 53 -31z m-4405 -35 c18 -51
42 -177 34 -184 -4 -4 -80 48 -106 72 -6 6 41 154 49 154 4 0 14 -19 23 -42z
m4720 0 c4 -30 2 -47 -8 -57 -20 -20 -28 -9 -35 49 -6 47 -5 50 15 50 19 0 23
-7 28 -42z m-3013 4 c0 -16 -37 -48 -46 -39 -4 4 34 57 42 57 2 0 4 -8 4 -18z
m1760 -39 c0 -10 -21 -40 -46 -66 -50 -52 -63 -52 -83 4 -9 26 -8 31 12 38 12
5 38 16 57 24 47 21 60 20 60 0z m638 -28 c-3 -3 -9 2 -12 12 -6 14 -5 15 5 6
7 -7 10 -15 7 -18z m300 -30 l25 6 -7 -103 c-3 -57 -9 -133 -12 -169 l-6 -67
-39 38 c-38 37 -40 40 -49 136 -5 55 -10 116 -10 136 l0 36 36 -10 c20 -5 48
-7 62 -3z m3015 -120 c28 -105 57 -261 57 -301 0 -13 -13 -38 -30 -56 l-29
-33 -1 69 c0 82 -24 249 -49 345 -17 63 -17 71 -3 85 21 20 23 16 55 -109z
m-3718 64 c-32 -62 -30 -103 4 -107 17 -3 35 9 71 46 l48 50 5 -40 c3 -24 16
-51 31 -67 22 -24 66 -149 66 -192 0 -8 -29 -41 -65 -73 l-64 -57 -16 30 c-8
16 -37 60 -65 96 l-50 66 -9 106 -9 106 36 44 c20 23 38 43 39 43 2 0 -8 -23
-22 -51z m1985 1 c0 -5 -5 -10 -11 -10 -5 0 -7 5 -4 10 3 6 8 10 11 10 2 0 4
-4 4 -10z m-4870 -191 c-20 -152 -34 -215 -51 -234 -6 -5 -9 -1 -9 11 0 11 -7
30 -16 42 -25 36 -12 104 42 228 27 61 50 111 52 109 1 -1 -7 -71 -18 -156z
m2000 126 c0 -27 -12 -30 -70 -18 l-33 6 44 18 c59 23 59 23 59 -6z m1280 -43
c0 -15 -2 -15 -10 -2 -13 20 -13 33 0 25 6 -3 10 -14 10 -23z m-1010 -19 c0
-27 -3 -34 -11 -26 -7 7 -9 23 -5 37 9 37 16 32 16 -11z m-1840 -20 c0 -5 -7
-17 -15 -27 -15 -20 -15 -20 -15 0 0 12 3 24 7 27 9 9 23 9 23 0z m790 3 c0
-3 -4 -8 -10 -11 -5 -3 -10 -1 -10 4 0 6 5 11 10 11 6 0 10 -2 10 -4z m6816
-23 c-7 -7 -26 7 -26 19 0 6 6 6 15 -2 9 -7 13 -15 11 -17z m-6816 -7 c0 -2
-7 -7 -16 -10 -8 -3 -12 -2 -9 4 6 10 25 14 25 6z m5608 -78 c-34 -26 -38 -23
-38 29 l0 47 30 -29 31 -29 -23 -18z m-6385 26 l25 6 -37 -94 c-27 -71 -37
-88 -42 -72 -8 28 12 181 21 166 5 -8 18 -10 33 -6z m177 -122 c-23 -143 -86
-402 -101 -417 -12 -12 -6 38 21 175 10 52 24 125 30 163 10 63 58 212 66 204
2 -2 -5 -58 -16 -125z m-1576 82 c22 -8 20 -21 -4 -34 -18 -9 -20 -8 -20 15 0
27 1 28 24 19z m2876 -4 c8 -5 12 -11 9 -14 -3 -3 -14 1 -25 9 -21 16 -8 20
16 5z m5190 -36 c0 -8 -4 -14 -10 -14 -5 0 -10 9 -10 21 0 11 5 17 10 14 6 -3
10 -13 10 -21z m-162 -50 c6 -11 3 -33 -10 -68 -11 -28 -35 -109 -53 -180 -19
-70 -36 -130 -38 -133 -3 -2 -8 42 -12 99 l-7 104 45 97 c25 53 50 97 56 97 5
0 14 -7 19 -16z m-5748 -19 c0 -8 -4 -15 -10 -15 -5 0 -10 7 -10 15 0 8 5 15
10 15 6 0 10 -7 10 -15z m7458 -77 c-11 -126 -26 -195 -44 -202 -11 -4 -14 -1
-10 12 3 9 7 44 10 77 l6 60 -27 -89 c-29 -96 -41 -97 -42 -3 -1 37 2 47 15
47 10 0 14 5 10 15 -3 8 -9 21 -12 29 -3 7 3 22 13 31 10 10 18 21 18 24 0 9
59 91 65 91 3 0 2 -42 -2 -92z m-7482 50 c10 -46 6 -230 -6 -242 -7 -7 -10 31
-10 109 0 66 -3 130 -6 143 -4 12 -2 22 4 22 6 0 14 -15 18 -32z m5144 15 c0
-5 3 -33 6 -63 4 -30 3 -52 -1 -48 -10 10 -23 118 -13 118 4 0 8 -3 8 -7z
m-7294 -47 c-3 -13 -17 -43 -32 -67 -14 -24 -23 -35 -21 -24 3 11 8 38 12 60
6 37 18 54 39 55 4 0 5 -11 2 -24z m9008 -21 c-4 -8 -8 -15 -10 -15 -2 0 -4 7
-4 15 0 8 4 15 10 15 5 0 7 -7 4 -15z m-4894 -50 c0 -30 -2 -55 -5 -55 -3 0
-11 16 -20 36 -11 26 -12 41 -5 55 19 34 30 20 30 -36z m4569 -55 c-30 -69
-34 -58 -7 21 12 35 24 56 26 47 2 -9 -7 -40 -19 -68z m1247 44 c-4 -9 -9 -15
-11 -12 -3 3 -3 13 1 22 4 9 9 15 11 12 3 -3 3 -13 -1 -22z m-5852 -29 c8 -49
0 -77 -15 -54 -11 18 -11 99 0 99 5 0 12 -20 15 -45z m4952 18 c-8 -16 -24
-53 -35 -83 l-21 -55 5 50 c12 110 14 115 41 115 24 0 25 -1 10 -27z m120 -69
c-9 -49 -29 -141 -46 -204 -25 -98 -29 -106 -24 -56 3 32 12 76 20 98 17 49
17 51 3 42 -7 -4 -9 0 -6 12 3 11 8 28 11 39 20 78 48 166 52 162 3 -3 -2 -45
-10 -93z m-5116 29 c0 -21 -3 -24 -9 -14 -5 8 -7 20 -4 28 8 21 13 15 13 -14z
m5730 -4 c-7 -11 -14 -18 -17 -15 -3 3 0 12 7 21 18 21 23 19 10 -6z m-6904
-13 c8 -8 14 -21 14 -28 0 -27 -42 -138 -52 -138 -6 0 -8 10 -5 23 3 12 9 52
12 90 4 37 9 67 12 67 2 0 11 -6 19 -14z m7004 -132 c-18 -43 -33 -81 -35 -83
-11 -10 8 113 21 146 40 96 38 92 42 52 2 -23 -8 -64 -28 -115z m-9909 66 c-6
-33 -10 -40 -16 -27 -10 23 3 93 16 80 5 -5 5 -27 0 -53z m10200 13 c-13 -25
-71 -79 -71 -67 0 14 60 84 71 84 6 0 6 -6 0 -17z m-11015 -78 c-23 -79 -70
-195 -80 -195 -9 0 43 161 79 244 25 60 26 38 1 -49z m4977 -3 c9 -49 17 -104
16 -123 -1 -28 -6 -19 -30 51 -29 87 -34 116 -23 144 12 31 20 15 37 -72z
m-4578 22 c9 3 16 -6 20 -27 4 -18 13 -42 21 -54 13 -20 12 -27 -6 -64 -12
-22 -23 -39 -25 -37 -10 10 -65 165 -65 184 0 31 11 37 28 13 8 -11 20 -18 27
-15z m10625 -64 c0 -23 -7 -55 -17 -73 l-16 -32 -12 40 c-10 35 -9 44 9 72 28
43 36 41 36 -7z m-594 -17 c-10 -10 -19 5 -10 18 6 11 8 11 12 0 2 -7 1 -15
-2 -18z m504 -141 c0 -25 -9 -60 -22 -85 l-23 -42 -5 70 c-5 59 -3 75 13 98
24 36 37 22 37 -41z m-10453 -104 c-3 -8 -6 -5 -6 6 -1 11 2 17 5 13 3 -3 4
-12 1 -19z m10540 -10 c-3 -8 -6 -5 -6 6 -1 11 2 17 5 13 3 -3 4 -12 1 -19z
m-6330 -105 c-3 -10 -5 -4 -5 12 0 17 2 24 5 18 2 -7 2 -21 0 -30z"/>
<path d="M4893 4181 c-201 -96 -341 -244 -507 -537 -63 -113 -95 -193 -103
-266 -6 -46 -7 -48 -24 -32 -14 13 -16 20 -8 31 9 10 8 17 0 27 -10 11 -10 20
0 37 8 16 10 57 5 147 -6 105 -5 128 9 150 15 26 15 25 -11 -3 -26 -28 -26
-31 -18 -100 12 -100 10 -193 -4 -207 -9 -9 -12 -8 -12 8 0 15 -2 16 -9 5 -5
-8 -18 -12 -29 -9 -15 4 -19 2 -15 -8 3 -8 0 -20 -6 -28 -14 -16 -4 -46 15
-46 15 0 19 -35 5 -44 -5 -3 -20 12 -35 34 -46 70 -159 146 -384 259 -174 87
-377 131 -536 116 -190 -18 -194 -79 -17 -284 36 -42 81 -112 110 -169 84
-167 124 -189 276 -153 49 12 89 20 91 18 2 -2 -24 -25 -58 -53 -100 -79 -156
-218 -109 -268 11 -12 23 -36 27 -53 4 -18 15 -35 29 -41 12 -6 34 -30 47 -54
22 -39 27 -43 57 -40 25 2 42 -5 67 -28 22 -18 46 -30 64 -30 16 0 42 -11 59
-26 29 -24 33 -25 55 -11 14 10 44 15 74 15 57 -2 91 16 141 74 27 31 34 52
51 144 11 59 27 133 36 164 11 41 15 88 12 163 -1 58 0 103 5 100 4 -2 7 -16
7 -31 0 -15 14 -58 30 -97 17 -38 33 -93 36 -122 4 -29 16 -67 28 -85 l21 -33
3 38 c2 23 -6 62 -21 100 -14 34 -27 88 -31 120 -3 32 -13 74 -21 93 -25 59
-8 37 36 -48 24 -44 58 -95 76 -112 19 -17 74 -76 122 -131 82 -92 94 -102
149 -119 69 -21 124 -16 150 15 11 12 29 19 52 19 41 0 60 14 60 45 0 11 15
32 34 47 22 18 36 39 40 62 5 25 16 40 43 56 34 20 35 23 30 62 -4 28 0 52 10
71 12 23 13 35 4 54 -6 14 -9 40 -5 58 5 27 0 38 -27 69 -56 65 -111 89 -254
112 l-40 6 92 29 c160 51 183 90 166 287 -7 83 -5 123 9 205 42 246 6 301
-149 228z"/>
<path d="M11441 3853 c-32 -39 -40 -80 -19 -101 9 -9 8 -15 -8 -26 -19 -14
-19 -15 5 -39 12 -14 37 -32 53 -40 l30 -14 -29 -8 c-57 -14 -70 -51 -32 -99
34 -44 124 -30 163 26 15 21 16 21 16 3 0 -15 2 -17 9 -6 6 9 11 1 16 -30 9
-55 51 -99 94 -99 61 0 95 72 50 104 -21 14 -18 15 42 18 56 3 64 5 64 23 0
11 12 28 28 37 23 15 27 24 27 67 0 73 -6 81 -54 81 -45 0 -156 -47 -193 -82
-26 -24 -43 -17 -22 9 13 16 13 16 -11 0 -32 -22 -40 -21 -40 6 0 59 -100 207
-140 207 -10 0 -32 -17 -49 -37z"/>
<path d="M3970 3625 c7 -8 18 -15 25 -15 31 0 74 -53 100 -120 15 -39 36 -75
46 -81 16 -8 12 5 -20 68 -49 97 -86 141 -129 153 -29 8 -32 7 -22 -5z"/>
<path d="M412 1030 c-7 -107 -20 -249 -28 -315 -15 -128 -61 -381 -72 -401 -4
-7 -7 49 -8 124 0 76 -6 182 -13 237 l-13 100 31 79 c17 44 29 81 27 83 -1 2
-17 -23 -34 -54 -28 -52 -31 -55 -36 -33 -3 14 -20 92 -37 175 -28 135 -58
242 -44 160 9 -53 34 -278 40 -360 5 -64 3 -88 -11 -120 -9 -22 -27 -80 -38
-129 l-22 -89 -48 119 c-50 123 -64 151 -52 99 5 -16 23 -104 42 -195 33 -155
35 -172 28 -275 l-8 -110 -8 80 c-9 85 -16 114 -72 270 -29 80 -36 93 -36 65
0 -19 5 -62 11 -95 6 -33 14 -145 18 -250 l6 -190 181 -3 181 -2 54 114 c29
63 54 114 55 113 2 -2 -13 -92 -31 -195 l-6 -32 44 0 44 0 17 78 c23 106 44
276 52 407 5 96 13 131 59 275 56 173 115 376 115 394 -1 6 -16 -29 -34 -77
-60 -157 -121 -297 -130 -297 -4 0 -6 6 -3 13 2 6 1 32 -2 57 -6 40 -8 35 -14
-48 -7 -87 -13 -105 -86 -271 -43 -99 -91 -199 -106 -223 l-27 -43 6 40 c25
185 39 546 28 765 l-7 155 -13 -195z m-185 -582 c-2 -18 -4 -6 -4 27 0 33 2
48 4 33 2 -15 2 -42 0 -60z"/>
<path d="M930 748 c-17 -103 -53 -210 -114 -346 -77 -168 -118 -253 -121 -250
-4 4 16 133 44 292 12 65 21 151 20 190 l-1 71 -13 -72 c-7 -40 -40 -159 -73
-265 -54 -171 -74 -242 -96 -340 l-6 -28 74 0 74 0 17 53 c10 28 48 135 86
237 76 209 103 305 119 433 15 108 7 126 -10 25z"/>
</g>
</svg>
