<?xml version="1.0" standalone="no"?>
<!DOCTYPE svg PUBLIC "-//W3C//DTD SVG 20010904//EN"
 "http://www.w3.org/TR/2001/REC-SVG-20010904/DTD/svg10.dtd">
<svg version="1.0" xmlns="http://www.w3.org/2000/svg"
 width="953.000000pt" height="1280.000000pt" viewBox="0 0 953.000000 1280.000000"
 preserveAspectRatio="xMidYMid meet">
<metadata>
Created by potrace 1.15, written by Peter Selinger 2001-2017
</metadata>
<g transform="translate(0.000000,1280.000000) scale(0.100000,-0.100000)"
fill="#FF0000" stroke="none">
<path d="M5335 12669 c-100 -207 -144 -360 -165 -586 -28 -288 53 -717 176
-940 l34 -62 -6 -108 c-8 -132 6 -199 71 -326 54 -106 57 -144 16 -208 -33
-52 -74 -90 -156 -149 -110 -79 -155 -131 -122 -143 8 -3 6 -12 -9 -33 -69
-96 -85 -124 -93 -166 -6 -35 -21 -63 -55 -102 -25 -30 -46 -58 -46 -63 0 -5
9 -16 20 -26 11 -9 20 -23 20 -31 0 -16 -41 -52 -89 -78 -17 -10 -34 -24 -37
-33 -4 -9 13 -59 39 -113 49 -105 81 -195 120 -338 l24 -91 -130 -124 c-316
-300 -408 -458 -541 -927 -57 -200 -116 -368 -151 -428 -33 -56 -218 -249
-329 -343 -45 -38 -135 -107 -201 -154 -216 -153 -349 -282 -506 -491 -101
-133 -150 -221 -283 -496 -105 -218 -153 -363 -212 -649 -46 -226 -74 -332
-101 -384 -8 -16 -96 -89 -206 -170 -189 -141 -283 -222 -306 -264 -13 -26 2
-41 24 -23 35 29 9 -13 -75 -120 -91 -116 -180 -272 -180 -316 0 -29 10 -30
44 -3 32 25 32 23 1 -72 -29 -92 -55 -271 -55 -377 l1 -77 29 35 29 35 -6
-145 c-7 -166 4 -212 54 -231 34 -13 43 -26 43 -61 0 -43 -26 -37 -200 46
-229 109 -331 132 -338 79 -4 -27 -11 -28 -94 -9 -136 31 -432 28 -526 -5 -36
-12 -64 -49 -37 -49 36 0 8 -22 -88 -68 -56 -28 -116 -53 -132 -57 -57 -13
-64 -16 -69 -33 -3 -9 -46 -36 -94 -60 -89 -43 -227 -139 -227 -157 0 -5 18
-14 39 -20 22 -6 41 -16 43 -22 2 -6 -32 -49 -75 -96 -89 -94 -105 -120 -127
-204 -58 -223 -81 -466 -91 -968 -7 -346 -1 -394 65 -570 36 -96 49 -118 100
-170 32 -33 105 -116 163 -185 157 -187 305 -318 330 -292 3 4 3 27 -2 52 -4
25 -6 47 -4 49 5 5 57 -31 158 -109 125 -97 120 -97 113 -4 -5 75 -4 78 11 54
36 -57 216 -221 337 -307 l130 -92 445 0 c245 1 654 4 910 8 448 7 467 8 530
30 80 28 165 75 184 103 11 16 32 23 77 30 139 19 436 143 645 269 128 77 141
81 320 90 243 13 358 43 477 122 78 53 113 108 127 203 18 114 0 216 -54 320
-45 85 -49 114 -17 114 49 -1 159 -23 179 -36 29 -19 60 -88 118 -259 52 -155
56 -212 19 -283 -36 -69 -48 -172 -43 -362 4 -146 7 -171 27 -212 41 -87 156
-139 331 -153 52 -4 112 -14 133 -23 33 -13 84 -14 350 -9 314 6 501 22 600
51 42 12 65 28 105 70 28 29 54 66 58 81 11 45 -3 204 -26 285 -11 41 -43 121
-70 177 -81 167 -167 235 -341 270 -44 9 -91 25 -105 36 -31 24 -137 234 -130
254 7 17 34 15 276 -18 177 -24 313 -51 362 -72 47 -20 50 -26 139 -331 39
-132 84 -269 100 -303 30 -62 93 -126 166 -168 24 -14 47 -46 84 -118 57 -107
111 -164 176 -186 21 -7 125 -16 238 -21 169 -6 208 -11 253 -29 69 -28 86
-27 178 10 53 21 113 36 186 45 171 21 267 84 326 212 22 50 25 69 25 162 -2
189 -51 353 -131 437 -53 56 -86 71 -200 92 -53 10 -136 29 -185 42 l-87 24
-49 -28 c-54 -30 -95 -34 -144 -13 -39 16 -63 42 -72 78 -9 36 20 54 115 68
126 19 215 72 257 154 39 75 2 243 -94 430 -58 112 -145 204 -229 243 -53 25
-73 28 -186 31 -125 4 -128 5 -123 26 7 29 131 1483 149 1751 14 204 24 372
45 795 8 150 12 174 44 272 49 144 98 239 211 398 155 220 200 305 240 455 64
239 184 554 233 607 22 25 42 22 53 -7 40 -104 109 158 97 368 l-5 101 29 -51
c79 -136 109 -79 75 142 -23 151 -56 323 -88 465 -42 187 -43 192 -26 204 27
21 28 48 3 174 -23 119 -32 212 -20 212 3 0 16 -7 29 -16 19 -12 26 -12 32 -3
4 7 10 102 13 210 3 109 9 200 12 204 16 15 221 -107 434 -260 188 -134 248
-160 148 -64 -103 98 -284 229 -345 248 -20 7 -42 19 -49 27 -7 9 -46 34 -86
56 -115 63 -143 100 -143 188 0 30 -16 30 175 4 64 -9 152 -30 210 -50 104
-36 242 -74 269 -74 31 0 15 18 -36 40 -91 39 -157 60 -353 111 -115 30 -197
56 -208 67 -17 18 -17 19 3 44 39 51 93 62 258 54 140 -6 234 -15 313 -31 28
-5 38 -3 42 9 15 38 -89 64 -300 76 -84 5 -157 11 -163 15 -14 9 15 62 43 76
13 8 95 15 207 19 102 3 191 10 198 14 41 25 -16 44 -180 59 -76 7 -140 16
-144 20 -9 9 4 40 107 255 53 111 85 190 82 202 -3 11 -35 54 -72 96 -135 156
-143 174 -90 193 29 10 31 13 24 43 -24 113 -19 126 35 86 64 -47 54 -22 -115
297 -76 143 -80 153 -80 215 0 53 8 87 43 178 23 62 54 168 68 235 31 147 53
202 143 367 123 222 232 459 281 611 10 31 23 108 29 170 14 155 26 621 17
690 -11 88 -18 93 -132 98 -169 6 -338 -32 -415 -94 -24 -19 -60 -40 -79 -46
-151 -50 -686 -528 -868 -777 l-37 -50 -380 5 c-318 5 -408 3 -553 -11 -96
-10 -189 -15 -207 -12 -37 7 -89 59 -111 111 -34 82 -250 343 -427 519 -216
212 -383 346 -431 346 -12 0 -48 13 -81 28 -33 16 -80 34 -105 40 -39 10 -263
42 -291 42 -5 0 -39 -59 -74 -131z m416 -119 c183 -61 345 -172 495 -338 115
-127 231 -271 265 -328 13 -23 46 -74 74 -115 65 -98 115 -212 115 -266 0 -24
2 -43 5 -43 3 0 32 13 64 29 93 47 241 79 491 106 178 19 255 19 500 -5 113
-11 233 -20 268 -20 l62 0 30 63 c82 174 432 523 715 712 243 162 469 245 522
192 16 -15 18 -42 21 -190 4 -206 -11 -386 -42 -511 -44 -172 -189 -492 -305
-675 -92 -145 -106 -180 -136 -359 -14 -80 -30 -151 -35 -156 -17 -17 -38 3
-101 91 -34 48 -86 115 -114 148 -66 76 -88 118 -80 154 6 29 44 70 82 90 31
16 97 14 140 -4 73 -31 79 -18 28 65 -19 32 -33 65 -30 73 4 8 27 29 52 48
l46 33 -38 10 -37 11 76 84 c104 115 102 122 -15 66 -41 -19 -86 -35 -102 -35
-27 0 -22 7 75 103 115 114 207 229 188 235 -6 2 -26 -10 -44 -27 -18 -17 -35
-31 -39 -31 -15 0 -6 28 14 46 38 33 79 96 79 120 0 13 -8 27 -17 32 -15 9
-14 14 13 47 91 114 82 150 -20 84 -27 -16 -50 -28 -52 -26 -8 8 96 144 150
197 31 30 56 60 56 67 0 24 -36 13 -90 -27 -29 -22 -58 -40 -63 -40 -9 0 -4 8
40 63 30 37 30 57 1 49 -37 -9 -195 -172 -218 -224 -11 -25 -33 -60 -50 -78
-31 -34 -104 -170 -95 -179 3 -3 44 33 91 80 63 61 84 77 79 59 -15 -50 -54
-116 -104 -175 -53 -62 -57 -70 -41 -80 16 -10 12 -18 -41 -80 -28 -33 -57
-74 -65 -92 -7 -17 -50 -70 -94 -118 -105 -113 -116 -130 -100 -150 8 -9 10
-29 7 -50 -7 -40 -7 -40 63 13 58 45 64 27 20 -60 -39 -78 -56 -96 -71 -81
-16 16 -68 220 -69 268 0 86 71 272 158 412 84 135 76 149 -29 48 -47 -46 -75
-65 -93 -65 -37 0 -38 -3 -95 -261 -12 -53 -28 -104 -35 -114 -12 -16 -15 -16
-44 -1 -65 33 -69 10 -13 -72 21 -31 73 -127 115 -212 41 -85 94 -180 115
-210 60 -83 224 -329 254 -380 14 -25 34 -75 43 -110 9 -36 40 -121 69 -190
29 -69 56 -136 60 -150 4 -14 19 -35 33 -47 26 -22 26 -23 5 -23 -31 0 -53
-10 -53 -25 0 -7 16 -32 35 -55 41 -49 42 -59 14 -83 -16 -14 -19 -25 -14 -47
8 -38 -6 -39 -51 -5 -18 14 -42 25 -54 25 -35 0 -59 18 -53 40 12 46 -75 1
-167 -85 -37 -34 -118 -101 -181 -148 -122 -91 -209 -175 -209 -204 0 -32 -19
1 -34 62 -22 83 -21 187 2 215 23 28 49 18 60 -24 5 -17 16 -32 26 -34 28 -6
139 54 195 104 62 56 70 78 41 109 -26 28 -27 26 39 134 28 46 51 88 51 93 0
22 -36 18 -98 -10 -46 -22 -94 -34 -155 -41 -137 -16 -234 -68 -268 -145 -27
-63 -40 -188 -28 -297 13 -132 49 -265 124 -460 66 -172 102 -285 93 -294 -2
-3 -132 -6 -289 -7 l-284 -3 -70 42 c-39 23 -90 47 -114 53 -89 23 -197 -12
-301 -99 -34 -28 -65 -51 -71 -51 -40 0 -31 143 17 287 l28 82 -36 53 c-20 29
-54 91 -76 138 -44 92 -124 190 -197 240 -43 30 -94 48 -263 95 -116 31 -220
79 -292 133 -30 23 -58 42 -62 42 -12 0 -10 -58 3 -83 6 -12 23 -34 37 -49 14
-15 23 -30 20 -33 -9 -9 -145 64 -225 122 -53 38 -90 57 -118 61 -29 3 -53 17
-88 50 -48 44 -49 44 -68 26 -21 -22 -43 -98 -60 -214 -7 -44 -15 -80 -18 -79
-3 0 -21 32 -39 70 -19 39 -39 68 -45 66 -19 -6 -20 -107 -3 -245 9 -70 20
-222 26 -339 10 -234 20 -311 50 -398 22 -63 20 -77 -7 -52 -10 8 -55 32 -101
51 -190 82 -263 168 -429 512 -39 83 -78 171 -84 196 l-12 46 50 58 c61 71
133 173 133 189 0 6 16 30 35 52 19 23 35 44 35 46 0 3 -16 3 -35 0 -19 -3
-35 -2 -35 2 0 4 18 27 39 50 36 39 61 94 61 135 0 8 21 26 48 40 39 21 47 30
50 57 2 24 13 40 40 60 20 15 67 53 104 85 67 59 96 70 118 43 6 -8 18 -69 26
-136 13 -114 31 -169 54 -169 14 0 22 39 16 74 -17 90 95 342 235 529 95 127
247 283 313 322 42 25 47 31 43 55 -8 36 18 76 124 191 49 53 89 104 89 114 0
9 -11 26 -25 36 -43 34 -85 136 -94 228 -5 45 -13 87 -19 93 -16 16 -31 1 -38
-38 l-7 -36 -19 30 c-10 16 -22 54 -25 83 -4 37 -14 60 -30 77 -22 22 -25 23
-42 8 -10 -9 -21 -16 -25 -16 -4 0 -50 41 -101 90 -51 50 -98 90 -104 90 -21
0 -22 -22 -3 -54 11 -18 36 -77 56 -132 38 -102 70 -159 114 -206 l25 -27 -37
-17 c-20 -10 -36 -20 -36 -24 0 -3 24 -20 54 -38 103 -61 141 -130 116 -209
-41 -128 -179 -281 -234 -260 -22 9 -20 27 2 27 10 0 27 6 37 14 18 13 18 16
-18 74 -40 64 -44 77 -24 69 45 -17 57 -18 57 -5 0 21 -42 56 -162 137 -60 40
-108 74 -108 76 0 2 18 1 40 -2 54 -8 52 7 -12 80 -43 50 -48 58 -27 52 36
-11 101 -50 148 -90 44 -36 69 -39 51 -6 -5 10 -55 58 -110 106 -133 114 -180
174 -180 226 0 27 -6 45 -20 56 -20 18 -27 43 -11 43 12 0 51 -31 149 -117 45
-40 87 -73 93 -73 6 0 0 19 -13 42 -31 56 -183 209 -286 287 -114 86 -208 176
-239 228 -13 23 -29 43 -35 43 -30 0 43 -181 107 -264 41 -54 69 -108 84 -161
18 -66 -2 -63 -73 9 -36 36 -70 66 -76 66 -28 0 6 -69 95 -190 85 -117 84
-114 45 -105 -31 7 -31 6 -20 -17 7 -12 29 -41 50 -63 54 -57 90 -114 90 -142
0 -25 0 -25 -71 -18 l-72 7 28 -36 c32 -42 27 -55 -12 -35 -16 7 -31 15 -35
17 -5 2 -8 -3 -8 -11 0 -22 101 -112 161 -143 l54 -27 -30 -10 c-16 -5 -35
-14 -42 -19 -19 -15 -3 -38 27 -38 16 0 32 -5 35 -10 4 -6 -17 -38 -46 -73
-59 -71 -85 -118 -76 -141 10 -26 31 -19 98 34 71 55 102 64 99 28 -1 -13 -2
-29 -1 -35 2 -22 52 -14 83 12 37 31 63 32 83 2 17 -26 11 -56 -25 -127 -49
-97 -188 -267 -226 -276 -61 -15 -161 85 -211 212 -25 64 -28 79 -27 199 1 89
7 146 18 180 l16 50 -42 35 c-69 58 -149 259 -168 428 -13 112 -13 546 0 635
15 104 87 228 152 261 43 22 140 16 229 -14z m2529 -2622 c0 -4 -9 -8 -19 -8
-21 0 -31 17 -23 38 3 10 9 9 23 -4 11 -9 19 -21 19 -26z m-2385 -127 c22 -21
87 -78 145 -126 103 -85 137 -97 85 -30 -14 19 -22 35 -17 35 4 0 94 -29 200
-65 105 -36 196 -65 202 -65 17 0 11 22 -12 47 -12 13 -19 25 -17 28 9 8 233
-55 286 -81 63 -30 126 -99 149 -162 9 -26 31 -81 47 -122 26 -62 31 -89 31
-157 1 -45 -3 -85 -7 -89 -4 -4 -26 7 -50 25 -102 77 -226 114 -235 69 -2 -11
16 -26 58 -49 89 -47 222 -200 197 -226 -4 -3 -42 -8 -84 -10 -388 -17 -512
-26 -740 -54 -260 -32 -263 -32 -284 -13 -27 24 -58 85 -76 149 -8 28 -18 139
-23 248 -5 109 -14 236 -20 283 -6 47 -8 89 -5 94 3 5 26 -6 51 -25 72 -55
104 -46 80 22 -8 22 -15 62 -16 89 -5 90 0 224 7 224 4 0 25 -17 48 -39z
m2937 -78 c19 -21 67 -84 107 -140 39 -56 79 -108 90 -115 48 -35 50 -87 6
-209 -68 -189 -124 -278 -199 -314 -73 -34 -429 -82 -460 -62 -27 18 -92 204
-107 307 -13 87 -6 214 15 263 17 42 43 67 126 121 36 23 94 67 130 96 89 75
122 90 195 90 57 0 63 -2 97 -37z m-3505 -859 c33 -33 90 -71 153 -104 56 -28
104 -58 107 -66 3 -8 -1 -22 -10 -32 -19 -22 -51 -87 -67 -137 -7 -22 -58
-139 -112 -260 -151 -331 -188 -457 -188 -632 0 -114 5 -122 46 -82 19 18 36
30 39 27 17 -16 75 -479 82 -648 5 -132 4 -138 -35 -300 -46 -189 -58 -260
-45 -260 5 0 22 13 38 30 16 16 30 28 32 27 1 -2 -8 -46 -21 -98 -31 -120 -82
-421 -97 -566 -13 -126 -7 -191 20 -225 16 -19 21 -20 35 -9 9 7 16 22 16 33
0 16 3 18 13 10 15 -13 42 -71 87 -187 17 -44 90 -199 161 -345 100 -205 132
-280 140 -330 7 -46 7 -174 0 -440 -13 -412 -18 -500 -34 -500 -6 0 -26 14
-44 32 -26 25 -43 32 -85 36 -45 3 -59 0 -91 -22 -21 -14 -46 -26 -55 -26 -10
0 -53 22 -97 50 -103 64 -116 64 -151 1 -14 -28 -33 -52 -42 -56 -25 -9 -56
20 -86 81 -41 86 -61 104 -112 104 -34 0 -51 7 -81 33 -54 46 -79 76 -108 129
-40 74 -130 358 -174 554 -83 370 -90 464 -41 579 43 100 40 125 -30 274 -115
246 -157 416 -170 688 -9 177 -16 208 -59 247 -19 18 -21 18 -27 1 -10 -26 4
-395 20 -520 17 -128 24 -162 73 -350 40 -154 41 -162 33 -570 l-4 -180 143
-505 c78 -278 184 -647 236 -820 129 -433 210 -758 193 -776 -6 -6 -57 -13
-451 -65 -196 -26 -213 -21 -148 37 22 21 41 42 41 47 0 31 -315 -37 -481
-104 -53 -21 -127 -43 -164 -48 -37 -6 -89 -21 -114 -34 -25 -13 -70 -36 -99
-51 -60 -31 -90 -29 -72 4 10 18 8 20 -19 20 -68 0 -244 -86 -451 -219 -74
-48 -150 -93 -167 -100 -46 -18 -123 -16 -162 4 -126 65 -250 308 -346 680
-26 99 -68 261 -95 360 -49 183 -70 292 -70 364 0 81 -29 97 -53 29 -21 -59
-20 -29 3 147 11 83 20 167 20 189 0 38 -1 38 -30 33 -18 -4 -30 -2 -30 4 0 6
25 55 55 108 57 100 66 127 40 117 -35 -13 -9 21 95 126 61 61 110 115 110
119 0 10 -10 12 -62 9 -21 -1 -38 3 -38 8 0 16 227 228 263 245 17 9 68 43
112 76 68 51 82 58 91 45 7 -8 47 -119 90 -247 148 -443 217 -586 529 -1092
113 -183 144 -245 210 -405 28 -69 55 -125 60 -125 14 0 6 77 -15 159 -22 85
-181 419 -241 508 -71 103 -271 512 -312 634 -20 62 -64 206 -98 320 -59 201
-61 214 -66 351 -15 384 109 845 352 1311 124 238 233 363 495 568 85 67 224
184 309 260 260 234 323 280 306 222 -7 -23 -71 -141 -163 -299 -54 -93 -69
-129 -53 -129 11 0 169 170 212 228 56 76 111 257 199 657 77 349 126 492 223
648 101 161 290 367 337 367 21 0 59 -42 120 -133 25 -37 49 -67 54 -67 4 0 5
20 2 45 -5 30 -4 45 4 45 6 0 52 -39 103 -87 67 -64 93 -83 95 -70 3 17 -29
69 -105 169 -65 86 -133 199 -133 223 0 17 5 14 27 -15 14 -19 50 -58 80 -86z
m2176 -27 c48 -28 89 -82 137 -177 54 -106 73 -126 148 -151 83 -26 117 -56
108 -93 -14 -57 -123 -89 -306 -90 -86 -1 -111 2 -133 17 -32 21 -28 34 20 54
19 8 33 16 31 18 -2 2 -36 0 -76 -5 -99 -13 -114 -5 -157 79 -19 39 -35 75
-35 81 0 6 37 10 94 10 52 0 97 4 100 9 7 11 -53 21 -134 21 -76 0 -90 9 -90
61 0 41 21 69 51 69 25 0 24 12 -1 28 -11 7 -20 18 -20 25 0 19 42 56 76 67
49 16 140 5 187 -23z m1267 5 c0 -11 -8 -26 -18 -35 -28 -25 -147 -49 -252
-51 -89 -1 -95 0 -95 19 0 29 36 42 171 64 161 26 194 26 194 3z m-1803 -103
c34 -13 73 -48 73 -65 0 -24 -40 -35 -203 -55 -89 -11 -218 -31 -287 -44 -184
-36 -246 -44 -270 -38 -11 3 -30 23 -41 44 -11 22 -23 39 -28 39 -5 0 -14 -20
-21 -44 -19 -71 -43 -69 -145 6 -33 25 -70 50 -82 57 -13 6 -23 16 -23 21 0
29 179 64 410 79 190 12 584 13 617 0z m1186 -45 c15 -3 27 -9 27 -14 0 -21
-79 -35 -182 -32 -59 1 -109 -2 -112 -7 -4 -5 5 -23 19 -39 32 -38 31 -42 -5
-42 -42 0 -86 25 -94 52 -16 62 -1 81 71 89 59 7 225 3 276 -7z m472 7 c18
-30 -123 -80 -186 -66 -28 6 -48 29 -36 41 27 27 208 47 222 25z m-2849 -87
c101 -42 216 -136 200 -163 -4 -5 -32 -17 -64 -26 -31 -9 -128 -46 -214 -81
-86 -35 -164 -64 -173 -64 -20 0 -18 7 48 164 76 180 110 209 203 170z m2484
-36 c0 -45 -72 -133 -161 -198 -62 -44 -129 -38 -129 11 0 22 27 42 131 99 45
25 96 59 113 76 38 38 46 40 46 12z m187 -14 c5 -16 -36 -54 -57 -54 -27 0
-25 16 5 46 25 25 45 28 52 8z m-1368 -23 c71 -20 16 -51 -194 -110 -82 -23
-228 -70 -324 -103 -166 -59 -174 -61 -199 -45 -29 17 -78 104 -88 154 -6 29
-3 34 20 43 33 12 179 37 321 54 116 14 423 19 464 7z m1243 -211 l-3 -112 35
21 c19 12 37 18 40 13 7 -13 -17 -43 -146 -184 -59 -65 -119 -138 -133 -163
-29 -48 -47 -147 -35 -180 7 -17 11 -12 29 30 56 131 93 180 245 325 l68 65
-7 -45 c-3 -25 -15 -88 -26 -140 -11 -52 -25 -124 -30 -159 -14 -84 -6 -561
11 -661 12 -73 7 -230 -8 -230 -4 1 -21 31 -39 68 l-31 67 -1 -70 c-1 -39 -8
-98 -17 -130 -9 -33 -23 -82 -31 -110 -7 -27 -40 -201 -73 -385 -86 -486 -81
-469 -275 -919 -140 -327 -194 -538 -220 -861 -38 -489 -34 -470 -146 -564
-41 -34 -95 -93 -126 -138 -78 -111 -96 -118 -175 -66 -65 41 -141 50 -157 20
-30 -56 -261 -297 -292 -305 -13 -4 -25 2 -35 19 -21 32 -50 200 -70 412 -15
159 -15 195 0 475 18 348 20 443 6 452 -17 11 -39 -39 -75 -175 -92 -345 -233
-612 -509 -960 -74 -93 -143 -183 -153 -200 -22 -38 -34 -34 -51 16 -33 96
-23 926 12 1022 8 20 39 91 69 157 92 200 86 217 -40 107 -83 -73 -103 -85
-122 -73 -7 5 -46 83 -86 174 -40 92 -105 227 -145 301 -103 197 -129 284
-150 506 -5 63 -13 128 -16 143 l-6 29 -29 -28 c-27 -26 -29 -26 -29 -7 0 96
128 590 210 813 51 138 56 158 41 172 -16 17 -31 -2 -86 -115 l-44 -88 -5 43
c-3 24 -15 203 -26 398 -36 652 -45 739 -70 755 -5 3 -18 -11 -29 -32 -26 -49
-26 -35 -1 54 26 93 76 219 101 255 38 52 229 145 460 222 121 41 152 44 194
17 39 -24 105 -136 105 -178 0 -31 -5 -35 -79 -73 -108 -54 -233 -128 -376
-223 -129 -85 -175 -123 -175 -144 0 -21 37 -1 181 95 123 83 480 282 505 282
6 0 21 -12 35 -26 28 -31 98 -84 111 -84 14 0 9 29 -13 71 -11 23 -18 44 -14
47 8 8 85 -31 123 -63 57 -48 41 -79 -89 -165 -49 -34 -89 -67 -89 -75 0 -19
32 -7 130 50 121 70 147 80 164 66 9 -7 38 -72 66 -143 58 -149 86 -208 100
-208 22 0 20 26 -4 75 -18 35 -34 93 -47 175 -11 68 -22 127 -25 131 -3 5 -16
9 -30 9 -32 0 -30 14 5 39 37 27 418 215 487 241 75 27 85 26 141 -20 155
-129 223 -170 323 -196 50 -13 71 -13 118 -4 76 16 197 73 212 99 6 12 71 66
143 120 73 54 147 115 164 135 51 58 58 46 55 -84z m-1143 79 c12 -11 21 -28
19 -37 -2 -10 -101 -65 -253 -141 -138 -70 -266 -136 -285 -148 l-35 -21 -95
69 c-52 39 -96 73 -98 78 -7 22 277 125 508 185 159 42 207 45 239 15z m1406
-71 c23 -59 23 -123 -1 -149 -17 -19 -19 -41 -22 -233 -3 -146 -7 -213 -15
-218 -29 -18 -5 -206 63 -508 26 -118 51 -231 55 -250 l7 -34 -63 54 c-34 30
-60 48 -57 40 13 -36 61 -359 55 -374 -6 -15 -10 -15 -37 5 -16 13 -32 21 -34
18 -2 -2 0 -27 5 -54 13 -66 6 -89 -43 -144 -77 -88 -148 -263 -258 -636 -23
-77 -57 -171 -75 -210 -39 -79 -136 -216 -142 -198 -2 6 26 88 62 182 93 244
111 313 150 589 36 248 65 391 90 447 13 29 13 27 15 -45 2 -83 10 -122 26
-127 32 -11 70 159 84 372 8 131 22 195 41 195 5 0 15 -12 23 -27 l15 -28 1
41 c0 63 -27 207 -63 329 -29 99 -32 123 -31 240 0 113 5 156 41 330 23 110
44 234 48 275 10 132 16 160 30 160 7 0 20 -19 30 -42z m-680 -60 c14 -6 25
-15 25 -19 0 -14 -75 -72 -124 -95 -61 -28 -117 -30 -171 -5 -46 21 -80 55
-70 70 3 6 23 11 43 12 20 0 78 11 127 24 105 27 135 29 170 13z m-1366 -4230
c29 -245 42 -386 71 -768 17 -223 35 -451 40 -508 9 -85 8 -114 -5 -165 -36
-148 -144 -304 -339 -495 -140 -137 -157 -145 -188 -82 -27 55 -128 625 -153
863 -25 246 -29 395 -11 445 30 82 203 324 357 498 33 37 93 123 132 191 40
67 75 122 78 123 3 0 11 -46 18 -102z m1097 -170 c-4 -57 -15 -258 -26 -448
-23 -403 -32 -513 -65 -830 -32 -311 -39 -501 -26 -697 14 -196 30 -292 76
-452 52 -181 109 -326 165 -418 28 -45 50 -91 50 -103 0 -20 -38 -42 -124 -74
-42 -15 -1 -15 165 -1 200 17 423 19 522 5 122 -18 184 -69 224 -183 26 -75
26 -355 0 -407 -24 -49 -83 -117 -93 -107 -5 4 -7 59 -5 121 1 66 -2 116 -7
120 -19 11 -34 -24 -43 -100 -6 -42 -16 -92 -24 -110 -28 -68 -35 -39 -35 155
0 175 -9 251 -30 251 -11 0 -20 -82 -20 -194 0 -95 -10 -170 -25 -184 -13 -13
-25 25 -26 83 0 66 -13 111 -23 85 -5 -12 -46 -205 -46 -215 0 -15 -38 -35
-65 -35 -56 0 -62 14 -52 121 4 52 7 150 5 219 -3 108 -7 130 -25 160 -25 41
-71 75 -58 43 35 -83 52 -345 27 -406 -18 -42 -32 -32 -33 26 -1 62 -10 99
-26 104 -16 6 -21 -16 -28 -114 -8 -111 -18 -138 -58 -154 -55 -23 -174 -16
-238 13 -107 49 -159 114 -184 232 -23 112 -35 146 -56 157 -29 15 -50 -5 -42
-42 5 -24 2 -29 -14 -29 -29 0 -100 54 -118 91 -9 17 -25 78 -37 137 -11 59
-27 123 -35 142 -18 40 -101 316 -143 470 -16 58 -29 107 -30 110 -1 3 -10
-19 -20 -49 l-17 -55 -43 73 c-24 39 -49 97 -56 129 -23 99 -131 1417 -141
1730 -5 156 -4 172 11 172 9 0 25 -5 35 -12 29 -18 58 7 172 149 132 165 158
193 184 193 12 0 54 -21 93 -46 63 -40 74 -44 90 -32 32 22 113 121 128 156 8
18 22 35 32 38 47 14 104 50 127 80 14 19 29 34 32 34 3 0 3 -46 -1 -102z
m-2821 12 c12 -11 48 -31 81 -43 45 -18 66 -33 92 -68 74 -100 85 -110 129
-116 49 -6 93 16 93 46 0 93 96 52 185 -79 l50 -72 7 40 c8 47 37 106 74 146
l26 29 80 -79 c128 -127 131 -137 183 -604 39 -352 73 -566 134 -852 49 -231
64 -317 101 -608 48 -373 52 -391 132 -554 26 -55 48 -105 48 -112 0 -7 -13
-15 -30 -18 -16 -3 -44 -9 -61 -12 -17 -3 -29 -8 -27 -10 3 -2 81 -12 176 -23
200 -23 235 -36 309 -112 65 -68 114 -155 158 -282 42 -118 44 -170 11 -235
-43 -85 -152 -165 -151 -112 0 8 4 58 9 112 4 53 5 102 1 108 -13 21 -27 -6
-40 -82 -13 -75 -51 -169 -71 -175 -7 -2 -15 57 -23 174 -12 188 -28 300 -42
308 -12 8 -17 -38 -26 -247 -9 -208 -10 -211 -84 -242 -59 -25 -69 -10 -79
119 -13 176 -43 223 -53 83 -3 -46 -11 -98 -18 -117 -21 -58 -30 -13 -39 193
-9 191 -20 263 -34 220 -3 -11 -10 -110 -15 -219 -9 -199 -23 -278 -42 -244
-5 9 -17 62 -28 117 -11 56 -25 111 -32 124 l-12 22 -9 -24 c-6 -16 -5 -67 2
-138 13 -135 6 -158 -43 -148 -98 20 -150 156 -163 426 -4 77 -9 139 -10 137
-15 -14 -25 -143 -25 -306 l0 -194 -24 23 c-25 23 -39 60 -50 131 -3 21 -13
43 -22 50 -15 13 -16 6 -11 -81 6 -93 -2 -140 -22 -140 -24 0 -92 77 -122 138
-32 64 -33 71 -33 192 0 214 46 315 182 398 50 30 75 51 79 68 4 14 4 27 1 30
-2 3 -33 -13 -67 -35 -35 -23 -69 -41 -75 -41 -21 0 -34 24 -60 116 -14 49
-44 141 -66 204 -55 158 -104 335 -124 455 -19 107 -108 532 -175 835 -56 254
-120 506 -191 753 -32 115 -59 210 -59 213 0 3 9 3 19 -1 11 -3 22 -1 26 5 3
5 -2 10 -13 10 -32 0 -48 30 -97 180 -46 143 -66 240 -50 240 5 0 18 -9 30
-20z m-3414 -631 c173 -51 308 -121 406 -212 23 -21 46 -36 52 -33 10 6 -5 61
-33 128 -9 21 -16 40 -16 44 0 9 109 -54 153 -88 86 -68 193 -262 231 -420 9
-39 -5 -36 -91 16 -117 70 -350 137 -418 120 -29 -7 -34 -38 -7 -49 9 -4 51
-13 92 -21 96 -17 229 -83 336 -168 109 -86 211 -212 190 -234 -13 -12 -305
-14 -390 -2 -124 18 -159 37 -194 107 -59 115 -307 364 -417 418 -68 34 -142
43 -158 21 -10 -13 -45 -18 -212 -25 -128 -6 -215 -15 -241 -24 -100 -36 -234
-121 -217 -138 6 -6 42 1 94 17 195 60 254 73 340 73 123 1 268 -38 411 -110
156 -79 328 -203 328 -237 0 -43 39 -81 127 -123 48 -23 119 -60 156 -82 l68
-40 80 38 c73 34 86 37 142 33 62 -5 113 -26 212 -84 78 -47 143 -71 234 -88
47 -9 87 -18 89 -21 3 -2 -8 -30 -23 -62 -40 -81 -136 -175 -203 -199 -29 -10
-52 -21 -52 -24 0 -5 222 5 298 13 17 1 32 1 32 -1 0 -2 -40 -60 -90 -129 -49
-69 -90 -131 -90 -138 0 -15 51 -27 285 -70 77 -15 145 -28 151 -30 8 -2 2
-40 -17 -117 -60 -239 -55 -253 86 -268 50 -5 143 -10 207 -10 72 0 119 -4
123 -11 11 -17 -31 -55 -160 -145 -154 -107 -160 -112 -151 -121 4 -5 88 -8
187 -8 98 0 179 -1 179 -2 0 -2 -19 -12 -42 -24 -83 -42 -174 -71 -258 -80
-47 -5 -100 -14 -117 -20 -95 -31 15 -49 341 -56 l270 -6 -35 -29 c-94 -81
-213 -111 -439 -111 -210 0 -425 28 -555 74 -54 19 -95 18 -95 -1 0 -15 137
-76 255 -113 134 -43 295 -77 364 -77 86 0 56 -31 -50 -51 -84 -16 -474 -15
-604 1 -64 8 -131 24 -187 46 -103 39 -158 55 -158 45 0 -3 27 -33 60 -66 33
-33 60 -63 60 -67 0 -12 -79 -9 -140 6 -182 45 -452 169 -646 297 -169 112
-208 125 -155 54 61 -83 232 -221 417 -336 l119 -74 -42 -3 c-37 -3 -202 41
-307 81 -81 31 -313 207 -373 284 -16 21 -35 53 -41 72 -13 36 -77 121 -93
121 -16 0 -10 -46 15 -126 l25 -77 -41 39 c-60 59 -150 201 -234 369 -65 132
-87 194 -110 313 -6 32 -29 27 -45 -11 -29 -67 -1 -373 46 -506 8 -24 13 -46
11 -48 -11 -11 -127 172 -167 264 -37 82 -60 183 -69 303 -14 168 -21 225 -29
239 -19 30 -25 -38 -29 -301 -2 -153 -7 -278 -11 -278 -16 0 -99 116 -135 188
-152 303 -187 686 -91 1017 38 131 112 276 204 399 125 166 110 175 -89 52
-112 -69 -107 -36 17 131 124 166 286 272 510 333 43 12 85 24 93 27 8 3 -33
14 -93 24 -59 10 -119 25 -134 32 l-26 14 54 21 c130 48 336 53 587 14 62 -10
111 -15 110 -12 -2 4 -38 37 -80 74 -43 37 -78 69 -78 72 0 9 32 3 131 -27z
m2659 -664 c0 -9 -15 -46 -34 -83 -54 -108 -106 -359 -78 -376 14 -8 32 27 66
131 15 45 40 99 55 120 49 67 176 121 371 158 108 20 452 65 498 65 l35 0 -7
-94 c-14 -199 -75 -319 -269 -526 -49 -52 -84 -96 -78 -98 18 -6 79 40 207
156 l116 105 -7 -44 c-33 -215 -133 -405 -324 -618 -56 -62 -100 -115 -97
-118 11 -11 136 40 153 62 17 21 160 82 170 71 19 -19 -147 -225 -313 -386
-164 -160 -272 -242 -346 -264 -23 -7 -24 -46 -1 -46 9 0 77 16 151 36 74 19
136 34 137 32 8 -7 -225 -177 -300 -220 -143 -81 -375 -194 -375 -183 0 2 49
59 109 125 105 117 163 201 148 216 -4 4 -37 -7 -74 -24 -95 -43 -304 -113
-327 -110 -15 3 -6 19 55 98 124 158 204 301 229 408 13 55 -11 33 -65 -61
-27 -47 -63 -100 -80 -117 -47 -50 -295 -163 -295 -136 0 4 35 45 77 91 80 87
153 195 153 227 0 24 -9 23 -63 -7 -58 -33 -147 -46 -147 -21 0 9 15 33 33 53
64 73 89 113 108 174 10 33 19 66 19 71 0 6 -22 -18 -49 -53 -107 -142 -247
-235 -370 -246 -55 -5 -60 -4 -76 21 -14 21 -16 38 -11 79 11 84 42 133 169
265 111 116 159 183 144 198 -7 8 -18 0 -103 -69 -103 -83 -230 -109 -407 -82
-124 18 -157 29 -157 49 0 16 143 153 204 195 22 16 65 41 94 56 29 15 52 29
50 30 -2 1 -86 -5 -188 -15 -102 -9 -187 -15 -189 -13 -6 4 32 72 82 148 89
133 206 244 319 301 26 13 49 24 51 24 2 0 -12 -31 -31 -69 -34 -68 -59 -192
-30 -146 47 72 298 264 347 265 11 0 12 -10 8 -45 -5 -33 -3 -45 6 -45 7 0 53
30 102 66 104 77 187 126 316 189 103 50 109 52 109 30z m2619 -303 c5 -10 11
-65 12 -123 l1 -104 -92 2 c-51 1 -97 6 -101 10 -16 16 136 233 163 233 4 0
12 -8 17 -18z m-1525 -397 c46 -186 71 -340 60 -369 -8 -21 -45 -31 -122 -31
-98 0 -109 27 -47 124 41 66 36 75 -40 66 l-65 -7 59 169 c75 216 89 249 101
237 5 -5 29 -90 54 -189z m1539 13 c3 -13 15 -93 27 -178 12 -85 28 -200 36
-254 16 -106 13 -116 -31 -115 -65 0 -526 36 -531 41 -3 3 -6 101 -7 217 l-2
210 36 36 c56 56 90 64 290 65 175 0 177 0 182 -22z m1147 -36 c88 -39 162
-114 229 -233 62 -112 90 -245 60 -300 -18 -34 -29 -10 -29 66 0 41 -4 77 -10
80 -6 4 -10 -6 -10 -22 0 -43 -27 -174 -38 -185 -6 -6 -12 22 -16 79 -8 101
-39 226 -67 271 -40 67 -53 17 -19 -78 14 -39 19 -82 20 -149 0 -52 -2 -92 -5
-89 -3 2 -18 47 -34 99 l-30 94 0 -119 c-1 -97 -4 -123 -18 -138 -25 -28 -60
-23 -77 11 -29 55 -156 537 -156 591 0 43 18 53 90 47 36 -3 85 -14 110 -25z
m-2934 -607 c36 -36 84 -144 96 -217 15 -85 -6 -157 -63 -222 -50 -57 -78 -74
-90 -55 -5 8 -6 61 -3 118 10 147 -21 120 -41 -36 -8 -62 -28 -85 -45 -53 -8
14 -9 58 -4 142 l7 121 -56 -7 c-81 -9 -78 5 31 129 49 57 109 105 129 105 8
0 25 -11 39 -25z m-220 -407 c-14 -87 -51 -123 -74 -73 -19 41 -14 61 19 89
47 40 63 35 55 -16z m-126 -81 c0 -31 -18 -47 -52 -47 -36 0 -35 12 3 44 38
32 49 33 49 3z"/>
<path d="M6554 10015 c-10 -26 24 -63 137 -149 150 -113 181 -126 307 -126
l104 0 62 -60 c35 -33 66 -60 71 -60 29 0 -39 179 -105 274 -63 93 -120 110
-310 94 -132 -11 -127 -12 -242 37 -12 5 -20 2 -24 -10z m411 -106 c12 -18 -4
-61 -22 -57 -26 5 -39 34 -24 52 15 18 37 21 46 5z"/>
<path d="M7100 3470 c-24 -8 -24 -8 7 -9 17 -1 35 4 38 9 7 11 -9 11 -45 0z"/>
<path d="M172 1858 c-14 -14 -16 -58 -3 -58 10 0 26 58 19 66 -2 2 -10 -2 -16
-8z"/>
<path d="M4451 561 c-17 -16 -31 -36 -31 -45 0 -26 22 -66 37 -66 27 0 62 128
37 137 -6 2 -25 -10 -43 -26z"/>
<path d="M4332 457 c-27 -29 -28 -37 -3 -37 23 0 51 25 51 46 0 21 -24 17 -48
-9z"/>
</g>
</svg>
