<?xml version="1.0" standalone="no"?>
<!DOCTYPE svg PUBLIC "-//W3C//DTD SVG 20010904//EN"
 "http://www.w3.org/TR/2001/REC-SVG-20010904/DTD/svg10.dtd">
<svg version="1.0" xmlns="http://www.w3.org/2000/svg"
 width="1117.000000pt" height="1280.000000pt" viewBox="0 0 1117.000000 1280.000000"
 preserveAspectRatio="xMidYMid meet">
<metadata>
Created by potrace 1.15, written by Peter Selinger 2001-2017
</metadata>
<g transform="translate(0.000000,1280.000000) scale(0.100000,-0.100000)"
fill="#00FF00" stroke="none">
<path d="M6020 11418 c-13 -35 -34 -97 -47 -138 -13 -41 -30 -89 -38 -105 -7
-17 -16 -48 -19 -70 -2 -22 -7 -47 -10 -55 -5 -13 -23 -107 -46 -240 -4 -25
-14 -74 -20 -110 -7 -36 -13 -72 -15 -80 -3 -25 -26 -133 -36 -172 -8 -29 -15
-38 -40 -43 -37 -8 -36 -36 1 -46 24 -7 24 -7 2 -8 -13 -1 -38 -17 -57 -38
-36 -39 -43 -59 -24 -65 8 -3 7 -14 -5 -35 -9 -18 -16 -43 -16 -58 0 -17 -6
-25 -17 -26 -16 0 -17 -1 -2 -11 15 -10 15 -14 -3 -45 -11 -18 -31 -42 -44
-52 -15 -12 -20 -22 -14 -26 5 -3 10 -14 10 -24 0 -10 9 -26 20 -36 38 -34 17
-94 -34 -95 -17 0 -16 -4 11 -32 36 -37 38 -6 -17 -268 -17 -80 -37 -181 -45
-225 -34 -193 -87 -484 -96 -530 -5 -27 -14 -81 -20 -120 -13 -81 -42 -229
-65 -330 -9 -38 -19 -88 -23 -110 -5 -22 -13 -58 -19 -80 -6 -22 -18 -71 -27
-110 -18 -80 -35 -146 -64 -260 -11 -44 -30 -120 -41 -170 -12 -49 -28 -112
-35 -140 -19 -71 -52 -193 -74 -277 -11 -40 -31 -113 -45 -163 -15 -49 -26
-95 -26 -102 0 -6 -5 -24 -12 -40 -12 -27 -12 -27 -18 27 -6 53 -7 51 -8 -26
-2 -80 -2 -82 -29 -87 -16 -3 -37 -9 -48 -13 -16 -6 -14 0 10 26 l30 32 -32
-16 c-33 -16 -33 -16 -33 8 0 14 5 28 11 32 6 3 9 17 6 30 -4 20 9 120 32 254
6 31 9 36 10 18 0 -16 6 -28 12 -28 7 0 8 37 4 118 -4 68 -2 144 4 182 6 36
17 110 26 165 24 166 44 275 66 370 12 50 22 109 23 132 0 22 5 39 10 36 5 -4
7 15 4 42 -4 27 -2 42 3 34 14 -23 23 0 9 25 -13 25 -7 157 10 202 5 12 11 55
14 95 6 88 -5 51 -29 -96 -8 -49 -21 -130 -29 -180 -9 -49 -23 -137 -31 -195
-18 -124 -61 -358 -80 -438 -3 -13 -10 -20 -15 -17 -6 4 -10 -19 -10 -57 0
-35 -5 -81 -10 -103 -6 -25 -5 -44 1 -52 12 -13 -2 -184 -26 -338 -8 -49 -16
-105 -17 -124 -3 -33 -30 -63 -44 -48 -4 3 -1 50 6 102 9 71 10 102 2 118 -6
12 -13 33 -15 47 -2 14 -5 -18 -6 -71 -2 -150 -9 -186 -37 -192 -28 -5 -31 1
-7 18 29 22 -49 39 -117 27 -34 -7 -59 -7 -64 -1 -6 5 -23 9 -38 9 -18 0 -28
5 -28 15 0 17 83 239 105 282 8 15 15 34 15 41 0 7 9 31 20 55 21 45 60 145
60 152 0 3 -4 5 -10 5 -5 0 -10 -6 -10 -14 0 -8 -9 -31 -19 -53 -11 -21 -27
-55 -37 -75 -9 -21 -20 -35 -25 -32 -5 3 -9 -6 -9 -20 0 -29 -54 -175 -75
-202 -14 -17 -15 -14 -9 36 3 30 9 69 14 85 5 17 11 50 15 75 3 25 12 68 20
95 7 28 19 82 26 120 6 39 17 95 24 125 7 30 18 82 25 115 12 58 42 186 97
420 14 61 36 151 49 200 34 132 133 522 148 583 8 28 10 52 7 52 -4 0 -12 -21
-19 -47 -12 -45 -33 -117 -87 -293 -13 -41 -32 -113 -44 -160 -11 -47 -41
-168 -66 -270 -55 -220 -88 -358 -110 -460 -32 -145 -45 -205 -54 -240 -9 -34
-39 -185 -67 -341 -7 -42 -18 -89 -24 -104 -5 -14 -10 -39 -10 -55 0 -16 -4
-32 -10 -35 -5 -3 -10 3 -10 14 0 11 -5 23 -12 27 -8 5 -9 2 -5 -9 4 -10 9
-46 13 -82 l7 -65 -49 6 c-27 4 -50 8 -51 9 -5 3 -23 280 -23 348 0 98 17 87
50 -33 7 -25 16 -58 21 -75 5 -16 13 -43 19 -60 l10 -30 -4 35 c-2 19 -16 78
-31 130 -15 52 -30 111 -32 130 -3 19 -11 49 -18 65 -7 17 -18 55 -24 85 -13
63 -47 443 -57 633 -7 123 -6 129 16 159 18 24 21 35 12 48 -6 10 -7 21 -2 26
13 15 38 114 29 114 -15 0 29 79 51 92 25 16 17 54 -17 87 -17 16 -23 30 -19
45 3 11 6 24 6 27 0 4 14 12 31 19 l31 13 -42 38 c-40 37 -42 40 -35 81 3 24
14 50 24 58 16 13 15 17 -22 51 -26 26 -37 43 -33 56 3 10 -1 27 -9 37 -15 19
-15 19 -39 -3 -23 -21 -25 -22 -29 -4 -3 10 -5 -4 -4 -31 1 -30 -3 -51 -10
-53 -7 -3 -10 4 -7 19 4 22 4 22 -7 -2 -19 -41 -23 -5 -10 84 7 45 16 110 22
146 5 36 16 110 24 165 8 55 22 145 30 200 27 166 29 189 18 182 -6 -4 -13
-32 -17 -64 -4 -32 -11 -74 -16 -93 -5 -19 -16 -78 -25 -130 -35 -206 -44
-258 -56 -326 l-12 -72 -21 23 c-32 35 -62 41 -69 13 -6 -24 -92 -85 -111 -80
-6 1 -2 -5 10 -15 13 -12 25 -41 33 -83 7 -36 20 -81 29 -100 8 -19 16 -39 16
-43 1 -5 8 -14 17 -20 23 -17 34 -111 14 -127 -17 -14 -20 -56 -5 -65 13 -8
12 -69 -1 -120 -5 -22 -14 -80 -19 -130 -15 -160 -38 -329 -48 -355 -10 -25
-10 -25 -26 13 -9 21 -28 63 -41 94 -14 30 -25 65 -25 76 0 11 -3 17 -7 14 -7
-8 4 -58 53 -252 l32 -130 -12 -142 c-16 -183 -24 -193 -61 -74 -10 31 -21 63
-26 71 -5 8 -20 35 -33 60 -13 25 -34 56 -45 70 l-22 25 7 -25 c3 -14 21 -58
40 -98 19 -41 34 -85 34 -98 0 -14 4 -23 9 -19 5 3 24 -20 41 -50 l32 -56 -7
-104 c-7 -98 -17 -130 -28 -87 -3 9 -5 4 -6 -13 0 -16 4 -47 9 -67 20 -71 -12
-282 -62 -410 -8 -23 -13 -26 -29 -17 -22 11 -23 7 -8 -36 10 -27 8 -44 -15
-116 -15 -46 -32 -88 -37 -94 -15 -16 -10 119 7 182 22 80 74 280 83 323 5 19
12 47 16 63 4 15 5 27 2 27 -9 0 -32 -56 -57 -140 -57 -188 -63 -203 -73 -178
-13 33 1 219 18 238 7 8 25 50 39 93 15 43 37 100 51 127 31 61 31 67 -1 114
-23 34 -25 41 -14 65 12 25 13 25 21 6 8 -17 9 -16 4 5 -2 14 -5 42 -5 63 0
56 -18 44 -25 -18 -4 -30 -11 -58 -16 -61 -5 -3 -25 7 -44 22 l-35 26 1 654
c0 360 4 654 9 654 5 0 15 -19 24 -42 16 -43 16 -43 12 -8 -2 19 -9 55 -14 80
-23 104 -31 285 -26 560 9 467 10 560 4 660 -4 73 -8 20 -17 -225 -7 -176 -18
-375 -24 -443 -7 -88 -7 -132 0 -154 14 -39 14 -145 1 -153 -6 -4 -11 19 -11
62 -2 56 -3 61 -8 28 l-6 -40 -23 45 c-20 39 -22 41 -18 15 15 -102 36 -185
52 -210 15 -23 18 -46 17 -129 0 -56 -5 -119 -11 -141 -6 -22 -13 -65 -15 -95
-2 -30 -2 -45 0 -32 8 40 23 23 23 -25 1 -27 1 -221 0 -433 0 -212 0 -418 0
-458 0 -51 -3 -71 -11 -66 -7 4 -9 22 -4 49 8 57 -12 102 -74 171 l-50 54 6
58 c7 75 40 298 57 387 8 39 19 96 26 128 6 32 9 68 7 80 -2 13 -5 6 -6 -16
-2 -53 -19 -37 -28 26 -7 51 -8 49 -19 -58 -6 -60 -17 -164 -23 -230 -7 -66
-16 -131 -21 -145 -5 -14 -12 -47 -15 -75 -4 -27 -11 -65 -17 -83 l-10 -32
-43 38 c-74 65 -205 147 -228 144 -26 -4 -94 -47 -122 -77 -11 -11 -31 -44
-44 -73 -23 -49 -27 -52 -61 -52 -21 0 -51 -3 -68 -6 -24 -5 -31 -2 -35 12 -4
16 -5 17 -6 2 -1 -16 -34 -30 -101 -41 -14 -3 -41 -14 -60 -25 -19 -11 -57
-26 -85 -33 -27 -6 -60 -21 -72 -32 -13 -11 -25 -18 -28 -15 -5 5 -17 56 -45
188 -5 25 -16 77 -25 115 -21 93 -44 201 -55 250 -8 38 -21 99 -56 250 -9 39
-19 84 -21 100 l-6 30 20 -24 c23 -28 49 -21 33 9 -15 28 -13 30 20 24 19 -4
30 -2 30 5 0 6 16 19 35 28 19 9 46 34 60 55 25 37 25 39 9 71 -9 17 -35 52
-58 76 -37 39 -39 43 -16 37 14 -3 50 -9 81 -12 l55 -6 47 63 c51 68 55 80 32
99 -17 14 -11 48 11 65 7 5 14 32 16 59 l3 49 -47 16 c-57 20 -88 47 -88 77 0
13 -9 28 -20 34 -11 6 -20 19 -20 29 0 10 -9 30 -21 44 -11 15 -23 43 -26 62
-7 42 -15 44 -42 9 -24 -31 -102 -54 -184 -54 -51 0 -59 3 -66 22 -4 13 -26
32 -47 43 -30 16 -40 27 -45 55 -4 19 -25 107 -49 195 -23 88 -46 176 -50 195
-14 58 -51 193 -101 370 -6 19 -16 58 -23 85 -9 31 -14 41 -15 26 -1 -13 6
-47 14 -75 8 -28 26 -98 40 -156 14 -58 29 -121 35 -140 5 -19 37 -147 71
-284 64 -262 64 -265 14 -266 -25 -1 -105 -72 -105 -93 0 -9 9 -18 19 -22 11
-3 25 -22 31 -41 11 -34 10 -37 -32 -83 -43 -48 -44 -49 -94 -44 -95 10 -136
-35 -112 -123 6 -21 11 -60 10 -86 0 -27 4 -48 9 -48 6 0 9 -8 8 -17 -5 -54 0
-64 74 -144 9 -11 30 -19 47 -19 33 0 116 38 168 77 l32 24 1 -93 c1 -180 17
-228 76 -228 18 0 23 -6 24 -27 0 -16 5 -37 10 -48 7 -15 8 -6 5 30 -4 45 -2
52 17 60 12 6 28 23 35 38 22 46 32 28 62 -113 5 -25 21 -97 35 -160 14 -63
35 -164 46 -225 26 -139 33 -171 54 -270 54 -255 54 -248 14 -287 l-34 -33 -6
50 c-4 28 -12 63 -18 78 -6 16 -11 39 -11 52 0 12 -6 45 -14 71 -8 27 -19 72
-26 99 -6 28 -18 79 -26 115 -8 36 -21 92 -27 125 -7 33 -15 65 -20 72 -4 6
-10 33 -13 60 -4 26 -13 60 -20 75 -8 15 -14 44 -14 65 0 21 -5 45 -11 53 -12
18 -4 -104 8 -123 5 -7 13 -41 20 -77 7 -36 19 -96 27 -135 9 -38 20 -95 26
-125 6 -30 17 -77 25 -105 18 -68 34 -146 47 -230 5 -38 15 -76 20 -82 6 -7
10 -45 10 -85 -1 -61 5 -88 33 -158 l34 -85 -27 -28 c-24 -25 -27 -37 -30
-112 -3 -60 0 -89 11 -106 8 -13 22 -53 32 -88 19 -71 65 -171 111 -241 l29
-45 2 -470 c1 -258 0 -463 -3 -455 -3 8 -12 29 -19 46 -8 16 -18 59 -23 95 -8
55 -10 59 -12 24 -2 -35 -3 -37 -10 -15 -4 14 -8 50 -8 80 0 47 2 51 9 25 5
-19 6 -3 3 45 -3 41 -9 138 -14 215 -4 77 -13 151 -19 165 l-11 25 4 -26 c6
-26 9 -250 6 -374 -2 -64 -3 -67 -12 -35 -5 19 -16 50 -24 68 -8 18 -14 40
-14 48 0 9 -6 30 -14 47 -8 18 -17 49 -21 70 -3 20 -10 37 -15 37 -6 0 -10 15
-11 33 0 17 -4 41 -9 52 -6 15 -9 6 -9 -33 -1 -34 4 -59 14 -68 8 -8 11 -22 8
-31 -5 -14 -8 -13 -17 8 -6 13 -13 26 -17 29 -4 3 -35 59 -69 125 -34 66 -69
129 -76 140 -8 11 -14 27 -14 37 0 9 -7 23 -15 31 -8 8 -51 75 -96 148 -114
187 -221 348 -258 389 -17 19 -31 39 -31 43 0 5 -9 20 -20 34 -14 18 -20 21
-20 10 0 -9 4 -18 9 -22 6 -3 28 -43 50 -88 22 -45 61 -120 87 -167 133 -245
293 -572 298 -612 13 -106 16 -158 9 -158 -5 0 -26 37 -49 83 -63 126 -134
256 -173 317 -20 30 -39 62 -43 70 -5 11 -7 9 -7 -7 -1 -13 4 -23 9 -23 6 0
10 -7 10 -16 0 -9 7 -28 15 -42 8 -15 50 -101 93 -192 171 -356 163 -337 169
-419 l5 -76 -53 78 c-98 141 -326 444 -389 517 -10 12 -32 38 -50 60 -17 21
-42 51 -56 67 -22 26 -23 29 -6 36 9 4 25 20 34 35 9 15 28 44 44 64 25 36 26
39 11 56 -22 24 -21 46 0 67 9 10 19 37 23 61 6 42 5 45 -23 59 -17 8 -36 15
-43 15 -21 0 -64 43 -67 69 -2 13 -11 29 -19 35 -8 6 -19 22 -23 36 -4 13 -16
36 -27 50 -10 14 -19 40 -21 58 -3 39 -9 40 -37 5 -31 -40 -101 -59 -202 -55
-38 2 -48 6 -53 23 -9 28 -63 49 -122 49 -42 0 -53 -6 -89 -39 -52 -50 -59
-66 -30 -79 12 -5 27 -25 32 -44 10 -32 9 -37 -32 -81 -41 -46 -44 -47 -102
-47 -104 0 -132 -42 -97 -145 12 -33 13 -50 5 -64 -14 -27 -13 -41 5 -41 11 0
14 -7 9 -24 -6 -26 19 -96 35 -96 6 0 17 -13 26 -29 24 -48 62 -49 150 -5 42
21 81 44 87 51 19 24 23 14 23 -64 0 -43 4 -108 8 -146 8 -59 12 -69 36 -81
41 -22 107 -2 120 36 7 20 17 28 33 28 28 0 39 -7 61 -42 25 -39 41 -36 34 7
-5 32 -4 33 13 22 16 -9 23 -8 39 10 11 12 29 24 40 28 11 3 34 26 50 50 l29
44 -27 43 c-16 24 -40 54 -55 67 -34 32 -33 44 3 29 35 -16 141 -139 266 -310
97 -133 180 -244 186 -248 3 -3 50 -70 104 -150 54 -80 104 -152 110 -160 22
-26 28 -60 12 -60 -8 0 -20 -7 -27 -15 -22 -26 -36 -16 -61 42 -13 31 -25 50
-27 42 -1 -8 9 -36 22 -62 16 -29 21 -49 15 -53 -6 -3 -23 -24 -39 -46 -25
-34 -27 -43 -18 -69 5 -16 30 -51 54 -78 l44 -49 -57 14 c-89 21 -110 18 -127
-14 -8 -16 -22 -35 -31 -42 -9 -7 -23 -27 -32 -44 -14 -27 -14 -31 1 -42 12
-8 15 -20 10 -38 -10 -40 -31 -31 -39 17 -4 23 -13 65 -20 92 -8 28 -23 93
-35 145 -21 96 -32 143 -70 302 -28 117 -29 184 -4 203 18 14 18 16 1 26 -9 5
-15 14 -12 20 4 5 -5 13 -19 19 -26 10 -29 17 -62 160 -33 143 -46 100 -20
-65 8 -49 18 -100 21 -111 6 -18 -1 -26 -37 -45 -23 -14 -43 -31 -43 -40 0
-19 -70 -99 -87 -99 -9 0 -9 -3 0 -12 9 -9 3 -17 -23 -35 -19 -13 -47 -26 -63
-29 -24 -5 -27 -10 -26 -37 1 -18 4 -43 8 -57 10 -36 -27 -74 -64 -66 l-28 5
21 -59 21 -58 -34 -36 c-19 -20 -41 -36 -48 -36 -8 0 -11 -6 -8 -12 23 -56 29
-89 18 -100 -7 -7 -12 -23 -12 -36 0 -21 3 -23 42 -19 27 3 43 9 44 18 1 8 2
20 3 27 0 6 6 12 13 12 7 0 27 14 44 31 22 21 38 29 49 25 15 -6 16 -9 3 -29
-20 -30 -34 -56 -47 -90 -8 -19 -16 -27 -26 -23 -8 3 -15 3 -15 -1 0 -20 26
-91 38 -106 15 -16 16 -16 36 2 16 15 37 20 83 22 52 2 61 5 51 16 -8 10 -8
28 2 71 21 94 29 183 19 201 -16 25 13 92 47 112 31 17 29 4 38 189 5 99 5
104 11 98 3 -2 12 -42 21 -89 31 -167 43 -226 64 -319 12 -52 25 -115 30 -140
5 -25 16 -72 24 -105 9 -32 16 -67 16 -77 0 -10 4 -26 9 -36 5 -9 19 -62 31
-117 12 -55 27 -116 32 -135 5 -19 15 -60 22 -90 7 -30 23 -91 36 -135 12 -44
26 -96 31 -115 4 -19 17 -69 29 -110 11 -41 25 -91 29 -110 5 -19 14 -48 19
-65 31 -91 53 -175 48 -184 -4 -5 -2 -12 3 -16 9 -5 21 -41 73 -220 12 -38 26
-88 33 -110 7 -22 21 -67 30 -100 10 -33 22 -71 27 -84 10 -27 7 -34 -13 -25
-19 8 -169 236 -185 282 -7 20 -13 31 -14 23 0 -7 -6 -11 -15 -8 -10 4 -5 -12
15 -51 18 -36 36 -100 49 -172 12 -63 25 -132 30 -152 7 -31 5 -41 -10 -54
-18 -16 -21 -14 -66 36 -27 29 -50 58 -52 64 -10 27 -293 445 -326 481 -40 43
-35 33 33 -76 23 -36 42 -71 42 -76 0 -5 9 -18 19 -27 10 -9 40 -54 66 -99 27
-45 69 -118 95 -162 81 -137 120 -211 120 -227 0 -9 -6 -21 -14 -28 -12 -9
-19 -3 -37 40 -26 61 -35 61 -13 -1 8 -24 17 -59 20 -77 2 -18 15 -57 28 -85
28 -61 43 -107 29 -92 -5 6 -31 42 -58 80 -26 39 -65 93 -86 120 -20 28 -44
75 -52 105 -14 50 -15 52 -16 20 l-1 -35 -25 30 c-36 45 -30 22 15 -52 47 -78
53 -114 12 -66 -15 17 -36 46 -48 65 -115 186 -394 571 -441 609 -23 19 -16 8
67 -111 171 -244 355 -530 376 -585 9 -22 -13 -18 -49 7 -17 12 -27 16 -22 9
6 -11 2 -12 -21 -7 -47 12 -77 35 -71 57 4 13 -8 30 -43 59 -60 50 -104 57
-48 7 48 -43 74 -83 56 -90 -7 -2 -21 0 -31 5 -12 6 -23 5 -32 -2 -11 -9 -19
-8 -37 4 -12 9 -30 16 -39 16 -9 0 -22 16 -32 41 -15 37 -19 40 -49 38 -38 -3
-106 25 -115 46 -3 8 -10 15 -15 15 -7 0 -6 -5 1 -14 20 -24 -68 -17 -118 10
-48 26 -55 29 -47 15 4 -5 27 -19 52 -31 46 -23 49 -31 13 -37 -23 -4 -64 35
-80 75 -5 13 -18 26 -29 29 -11 3 -22 13 -25 24 -4 10 -12 16 -20 13 -8 -4
-65 37 -137 98 -121 102 -249 198 -263 198 -4 0 21 -24 56 -53 100 -83 299
-259 299 -264 0 -2 -5 -13 -10 -24 -13 -24 12 -38 35 -19 13 11 14 8 9 -16 -3
-16 1 -47 8 -69 11 -33 17 -39 36 -37 13 2 22 -2 22 -11 0 -7 13 -26 30 -42
16 -16 30 -35 30 -42 0 -7 6 -10 13 -7 15 5 44 -53 49 -96 2 -17 8 -24 20 -22
10 2 18 -1 18 -6 0 -5 19 -7 43 -5 53 6 71 -11 65 -62 -4 -32 -3 -34 22 -28
14 3 29 6 33 7 5 0 18 -12 30 -27 17 -22 19 -30 9 -36 -9 -5 -1 -15 26 -34 28
-18 68 -69 134 -169 109 -165 203 -327 195 -335 -14 -13 -38 10 -91 89 -63 93
-179 238 -185 232 -3 -2 12 -28 33 -57 120 -167 273 -413 263 -424 -3 -3 -32
17 -64 45 -32 27 -102 82 -155 121 -71 52 -113 92 -151 144 -180 243 -402 471
-610 627 -100 74 -71 38 58 -74 183 -159 429 -423 510 -548 16 -27 16 -28 0
-28 -12 0 -3 -11 24 -31 88 -63 298 -429 435 -756 41 -99 31 -95 -43 17 -77
116 -217 279 -303 353 -82 69 -83 57 -2 -25 333 -341 502 -682 530 -1067 7
-90 16 -113 40 -104 7 3 17 -2 20 -11 10 -25 84 -22 91 3 4 17 8 18 30 8 22
-10 27 -8 43 13 l19 25 7 -42 c5 -33 11 -43 26 -43 11 0 22 10 28 25 8 21 14
24 42 18 18 -3 38 -13 44 -21 17 -24 49 -10 53 23 4 28 5 27 15 -15 10 -38 16
-45 39 -48 22 -3 27 1 27 20 l0 22 16 -22 c12 -17 19 -20 34 -12 21 11 46 5
73 -18 15 -14 21 -13 57 4 23 11 40 26 40 36 0 10 9 22 19 27 16 9 20 7 25
-13 4 -15 17 -26 43 -34 66 -19 110 -23 137 -11 21 10 29 9 44 -4 29 -27 80
-22 94 8 15 32 20 31 38 -8 9 -19 24 -33 37 -35 12 -2 27 -10 33 -18 17 -20
64 -18 83 4 11 12 17 36 17 70 0 29 3 52 6 52 4 0 17 -11 30 -25 15 -16 34
-25 54 -25 16 0 30 -4 30 -9 0 -20 30 -18 54 4 14 13 28 20 31 15 7 -11 105
-5 116 7 4 4 9 19 12 33 4 22 4 21 6 -6 1 -40 21 -56 70 -58 29 0 44 5 58 22
16 20 21 22 51 11 37 -13 62 -7 62 16 0 9 9 15 25 15 13 0 36 5 51 12 23 11
28 10 45 -11 16 -19 30 -23 91 -26 40 -2 91 -6 113 -10 35 -6 43 -4 64 19 31
33 37 33 50 -5 11 -31 11 -32 63 -25 54 7 77 26 78 62 0 20 17 44 31 44 4 0 9
-10 11 -22 2 -18 11 -24 34 -26 22 -2 34 -9 37 -23 8 -29 34 -23 46 11 11 34
31 40 31 11 0 -26 8 -30 73 -36 50 -5 55 -3 62 17 8 22 8 22 12 -4 5 -32 32
-37 58 -12 13 13 21 14 41 6 19 -9 24 -19 24 -47 0 -28 4 -36 24 -41 31 -7 66
11 66 36 0 34 12 50 37 50 16 0 27 7 30 20 10 37 33 23 33 -19 0 -60 7 -71 49
-71 20 0 42 -5 48 -11 9 -9 20 -8 44 4 31 14 34 14 57 -4 42 -32 63 -24 118
46 15 19 15 19 10 -5 -3 -14 -3 -36 1 -49 6 -22 9 -23 61 -17 59 7 81 24 82
64 0 12 6 22 14 22 8 0 21 3 29 6 9 3 16 -2 19 -14 3 -12 18 -21 39 -26 28 -5
37 -2 64 24 26 25 37 29 63 24 24 -5 33 -3 38 10 6 15 8 15 20 -3 18 -25 50
-17 63 18 9 24 9 22 10 -19 1 -39 5 -47 32 -63 17 -9 39 -17 48 -17 24 0 49
30 57 68 6 27 9 30 25 21 11 -5 19 -16 19 -24 0 -7 5 -17 10 -20 15 -9 40 14
40 37 0 28 34 19 38 -10 2 -12 11 -23 20 -23 9 -1 37 -3 62 -4 25 -1 53 -6 63
-10 10 -4 30 -2 45 5 15 7 46 12 69 11 40 -2 43 0 58 34 12 31 18 35 29 25 8
-6 16 -21 18 -33 2 -14 11 -23 24 -25 17 -2 24 5 33 29 11 31 12 31 30 15 15
-14 24 -15 39 -7 16 8 21 7 26 -4 8 -21 92 -21 100 0 3 9 12 12 21 9 11 -5 30
7 56 34 l39 41 0 144 c0 102 5 159 16 198 20 66 44 109 62 109 10 0 12 -23 8
-112 -3 -62 -8 -177 -11 -255 l-6 -142 27 -7 c16 -4 29 -2 34 5 4 7 12 63 19
126 19 174 29 190 30 48 l1 -123 34 0 33 0 7 77 c3 42 6 117 6 168 0 115 19
350 31 390 11 38 3 -210 -15 -435 -13 -156 -12 -228 3 -231 3 -1 25 -3 49 -4
38 -3 44 0 52 21 8 20 14 23 40 18 16 -4 30 -3 30 2 1 58 24 262 40 346 40
213 142 457 275 658 91 138 174 239 309 377 65 68 117 125 114 128 -9 9 -166
-135 -248 -228 -112 -125 -263 -334 -283 -390 -2 -7 -8 -9 -12 -5 -9 8 56 166
150 364 131 277 362 648 437 703 23 17 37 31 30 31 -41 0 31 79 120 132 67 40
97 64 61 51 -10 -4 -33 -16 -51 -26 -18 -11 -35 -17 -37 -15 -6 5 162 198 263
302 77 78 281 264 401 363 78 66 70 68 -17 6 -208 -149 -471 -399 -670 -639
-72 -88 -113 -127 -192 -183 -106 -77 -185 -140 -319 -261 -71 -63 -82 -69
-64 -40 77 132 103 175 157 255 33 50 86 126 118 169 32 43 64 88 70 100 35
66 -93 -86 -213 -252 -82 -115 -83 -117 -180 -290 -66 -119 -224 -323 -256
-330 -22 -6 99 311 133 349 8 9 17 30 19 47 4 31 118 269 162 337 19 29 44 49
92 73 37 18 80 44 96 58 29 24 29 25 5 18 -14 -4 -55 -26 -92 -50 -38 -24 -68
-41 -68 -37 0 4 28 58 63 121 57 104 126 196 153 204 11 3 84 -84 84 -101 0
-5 12 -17 27 -26 26 -18 27 -17 50 9 33 38 31 99 -7 187 l-29 70 87 -7 c72 -5
90 -4 100 9 11 13 8 21 -17 50 -17 19 -28 37 -25 40 3 3 -28 9 -68 13 l-73 9
38 41 c20 23 37 46 37 51 0 5 18 36 41 68 68 97 76 114 32 70 -22 -22 -45 -49
-52 -60 -8 -13 -14 -16 -17 -8 -3 6 -14 21 -24 33 -31 36 -70 16 -141 -73
l-39 -49 0 52 c0 40 -5 56 -23 74 l-23 23 24 34 c13 19 28 43 34 54 19 34 -17
-1 -58 -56 -20 -27 -43 -49 -52 -49 -31 0 -45 -16 -34 -37 18 -33 0 -47 -42
-33 -32 10 -35 14 -24 28 7 10 16 19 19 22 3 3 22 30 41 61 31 48 78 112 176
239 43 54 78 80 179 132 41 20 36 36 -10 30 l-42 -5 30 39 c28 37 54 67 120
140 17 18 55 61 85 96 97 111 311 331 454 467 l68 65 14 -33 c20 -47 17 -78
-8 -95 -12 -9 -18 -16 -13 -16 6 -1 -1 -7 -15 -14 -14 -8 -29 -12 -34 -8 -6 3
-6 -2 -1 -14 30 -72 34 -89 21 -102 -7 -7 -11 -24 -8 -38 4 -22 8 -24 41 -18
45 8 51 12 45 27 -6 18 90 97 106 87 10 -6 8 -16 -9 -46 -11 -22 -25 -51 -31
-66 -6 -18 -17 -28 -30 -28 -17 0 -19 -3 -10 -19 5 -11 10 -31 10 -44 0 -13 9
-32 20 -42 19 -17 21 -17 40 0 17 15 45 21 134 25 5 0 3 6 -3 14 -10 11 -9 26
3 67 22 73 31 176 18 192 -9 10 -9 23 0 48 6 19 12 40 14 47 2 7 15 17 28 22
33 12 51 46 36 66 -7 7 -9 22 -5 31 15 40 24 127 14 139 -7 8 -4 28 10 65 11
29 18 55 16 57 -2 3 -8 -4 -11 -14 -26 -74 -35 -88 -44 -74 -17 26 -11 40 38
87 26 25 47 49 47 53 0 10 56 56 212 174 156 119 175 136 148 136 -16 0 -90
-48 -286 -182 -54 -37 -70 -43 -89 -36 -30 11 -48 -5 -30 -27 11 -13 9 -15 -9
-15 -34 0 -103 -39 -97 -55 3 -8 -15 -33 -40 -58 -24 -24 -44 -43 -44 -42 0 2
-19 -15 -42 -36 -24 -22 -51 -42 -60 -45 -10 -3 -18 -12 -18 -20 0 -8 -4 -14
-8 -14 -4 0 -26 -17 -48 -38 -22 -20 -78 -70 -124 -111 -185 -163 -563 -562
-715 -756 -16 -21 -35 -43 -40 -49 -6 -6 -27 -34 -48 -63 -43 -59 -101 -113
-122 -113 -8 0 -12 -6 -9 -14 5 -14 -28 -90 -50 -111 -6 -6 -33 -46 -60 -88
-27 -42 -53 -77 -58 -77 -4 0 -8 -5 -8 -11 0 -6 -14 -27 -30 -46 -26 -29 -31
-32 -36 -16 -3 10 -10 30 -16 44 -5 15 -6 48 -3 73 7 44 12 50 81 102 41 29
76 54 80 54 3 0 20 11 38 25 18 14 38 25 45 25 7 0 11 6 8 13 -7 19 -32 10
-128 -49 -50 -30 -95 -52 -100 -49 -5 4 -9 2 -9 -3 0 -5 -17 -22 -37 -38 -28
-21 -53 -30 -100 -35 -34 -3 -80 -16 -103 -28 -22 -11 -45 -21 -50 -21 -17 0
-11 25 10 48 11 12 20 23 20 26 0 19 290 414 435 592 142 174 145 178 145 192
0 29 -41 -9 -183 -168 -61 -69 -114 -127 -117 -130 -7 -7 -81 -103 -204 -266
-63 -84 -93 -113 -114 -114 -16 0 -120 -56 -144 -77 -16 -15 -48 -11 -136 13
-13 4 -11 9 41 109 6 11 23 45 39 77 34 66 45 77 118 114 68 36 64 33 58 40
-3 3 -17 0 -30 -7 -51 -27 -60 -30 -66 -24 -8 8 31 81 67 125 16 19 38 46 49
60 17 20 29 25 70 25 42 0 48 2 39 14 -9 12 -9 13 0 7 7 -4 20 2 29 13 17 20
18 20 55 0 50 -25 79 -25 86 1 3 11 9 20 14 20 5 0 9 10 9 23 0 13 5 28 11 34
8 8 6 18 -6 36 -16 26 -42 37 -84 37 -24 0 -24 0 -5 15 18 14 18 16 -21 49
l-40 34 38 39 c20 21 37 47 37 56 0 49 178 253 347 398 26 23 73 65 104 93 30
28 75 67 99 86 24 19 64 55 89 79 25 25 107 90 181 145 134 99 176 133 212
171 19 20 19 20 -2 23 -12 2 -30 -4 -39 -12 -10 -9 -20 -16 -24 -16 -3 0 -35
-20 -71 -45 -36 -25 -96 -66 -133 -91 -38 -26 -81 -57 -98 -70 -16 -14 -34
-28 -40 -32 -38 -28 -101 -77 -105 -82 -16 -19 -121 -92 -126 -87 -12 11 39
87 139 207 7 9 33 42 57 75 25 33 50 66 57 75 129 162 162 210 145 210 -5 0
-53 -45 -106 -100 -53 -55 -96 -99 -96 -96 0 2 22 32 50 67 27 35 56 73 64 84
9 11 30 38 48 61 18 22 49 60 68 84 19 24 42 51 51 60 9 10 22 26 28 36 9 17
10 15 11 -12 0 -16 -7 -39 -15 -50 -19 -25 -20 -51 -2 -36 10 9 15 -8 25 -81
15 -108 25 -121 91 -113 50 7 71 20 71 47 0 34 51 24 83 -16 31 -39 47 -38 47
1 0 14 4 23 9 19 5 -3 25 5 44 17 18 13 73 48 121 78 109 68 180 129 152 130
-11 0 -54 -16 -95 -37 -71 -34 -76 -35 -85 -18 -6 11 -31 41 -56 69 -29 32
-38 47 -25 42 11 -4 50 -10 86 -13 63 -5 68 -4 79 18 7 13 26 40 42 59 31 38
35 62 14 80 -16 12 -12 35 10 61 8 8 15 37 16 64 l3 48 -46 16 c-59 20 -76 35
-84 72 -4 16 -15 34 -26 39 -10 6 -19 21 -19 34 0 13 -7 29 -15 36 -9 7 -20
33 -27 57 l-11 44 -31 -29 c-36 -34 -100 -52 -185 -52 -55 0 -61 2 -73 27 -15
32 -54 45 -123 43 -39 -1 -57 -7 -80 -28 -16 -15 -10 -4 15 23 25 27 48 51 53
53 4 2 7 11 7 20 0 14 -2 14 -17 0 -70 -64 -352 -349 -413 -417 -41 -46 -84
-93 -95 -105 -12 -12 -39 -45 -60 -72 -22 -27 -45 -55 -52 -62 -7 -7 -29 -34
-50 -60 -21 -26 -40 -49 -43 -52 -25 -22 -255 -336 -339 -460 -120 -179 -144
-213 -152 -220 -3 -3 -9 -14 -14 -25 -8 -19 -9 -19 -13 4 -2 13 1 28 7 34 6 6
11 17 11 25 0 7 21 56 47 108 36 73 58 105 95 136 53 44 61 64 23 54 l-26 -7
26 48 c14 27 42 76 63 110 94 156 145 240 165 270 12 17 36 54 52 82 17 28 57
94 90 146 33 52 85 133 115 181 71 112 173 271 200 309 11 17 31 46 43 65 13
19 50 76 84 125 33 50 78 117 99 150 81 124 127 185 145 190 11 4 22 18 25 33
3 15 8 36 11 47 3 13 1 16 -4 8 -6 -9 -22 -1 -55 28 -50 42 -104 69 -139 69
-12 0 -23 8 -26 20 -6 22 -18 26 -28 10 -3 -6 -28 3 -58 19 -29 16 -82 39
-119 51 -38 12 -68 27 -68 35 0 7 9 23 19 37 20 25 105 228 98 234 -2 2 -23
-42 -47 -99 -24 -56 -54 -115 -67 -130 -12 -16 -23 -33 -23 -38 0 -6 -14 -15
-30 -21 -30 -10 -31 -12 -24 -54 4 -28 2 -49 -5 -58 -6 -8 -31 -51 -55 -97
-57 -111 -105 -197 -132 -237 -13 -18 -28 -56 -34 -85 -6 -29 -24 -77 -41
-107 -17 -30 -52 -104 -79 -164 -56 -125 -139 -257 -157 -251 -7 2 -13 0 -13
-6 0 -5 -16 -32 -35 -60 -19 -28 -35 -56 -35 -61 0 -5 -4 -6 -10 -3 -6 4 -2
26 10 58 19 52 19 52 0 28 -11 -13 -20 -29 -20 -36 0 -7 -16 -32 -35 -55 -19
-23 -35 -46 -35 -51 0 -5 -11 -26 -23 -47 -13 -20 -43 -70 -67 -111 -24 -40
-49 -78 -55 -85 -6 -6 -44 -57 -84 -113 -84 -118 -98 -131 -86 -82 7 32 15 72
45 224 6 33 18 85 25 115 7 30 19 82 25 115 12 59 23 116 54 265 8 41 20 98
27 125 6 28 13 59 15 71 2 11 15 33 29 48 29 31 31 38 10 30 -20 -8 -20 49 -1
108 8 24 17 61 21 83 10 61 43 106 425 579 205 253 212 262 272 329 21 23 38
45 38 48 0 3 11 18 25 33 14 15 25 32 25 37 0 6 -15 -7 -32 -28 -34 -39 -91
-103 -118 -132 -9 -9 -40 -45 -70 -81 -30 -36 -57 -67 -61 -70 -3 -3 -48 -57
-99 -120 -52 -63 -99 -120 -105 -126 -5 -7 -66 -82 -135 -169 -107 -134 -125
-153 -128 -131 -2 13 4 45 12 71 9 25 16 57 16 72 0 14 6 46 14 72 8 25 20 71
26 101 6 30 17 87 26 125 8 39 20 99 27 135 7 36 15 70 20 77 4 6 9 40 12 75
4 44 2 57 -4 43 -5 -11 -10 -36 -11 -55 0 -19 -7 -46 -15 -60 -8 -14 -14 -37
-15 -51 0 -15 -6 -49 -14 -75 -8 -27 -20 -71 -26 -99 -6 -27 -18 -77 -25 -110
-8 -33 -19 -82 -25 -110 -7 -27 -18 -72 -26 -99 -8 -26 -14 -57 -14 -68 0 -11
-9 -51 -21 -89 -18 -59 -32 -84 -87 -154 -35 -46 -290 -390 -312 -422 -94
-136 -237 -326 -268 -356 -45 -44 -59 -37 -37 17 22 51 17 59 -5 8 l-19 -43
-38 24 c-40 25 -61 24 -118 -6 -41 -21 -71 -55 -104 -118 -28 -54 -28 -54 -79
-57 -47 -3 -52 -1 -52 18 0 24 47 110 60 110 4 0 11 16 14 35 6 30 46 75 235
263 126 125 242 239 260 254 31 26 40 48 21 48 -5 0 -10 -4 -10 -8 0 -5 -46
-49 -102 -97 -57 -49 -174 -159 -261 -245 -87 -85 -163 -155 -170 -155 -7 0
-18 -11 -24 -25 -12 -24 -13 -23 -7 10 8 54 34 167 60 257 20 68 34 94 88 160
35 43 84 99 109 126 51 53 49 61 -3 16 -28 -24 -36 -27 -38 -14 -2 8 6 30 17
48 11 17 34 57 51 87 17 30 46 80 65 110 19 30 46 77 61 105 14 27 34 60 44
75 10 14 44 69 76 123 33 54 73 122 91 150 18 29 44 72 58 97 14 25 38 63 53
86 42 63 68 105 99 157 15 27 52 85 81 129 29 44 60 94 69 112 9 17 25 42 35
56 11 14 35 50 53 80 19 30 43 69 55 85 11 17 42 64 69 105 45 70 71 110 131
200 39 58 74 111 106 159 16 24 40 60 54 81 14 20 35 52 47 71 12 19 27 39 32
46 21 24 50 83 41 83 -5 0 -15 -10 -21 -22 -7 -13 -23 -36 -36 -53 -13 -16
-27 -34 -31 -40 -9 -11 -114 -163 -205 -295 -64 -93 -357 -534 -392 -590 -12
-19 -39 -62 -60 -95 -21 -33 -48 -76 -60 -95 -22 -35 -45 -71 -148 -231 -30
-47 -65 -103 -76 -125 -12 -21 -37 -64 -56 -94 -19 -30 -48 -80 -65 -110 -17
-30 -46 -80 -65 -110 -33 -53 -58 -97 -128 -222 -18 -31 -47 -70 -65 -87 -17
-17 -32 -38 -32 -46 0 -15 -57 -135 -63 -135 -3 0 23 133 56 282 8 37 24 83
35 103 22 37 26 42 67 88 14 15 25 33 25 38 0 6 -16 -9 -36 -33 -20 -23 -41
-45 -46 -47 -12 -4 -4 65 16 144 8 28 19 75 26 105 6 30 36 107 65 170 29 63
71 158 94 210 57 132 57 131 85 97 l23 -28 14 21 c12 18 25 22 80 23 63 2 66
3 54 21 -11 15 -11 25 1 58 20 56 35 190 23 204 -6 8 -5 28 3 57 9 35 18 48
42 58 28 13 31 18 32 64 5 158 47 306 133 460 16 28 52 104 80 169 29 66 60
131 70 145 28 39 71 129 92 190 11 30 26 62 34 71 16 18 97 211 91 217 -2 2
-22 -39 -44 -91 -22 -52 -48 -103 -58 -114 -9 -11 -29 -48 -45 -84 -30 -69
-122 -243 -184 -348 -55 -93 -71 -130 -80 -175 -6 -31 -9 -35 -14 -20 -4 13
-16 21 -33 22 -32 2 -36 -12 -10 -40 16 -19 16 -20 -9 -14 -43 11 -139 -39
-111 -57 5 -3 -11 -26 -35 -51 -25 -24 -49 -43 -53 -40 -5 3 -6 -3 -3 -14 5
-20 -40 -54 -87 -66 -29 -7 -34 -32 -18 -78 12 -32 -5 -77 -30 -77 -11 0 -13
9 -9 38 7 42 34 198 48 282 6 30 12 66 13 80 2 14 11 57 19 95 9 39 18 95 20
125 l5 55 -15 -50 c-9 -27 -32 -88 -53 -135 -20 -47 -40 -98 -44 -115 -6 -29
-6 -29 17 8 13 20 27 40 31 44 9 9 -2 -73 -27 -197 -3 -14 -11 -52 -17 -85
-18 -93 -32 -145 -39 -145 -3 0 -6 -21 -7 -48 -2 -85 -13 -122 -40 -132 -24
-9 -24 -11 -8 -35 12 -18 14 -35 9 -62 -4 -21 -9 -49 -11 -63 -3 -27 -56 -131
-86 -170 -10 -14 -31 -42 -46 -62 -163 -224 -166 -228 -196 -228 -33 0 -126
-41 -171 -75 l-30 -22 1 112 c2 90 8 138 34 239 17 70 30 130 27 132 -4 5 -50
-118 -62 -168 l-7 -26 -34 20 c-19 11 -34 21 -34 23 0 5 97 326 139 460 64
205 185 558 216 630 20 47 36 98 31 103 -11 10 -164 -393 -246 -648 -58 -180
-110 -349 -135 -440 -15 -52 -28 -101 -31 -108 -2 -7 -15 -17 -29 -22 -14 -5
-30 -21 -35 -35 -10 -27 -36 -32 -63 -12 -15 11 -15 18 -1 97 30 164 64 304
110 450 3 8 -4 -1 -15 -20 -11 -19 -20 -32 -21 -28 0 6 61 323 74 383 4 17 13
59 21 95 7 36 22 97 33 135 26 92 31 125 22 155 -6 23 -7 23 -12 5 -3 -11 -13
-56 -23 -100 -9 -44 -41 -156 -71 -250 -30 -93 -65 -204 -78 -245 -50 -155
-87 -281 -146 -494 -41 -150 -67 -228 -82 -245 -13 -14 -25 -29 -28 -33 -3 -4
-6 3 -7 15 -1 12 -5 54 -9 92 -3 39 -10 74 -15 80 -5 5 -9 38 -9 74 0 47 -3
62 -11 54 -7 -7 -9 -32 -5 -64 3 -30 9 -90 14 -134 4 -44 11 -85 14 -90 3 -6
7 -48 9 -94 l4 -84 -30 -3 c-16 -2 -31 -8 -33 -13 -2 -6 -21 -32 -43 -58 -42
-51 -49 -77 -23 -87 17 -7 11 -43 -10 -61 -7 -5 -17 -31 -23 -57 -12 -54 -9
-59 48 -77 36 -12 37 -13 32 -54 -3 -23 -18 -107 -33 -187 -16 -80 -38 -199
-50 -265 -12 -66 -27 -149 -35 -185 -8 -36 -17 -94 -21 -130 -6 -66 -45 -170
-71 -192 -13 -10 -14 -1 -8 68 3 43 6 108 5 144 -1 167 14 238 95 441 41 105
74 194 71 196 -2 2 -32 -68 -67 -156 -35 -89 -68 -161 -72 -161 -8 0 -1 98 15
203 5 37 28 109 49 159 21 51 39 95 39 100 0 19 -31 6 -40 -16 -10 -28 -30
-44 -30 -24 0 12 11 113 44 423 9 77 20 167 25 200 6 33 15 105 21 160 13 118
47 332 54 344 3 4 10 41 16 82 11 71 45 237 75 364 8 33 21 94 30 135 8 41 21
107 30 145 8 39 24 115 35 170 32 158 46 189 68 150 7 -14 12 -13 37 7 24 19
28 20 22 5 -4 -10 -3 -16 2 -13 5 3 11 17 13 31 3 13 1 22 -3 19 -16 -10 -9
25 11 58 11 18 20 41 20 51 0 9 8 17 18 17 15 0 17 -10 16 -74 0 -55 -4 -78
-17 -91 -19 -19 -23 -30 -6 -19 6 3 23 -7 37 -24 37 -42 69 -50 74 -20 3 26
91 79 117 71 9 -2 4 6 -10 19 -16 14 -29 38 -33 63 -13 80 -50 184 -67 188
-11 3 -18 20 -23 52 -5 41 -3 52 14 70 25 27 25 51 0 72 -11 10 -20 29 -20 44
0 37 -20 91 -41 112 -14 13 -19 32 -19 72 0 46 -2 53 -16 48 -15 -5 -15 -3 1
20 9 15 14 34 11 43 -3 9 -3 21 1 27 3 6 7 35 8 66 1 31 7 79 13 106 17 84 32
166 47 255 18 115 39 204 80 335 19 61 43 148 55 195 11 47 26 102 32 123 19
63 2 51 -22 -15z m-220 -1230 c0 -35 -2 -39 -15 -28 -16 13 -19 38 -9 64 10
27 24 7 24 -36z m-19 -65 c-5 -10 -17 -27 -25 -38 -15 -19 -16 -19 -6 9 14 38
19 46 31 46 6 0 6 -6 0 -17z m-171 -579 c-7 -33 -16 -77 -20 -99 -27 -137 -33
-161 -41 -175 -12 -21 -12 28 0 66 5 16 20 86 32 157 13 73 27 123 32 118 5
-5 3 -34 -3 -67z m45 17 c3 -5 1 -12 -5 -16 -5 -3 -10 1 -10 9 0 18 6 21 15 7z
m-118 -358 c-3 -10 -5 -4 -5 12 0 17 2 24 5 18 2 -7 2 -21 0 -30z m1378 -333
c-9 -17 -20 -28 -25 -25 -11 7 17 55 31 55 5 0 2 -14 -6 -30z m-35 -70 c0 -5
-17 -18 -37 -29 -21 -10 -47 -28 -57 -40 -11 -12 -22 -21 -26 -21 -9 0 78 87
93 94 20 8 27 7 27 -4z m-1065 -182 c-4 -35 -11 -70 -15 -78 -4 -8 -11 -40
-15 -70 -12 -95 -44 -217 -80 -311 -42 -110 -44 -124 -5 -44 30 61 31 60 15
-36 -5 -32 -8 -36 -30 -31 -21 4 -24 1 -19 -14 4 -11 11 -25 17 -31 6 -9 6
-13 -3 -13 -6 0 -14 9 -17 19 -5 18 -7 18 -30 -7 -18 -20 -23 -22 -19 -9 3 11
22 80 41 155 59 228 149 532 158 532 5 0 6 -28 2 -62z m-1602 -48 c-3 -11 -7
-20 -9 -20 -2 0 -4 9 -4 20 0 11 4 20 9 20 5 0 7 -9 4 -20z m2359 -62 c-7 -7
-12 -8 -12 -2 0 14 12 26 19 19 2 -3 -1 -11 -7 -17z m-2402 -43 c-29 -34 -34
-2 -6 34 9 12 12 11 14 -3 2 -9 -2 -23 -8 -31z m-90 -90 l9 -60 -4 73 c-4 69
-3 72 16 62 12 -7 19 -22 20 -43 1 -18 5 -45 10 -62 5 -20 6 -8 3 35 l-6 65
23 -22 c21 -21 22 -24 9 -65 -8 -24 -18 -49 -23 -55 -5 -7 -7 -23 -4 -35 4
-12 1 -28 -5 -36 -9 -10 -8 -16 2 -22 8 -5 18 -6 22 -4 14 9 12 -123 -2 -160
-7 -20 -8 -20 -18 4 -6 14 -14 70 -19 125 -4 55 -9 85 -11 68 -4 -35 -22 -46
-22 -14 0 11 -4 22 -9 25 -16 10 -22 73 -14 143 7 72 8 72 23 -22z m2595 -5
c-11 -12 -20 -30 -22 -42 -5 -29 -45 -98 -57 -98 -7 0 -6 -3 1 -8 9 -6 -12
-56 -72 -177 -46 -94 -82 -159 -80 -145 48 266 78 366 114 378 8 3 11 0 7 -7
-13 -20 0 -11 30 21 16 18 21 26 11 19 -23 -18 -32 -8 -11 13 9 10 25 15 38
11 11 -2 15 -2 8 1 -10 5 -8 12 9 30 27 29 50 32 24 4z m-2594 -205 c26 -95
47 -337 37 -415 -4 -30 -13 -98 -20 -150 l-12 -95 -14 35 c-8 19 -18 51 -23
70 -4 19 -17 69 -29 110 -27 89 -29 195 -6 345 9 55 16 116 16 136 0 31 21 72
27 52 1 -4 12 -44 24 -88z m138 -161 c6 -76 11 -164 11 -194 l0 -55 -16 30
c-34 65 -46 136 -39 245 12 194 28 184 44 -26z m2202 -70 c-36 -173 -47 -211
-86 -289 -25 -49 -43 -82 -40 -72 17 60 17 67 1 67 -12 0 -14 7 -10 29 7 32
-8 68 -40 93 l-21 17 23 28 c12 15 32 47 43 70 11 23 24 45 29 48 5 3 22 30
39 60 17 30 45 81 63 112 17 31 33 52 35 46 2 -6 -14 -100 -36 -209z m-1126
-60 c-9 -71 -24 -217 -35 -324 -27 -267 -47 -380 -70 -380 -12 0 -130 -210
-131 -234 0 -21 -37 -108 -38 -92 -1 5 4 27 10 50 6 22 17 66 24 96 8 30 28
111 46 180 17 69 35 143 39 165 4 22 14 65 23 95 9 30 30 116 47 190 17 74 36
153 42 175 19 70 39 159 45 200 15 91 13 -2 -2 -121z m-1100 -130 c31 -66 53
-187 60 -334 7 -137 6 -148 -15 -194 -27 -60 -40 -48 -40 36 0 31 -3 59 -7 61
-5 3 -7 -25 -5 -62 2 -37 2 -84 0 -106 l-4 -40 -13 30 c-8 17 -17 50 -22 75
-4 25 -14 77 -21 115 -10 53 -11 105 -4 218 5 81 12 147 16 147 4 0 12 -60 18
-132 l10 -133 -6 184 c-5 191 -1 207 33 135z m1410 -14 c3 -5 2 -10 -4 -10 -5
0 -13 5 -16 10 -3 6 -2 10 4 10 5 0 13 -4 16 -10z m2440 -39 c3 -11 15 -31 27
-46 12 -15 22 -41 24 -59 3 -37 83 -116 118 -116 12 0 39 -9 60 -19 44 -23
100 -19 131 10 11 9 33 21 48 25 l29 7 -16 -29 c-9 -16 -30 -47 -47 -69 -32
-43 -51 -70 -131 -186 -59 -85 -399 -595 -433 -649 -31 -50 -89 -140 -111
-174 -10 -15 -29 -45 -41 -65 -15 -23 -23 -30 -23 -18 0 10 7 29 16 42 9 13
14 32 12 42 -4 19 -40 -37 -118 -182 -24 -44 -54 -100 -68 -125 -13 -25 -54
-103 -91 -175 -57 -110 -75 -136 -116 -167 -27 -20 -51 -35 -53 -33 -3 2 14
38 37 79 22 41 41 82 41 91 0 8 29 73 64 143 246 492 330 657 370 732 26 47
63 119 84 160 20 41 40 77 45 78 4 2 7 11 7 19 0 11 -6 8 -20 -10 -11 -14 -20
-29 -20 -34 0 -4 -14 -24 -31 -43 -48 -53 -340 -509 -372 -580 -4 -8 -25 -44
-47 -79 -22 -34 -40 -67 -40 -71 0 -10 -59 -54 -65 -49 -5 6 20 95 43 154 74
187 258 573 313 655 21 32 39 66 39 75 0 27 47 138 132 315 121 251 182 370
190 370 4 0 9 -9 13 -19z m-4029 -116 c23 -89 34 -184 36 -340 1 -54 -18 -225
-27 -250 -4 -11 -14 -35 -22 -54 l-16 -34 -13 24 c-12 22 -13 19 -11 -36 0
-33 -5 -82 -12 -110 -6 -27 -15 -66 -19 -85 -10 -50 -36 -47 -40 5 -4 40 15
275 24 308 7 24 22 21 27 -5 3 -13 3 0 1 29 -4 48 13 141 27 153 8 6 21 60 15
60 -3 0 -15 -21 -27 -47 -20 -45 -22 -46 -28 -23 -4 14 -3 52 1 85 4 33 14
137 22 232 12 153 20 202 32 191 2 -2 15 -49 30 -103z m2319 -64 c-4 -17 -11
-31 -16 -31 -12 0 -11 14 3 45 15 32 22 25 13 -14z m-20 -93 c-9 -44 -46 -106
-85 -143 l-32 -30 8 30 c15 60 42 107 73 126 17 10 31 26 31 34 0 8 3 15 6 15
3 0 3 -15 -1 -32z m-100 -38 c3 -4 -23 -66 -58 -137 -62 -128 -153 -257 -189
-269 -10 -3 -18 -9 -18 -13 0 -13 -62 -101 -71 -101 -5 0 -9 14 -9 31 0 53
-24 27 -31 -32 -3 -30 -14 -68 -25 -85 -31 -50 -135 -174 -145 -174 -5 0 -9
28 -9 63 0 69 34 176 73 236 27 40 62 100 103 176 14 28 28 51 29 53 2 2 18
-4 35 -13 47 -24 119 -12 156 26 15 16 34 29 41 29 19 0 16 37 -5 52 -10 7
-23 27 -29 44 -10 29 -8 34 34 80 40 44 50 49 79 46 19 -2 36 -8 39 -12z
m-724 -97 c10 -3 19 -13 19 -22 0 -9 10 -32 21 -51 16 -26 22 -50 21 -93 -1
-75 -16 -120 -59 -179 -36 -50 -37 -57 -3 -36 26 16 34 6 26 -35 -7 -40 -188
-317 -194 -298 -2 7 1 38 7 69 6 32 17 95 25 142 46 261 86 463 104 530 l6 25
4 -24 c2 -13 12 -26 23 -28z m781 -49 c-58 -294 -82 -353 -179 -445 -26 -26
-66 -69 -88 -97 -39 -50 -58 -62 -70 -42 -8 13 99 269 165 395 48 91 166 252
177 242 2 -3 0 -27 -5 -53z m943 10 c-3 -26 -10 -56 -15 -68 -5 -11 -11 -37
-14 -56 -7 -38 -32 -69 -122 -145 -32 -27 -86 -75 -119 -105 -77 -72 -95 -85
-95 -72 0 6 6 17 14 24 7 8 21 27 30 43 20 35 24 41 181 250 107 145 132 174
144 175 2 0 0 -21 -4 -46z m-2937 -131 c20 -194 20 -218 -3 -219 -32 -1 -45
16 -45 60 0 22 -5 58 -9 80 -7 27 -5 54 5 93 13 51 30 93 38 93 2 0 8 -48 14
-107z m-138 17 c7 -25 13 -58 13 -75 1 -32 -78 -263 -95 -280 -16 -16 6 249
29 351 18 79 32 80 53 4z m1600 53 c0 -11 -83 -133 -88 -128 -2 2 -1 27 3 55
6 40 12 53 33 65 29 15 52 19 52 8z m107 -40 c-4 -21 -16 -49 -27 -63 -11 -14
-35 -56 -53 -95 -19 -38 -42 -77 -52 -85 -17 -14 -18 -13 -11 20 3 19 11 67
17 105 6 39 20 89 30 113 18 40 21 42 60 42 l42 0 -6 -37z m-207 1 c0 -8 -5
-25 -11 -37 l-12 -21 -9 23 c-5 15 -4 28 3 37 15 19 29 18 29 -2z m71 -120
c-56 -229 -70 -269 -71 -209 0 17 -3 59 -6 95 -5 64 -4 66 38 130 46 70 59 65
39 -16z m-506 -36 c-4 -40 -14 -86 -22 -102 -8 -16 -19 -70 -24 -120 -4 -50
-11 -101 -15 -114 -5 -16 -3 -22 7 -20 8 2 15 -7 17 -20 6 -37 -18 -160 -34
-173 -8 -6 -14 -18 -14 -25 0 -8 -4 -14 -10 -14 -5 0 -10 -5 -10 -10 0 -6 -9
-20 -20 -32 -26 -29 -25 -12 5 79 25 74 29 118 5 51 l-13 -34 -42 21 c-39 18
-42 23 -39 52 5 39 62 214 75 228 5 5 9 15 9 21 0 7 13 41 29 76 16 35 39 86
50 113 30 68 44 95 49 95 2 0 1 -33 -3 -72z m1946 -30 c-10 -60 -14 -79 -41
-188 -5 -25 -15 -74 -21 -110 -6 -36 -17 -75 -25 -87 -8 -12 -14 -39 -14 -60
0 -21 -5 -54 -11 -73 -6 -19 -14 -62 -18 -95 -5 -33 -13 -80 -19 -105 -6 -25
-19 -79 -28 -120 -15 -69 -47 -150 -60 -150 -12 0 -33 70 -39 135 -7 74 -43
150 -77 161 -9 3 -20 14 -23 24 -3 11 -18 28 -33 39 -15 11 -53 44 -84 73
l-57 53 35 53 c51 75 509 531 521 518 3 -2 0 -33 -6 -68z m-1561 25 c-1 -10
-9 -34 -20 -53 l-19 -35 -1 33 c0 36 15 72 30 72 6 0 10 -8 10 -17z m-1412
-79 c-5 -7 -2 -18 7 -27 9 -10 15 -34 15 -66 0 -27 4 -61 10 -75 8 -21 6 -25
-12 -28 -14 -2 -25 -15 -33 -38 -10 -29 -9 -40 5 -65 10 -19 26 -31 42 -33 21
-3 27 -10 32 -40 11 -71 14 -69 -81 -77 l-88 -8 50 -18 c28 -9 67 -18 88 -18
29 -1 37 -5 37 -20 0 -10 -12 -26 -26 -36 -14 -9 -43 -32 -65 -52 -31 -28 -39
-32 -39 -17 0 10 -4 31 -9 48 -6 17 -14 47 -20 66 -10 34 -10 33 -4 -10 3 -25
9 -53 14 -62 5 -9 9 -35 9 -58 l0 -42 50 4 c43 4 50 2 50 -14 0 -10 -4 -18
-10 -18 -5 0 -10 -11 -10 -24 0 -33 -19 -81 -28 -72 -4 4 -12 31 -19 59 l-12
52 5 -45 c3 -25 8 -64 11 -88 5 -40 -10 -114 -28 -135 -4 -5 -21 -1 -39 8 -32
16 -34 16 -71 -5 l-39 -21 0 54 c0 51 15 116 30 127 4 3 10 29 13 58 5 45 4
52 -8 42 -11 -9 -13 4 -8 87 2 54 9 111 14 127 5 16 9 48 9 72 0 49 8 76 21
68 5 -3 9 16 9 42 0 42 67 252 111 349 l14 29 6 -34 c3 -19 1 -40 -3 -46z
m1797 -59 c-31 -63 -61 -115 -66 -115 -17 0 -9 75 14 118 28 52 100 137 105
123 2 -6 -22 -63 -53 -126z m-2300 -82 c-6 -152 -21 -244 -39 -237 -23 9 -39
65 -33 123 7 78 38 186 48 169 5 -8 9 5 9 35 0 26 4 47 10 47 6 0 8 -50 5
-137z m1896 53 c-6 -22 -15 -68 -21 -101 -21 -128 -44 -214 -55 -203 -3 2 2
65 11 139 12 98 23 149 41 189 29 62 43 48 24 -24z m-1956 22 c-4 -18 -11 -46
-15 -63 -5 -16 -12 -42 -15 -57 -7 -37 -18 -35 -38 7 -23 49 -22 56 20 103 45
50 57 53 48 10z m648 5 c3 -5 8 -39 11 -78 7 -70 7 -70 -8 -31 -21 56 -30 116
-17 116 5 0 12 -3 14 -7z m567 -11 c0 -11 -9 -27 -20 -37 -20 -18 -20 -17 -20
13 0 27 9 39 33 41 4 1 7 -7 7 -17z m775 -128 c-3 -18 -13 -38 -22 -45 -15
-13 -16 -9 -9 41 4 30 12 73 19 95 l12 40 3 -50 c2 -27 1 -64 -3 -81z m-1241
91 c18 -27 21 -55 6 -55 -5 0 -10 2 -10 4 0 2 -7 20 -15 40 -17 41 -5 48 19
11z m396 11 c0 -8 -4 -18 -10 -21 -5 -3 -10 -17 -10 -30 0 -29 -17 -42 -23
-18 -3 10 -5 4 -6 -13 0 -17 -10 -39 -21 -49 -25 -22 -25 -22 0 43 24 63 25
76 4 68 -33 -13 -69 -19 -61 -10 11 12 87 42 110 43 9 1 17 -5 17 -13z m3689
-36 c9 0 31 -45 31 -65 0 -8 -20 -35 -45 -60 -43 -45 -45 -46 -92 -40 -38 5
-55 2 -79 -14 -41 -25 -47 -60 -23 -129 13 -38 16 -59 9 -66 -12 -12 -13 -46
-1 -46 5 0 11 -22 15 -50 5 -34 13 -54 28 -64 11 -8 26 -25 32 -37 18 -37 62
-42 124 -14 30 14 56 25 58 25 2 0 -31 -42 -74 -92 -122 -147 -416 -515 -467
-588 -34 -47 -232 -310 -297 -394 -55 -70 -107 -116 -132 -116 -6 0 3 14 19
30 71 74 -56 -6 -135 -85 -35 -35 -65 -63 -66 -62 -2 1 6 29 17 61 11 32 18
60 16 62 -2 2 -18 -1 -36 -7 -18 -6 -35 -9 -38 -5 -7 7 56 34 150 66 48 15 71
28 77 44 10 27 8 29 -25 16 -16 -6 -48 -8 -72 -4 -39 6 -42 8 -26 20 10 7 14
14 8 14 -5 0 13 23 40 52 53 55 48 54 -27 -5 -52 -41 -69 -35 -45 16 28 61 69
152 84 187 49 117 148 282 277 465 90 127 108 147 179 202 31 24 57 48 57 52
0 5 -14 11 -31 15 -26 5 -38 -1 -80 -36 -114 -96 -58 -5 165 267 23 27 46 55
51 61 26 28 142 159 158 178 10 12 50 56 89 98 62 68 72 75 85 63 8 -8 18 -15
22 -15z m-2334 -27 c-5 -23 -70 -138 -85 -153 -3 -3 -14 -22 -25 -42 -23 -44
-30 -47 -39 -15 -13 47 -5 69 38 115 24 26 59 64 76 85 38 44 44 46 35 10z
m-2556 -100 c1 -12 -6 -52 -14 -90 -50 -220 -67 -291 -74 -318 -5 -16 -12 -47
-16 -69 -4 -26 -10 -35 -17 -28 -10 10 6 146 23 190 5 13 9 46 9 75 0 29 7 97
15 152 8 55 15 121 15 146 0 25 3 49 8 53 9 9 51 -80 51 -111z m1938 95 c-3
-13 -9 -54 -13 -93 -10 -98 -38 -235 -55 -266 -8 -15 -29 -55 -48 -90 -18 -35
-39 -71 -46 -79 -7 -8 -26 -40 -41 -70 -28 -53 -29 -54 -32 -25 -2 17 1 53 7
80 5 28 16 97 22 154 10 83 20 118 46 170 39 77 72 132 95 158 8 10 23 33 32
51 19 37 41 43 33 10z m393 -61 c0 -43 -103 -258 -117 -244 -4 5 80 257 93
278 8 14 24 -8 24 -34z m1596 -31 c-15 -33 -30 -55 -36 -51 -6 3 -13 -2 -16
-12 -48 -151 -203 -491 -212 -465 -2 8 1 19 7 25 14 14 15 91 1 82 -5 -3 -10
-19 -10 -35 0 -16 -4 -32 -10 -35 -5 -3 -10 -21 -10 -40 0 -19 -4 -37 -10 -40
-5 -3 -10 -15 -10 -26 0 -35 -48 -122 -95 -173 l-45 -49 -34 39 -34 39 20 50
c11 28 32 69 46 92 15 22 36 56 47 74 11 18 37 60 57 93 21 34 49 82 62 107
14 25 40 59 59 76 19 17 38 41 42 54 8 24 93 145 132 187 15 16 23 20 24 11 0
-8 10 6 21 31 11 25 22 40 25 34 2 -6 -7 -37 -21 -68z m-1707 -63 c-37 -138
-77 -253 -89 -253 -4 0 -11 45 -15 100 -7 106 -3 122 52 187 10 12 31 38 47
57 16 20 31 34 33 32 3 -2 -10 -57 -28 -123z m-1937 76 c-2 -13 -3 -37 -2 -54
1 -67 -26 -440 -36 -489 l-6 -29 -14 29 c-28 61 -52 152 -47 180 3 16 18 84
34 152 16 67 29 138 29 157 0 19 5 35 10 35 6 0 10 12 10 26 0 16 5 24 13 21
6 -2 11 -15 9 -28z m1773 -46 c-9 -76 -32 -142 -58 -170 -11 -13 -22 -22 -23
-20 -2 1 1 34 7 71 8 62 58 176 76 176 3 0 2 -26 -2 -57z m-2682 20 c24 -5 27
-9 27 -47 0 -23 -7 -69 -16 -101 -10 -39 -14 -83 -11 -125 l5 -65 -12 45 c-7
25 -15 52 -18 60 -4 8 -10 33 -14 55 -6 30 -9 35 -12 17 -2 -13 6 -68 18 -123
12 -55 20 -103 17 -105 -3 -3 -23 4 -45 15 -32 16 -41 28 -50 63 -15 61 -31
134 -42 198 -5 30 -12 65 -16 78 -5 19 -3 22 22 22 16 0 40 7 54 14 14 8 34
12 45 9 11 -3 32 -7 48 -10z m-251 -73 c-5 -76 -12 -71 -21 14 -6 56 -5 63 9
56 12 -6 14 -22 12 -70z m727 -20 c-15 -126 -19 -135 -71 -149 -23 -7 -49 -15
-57 -18 -11 -5 -13 12 -7 98 9 139 8 137 64 145 26 3 54 10 62 14 8 5 16 8 17
6 1 -1 -3 -44 -8 -96z m501 67 c0 -12 -7 -42 -14 -67 l-15 -45 0 66 c-1 36 2
69 5 72 11 11 24 -3 24 -26z m-755 8 c107 -4 107 -4 100 -22 -3 -10 -11 -72
-16 -138 -8 -99 -14 -127 -35 -163 -14 -24 -27 -42 -29 -40 -2 2 -8 39 -14 83
-9 78 -11 81 -56 123 -28 25 -57 42 -71 42 -27 0 -30 5 -38 72 l-5 47 37 4
c20 2 48 2 62 -1 14 -3 43 -6 65 -7z m832 -22 c-3 -10 -5 -4 -5 12 0 17 2 24
5 18 2 -7 2 -21 0 -30z m-1268 -151 c1 -57 -3 -101 -8 -98 -14 9 -23 133 -15
210 7 69 8 70 15 31 4 -22 8 -86 8 -143z m3350 67 c-34 -113 -47 -138 -60
-117 -5 7 -9 23 -9 34 0 22 89 199 96 191 2 -2 -10 -51 -27 -108z m-2454 9
c17 -59 19 -82 6 -74 -9 6 -20 -35 -41 -149 -15 -78 -50 -195 -59 -195 -4 0
-15 6 -26 13 -13 11 -17 21 -12 43 37 174 50 231 57 239 4 6 10 32 14 59 9 73
26 127 36 121 5 -3 16 -29 25 -57z m850 1 c6 -23 3 -27 -22 -33 -15 -4 -36 -9
-45 -12 -15 -4 -18 1 -18 28 0 29 4 35 33 44 37 11 43 8 52 -27z m-1798 -347
c3 -182 1 -244 -10 -282 -8 -26 -11 -54 -6 -62 4 -8 4 -52 0 -99 l-8 -84 -2
80 c-1 44 -4 123 -6 175 -10 233 -15 637 -8 644 18 17 36 -149 40 -372z m3267
351 c19 -71 18 -79 -34 -176 -41 -76 -57 -97 -81 -106 -34 -12 -60 -39 -89
-93 -24 -45 -33 -48 -24 -10 17 79 94 245 157 339 43 64 62 76 71 46z m-1427
-9 c3 -8 1 -20 -4 -25 -7 -7 -12 -2 -15 15 -6 28 9 36 19 10z m43 -61 c0 -30
-2 -33 -14 -24 -12 10 -14 36 -7 69 1 2 6 0 11 -3 6 -3 10 -22 10 -42z m83 33
c12 -10 17 -27 17 -65 0 -32 -4 -50 -10 -46 -6 4 -10 -10 -10 -36 l0 -42 -20
26 c-13 17 -20 40 -20 70 0 31 -5 47 -15 51 -22 8 -18 30 8 42 30 15 29 15 50
0z m1022 -127 c8 -75 0 -97 -59 -164 -42 -48 -43 -43 -16 95 11 56 20 108 20
116 0 8 7 31 16 52 l17 37 8 -35 c4 -19 10 -65 14 -101z m-158 79 c-3 -8 -6
-5 -6 6 -1 11 2 17 5 13 3 -3 4 -12 1 -19z m-347 -91 c0 -53 -31 -128 -71
-172 -10 -12 -24 -35 -30 -53 -6 -18 -15 -32 -19 -32 -12 0 -18 82 -8 110 18
50 111 209 119 204 5 -3 9 -29 9 -57z m327 41 c-3 -8 -6 -5 -6 6 -1 11 2 17 5
13 3 -3 4 -12 1 -19z m-2722 -171 c-14 -20 -15 -13 -14 83 l1 105 14 -83 c13
-73 12 -86 -1 -105z m895 -12 c-41 -170 -40 -166 -52 -159 -13 8 -4 76 27 216
33 144 37 151 48 108 7 -26 2 -63 -23 -165z m309 4 c-12 -101 -22 -201 -21
-221 1 -21 -3 -38 -8 -38 -14 0 -34 79 -33 132 1 73 66 328 80 315 2 -3 -6
-87 -18 -188z m1586 39 c-23 -124 -52 -208 -72 -208 -14 0 28 265 49 305 14
26 40 56 45 51 3 -2 -8 -69 -22 -148z m-309 3 c-8 -47 -18 -117 -21 -156 -7
-75 -24 -135 -38 -135 -4 0 -6 26 -3 58 3 31 8 107 12 167 5 94 10 117 32 158
25 45 27 46 30 21 2 -15 -3 -65 -12 -113z m724 90 c0 -23 -49 -84 -50 -62 0
14 38 81 46 81 2 0 4 -9 4 -19z m-3692 -63 c28 -60 72 -153 132 -283 98 -213
97 -209 55 -213 -30 -3 -31 0 -119 180 -75 154 -90 193 -97 253 -9 77 -11 125
-5 125 2 0 17 -28 34 -62z m2698 48 c26 -20 24 -88 -5 -148 -31 -63 -44 -61
-39 5 3 28 3 42 1 30 -2 -13 -11 -23 -20 -23 -13 0 -14 9 -9 53 7 50 28 97 44
97 5 0 17 -6 28 -14z m470 -22 c-7 -27 -56 -98 -63 -91 -5 6 25 88 38 104 19
22 32 15 25 -13z m-726 -77 c-1 -17 -26 -48 -33 -40 -4 3 -7 21 -7 40 0 31 2
33 20 23 11 -6 20 -16 20 -23z m-1994 -131 c6 -84 5 -92 -15 -110 l-21 -19 0
114 c0 63 3 125 7 139 l7 25 7 -29 c5 -16 11 -70 15 -120z m2419 -33 c-3 -81
-10 -151 -14 -157 -5 -6 -12 -28 -16 -48 -7 -35 -39 -77 -50 -66 -3 3 -9 45
-13 93 -7 76 -5 94 10 124 22 43 23 55 3 48 -12 -5 -12 0 2 28 9 19 20 35 25
35 5 0 18 20 30 45 12 25 24 45 26 45 1 0 0 -66 -3 -147z m489 14 c-27 -83
-99 -237 -110 -237 -11 0 5 125 21 171 8 23 36 76 62 119 40 66 49 74 51 54 2
-14 -9 -62 -24 -107z m-219 26 c-10 -149 -23 -188 -96 -284 -35 -47 -74 -98
-86 -115 -20 -26 -22 -27 -22 -8 -1 12 8 78 18 147 19 120 35 176 49 162 3 -3
15 12 27 33 18 35 106 160 113 161 2 1 0 -43 -3 -96z m-2057 65 c2 -11 -5 -15
-23 -15 -28 0 -31 7 -13 25 15 15 32 10 36 -10z m425 -57 c20 -63 21 -130 5
-217 -9 -49 -16 -64 -28 -64 -14 0 -18 16 -23 98 -9 122 -9 210 0 240 8 33 25
12 46 -57z m492 -11 c-8 -48 -33 -79 -46 -58 -12 18 -11 51 2 103 l11 45 20
-25 c16 -20 18 -34 13 -65z m625 22 c0 -15 -5 -22 -12 -20 -16 6 -22 33 -13
56 5 14 7 14 15 2 6 -8 10 -25 10 -38z m2381 -25 c-10 -9 -11 -8 -5 6 3 10 9
15 12 12 3 -3 0 -11 -7 -18z m-4477 -13 c7 -19 -2 -37 -15 -29 -12 8 -12 45 0
45 5 0 12 -7 15 -16z m1759 -24 c15 0 27 6 28 13 1 6 4 1 9 -13 l7 -25 11 25
11 25 0 -29 c1 -34 -27 -147 -40 -160 -5 -6 -9 3 -10 25 -1 18 -3 25 -5 14
-13 -58 -27 -105 -34 -105 -16 0 -29 55 -36 156 -7 92 -9 103 -16 69 -17 -93
-21 -105 -29 -99 -12 7 -11 44 1 44 6 0 7 18 4 44 -6 38 -4 45 12 48 11 3 28
-4 40 -14 11 -10 32 -18 47 -18z m434 -27 c-3 -10 -5 -4 -5 12 0 17 2 24 5 18
2 -7 2 -21 0 -30z m-130 5 c-3 -8 -6 -5 -6 6 -1 11 2 17 5 13 3 -3 4 -12 1
-19z m-527 -35 c0 -28 -3 -34 -10 -23 -13 20 -13 60 0 60 6 0 10 -17 10 -37z
m90 -31 c0 -28 -3 -33 -10 -22 -13 20 -13 73 0 65 6 -3 10 -23 10 -43z m-2060
-187 c0 -7 4 -16 9 -19 16 -10 20 -46 5 -46 -8 0 -14 6 -14 14 0 8 -3 16 -7
18 -5 2 -24 28 -45 58 -30 46 -37 67 -42 125 l-6 70 50 -103 c27 -56 50 -109
50 -117z m1301 123 c-13 -91 -37 -158 -57 -158 -10 0 -10 8 -3 33 22 73 41
143 46 167 8 40 13 53 19 47 4 -3 1 -43 -5 -89z m1171 40 c-9 -9 -12 -4 -11
23 0 32 1 33 11 11 8 -17 8 -26 0 -34z m-467 -54 c4 -44 3 -64 -3 -54 -5 8
-12 47 -16 85 -4 46 -3 65 4 54 5 -8 12 -47 15 -85z m-474 9 c-17 -37 -25 -21
-16 34 7 47 8 47 17 20 7 -20 7 -37 -1 -54z m-211 -87 c-12 -12 -13 15 -2 94
l7 55 3 -69 c2 -39 -2 -74 -8 -80z m-1930 127 c0 -23 -22 -84 -28 -78 -4 4 -7
10 -7 13 0 4 -4 13 -9 20 -5 8 -1 21 10 33 17 19 34 25 34 12z m5473 -20 c-7
-38 -45 -123 -55 -123 -18 0 -6 61 20 104 31 52 41 57 35 19z m-3919 11 c12
-5 16 -20 16 -63 0 -74 -11 -85 -25 -24 -7 26 -15 58 -19 71 -8 23 0 27 28 16z
m952 -30 c-5 -19 -10 -24 -17 -17 -8 8 -7 18 1 33 15 28 24 19 16 -16z m751
14 c-3 -8 -6 -5 -6 6 -1 11 2 17 5 13 3 -3 4 -12 1 -19z m2710 8 c-3 -8 -32
-49 -64 -92 -32 -42 -83 -111 -113 -153 -30 -42 -63 -88 -72 -101 -10 -13 -20
-22 -23 -19 -5 6 151 240 217 327 38 49 67 69 55 38z m-2253 -133 c-15 -91
-20 -103 -35 -103 -13 0 -11 43 6 133 18 93 25 109 36 79 5 -13 2 -58 -7 -109z
m-1977 75 c-6 -32 -17 -84 -35 -163 -5 -22 -13 -49 -17 -59 -8 -19 -9 -19 -16
0 -5 12 -8 -3 -8 -42 -1 -33 -7 -68 -13 -77 -11 -14 -12 -1 -10 73 2 49 7 90
11 90 5 0 11 37 15 83 10 120 13 127 48 127 29 0 30 -2 25 -32z m74 -14 l-9
-39 -1 36 c-1 20 2 39 6 42 12 13 13 0 4 -39z m359 21 c0 -8 -4 -15 -10 -15
-5 0 -10 7 -10 15 0 8 5 15 10 15 6 0 10 -7 10 -15z m-2228 -33 c-13 -9 -41
-32 -62 -49 -54 -47 -72 -41 -25 8 40 41 67 58 95 58 10 0 7 -6 -8 -17z m3292
-48 c27 -59 33 -99 16 -109 -6 -4 -22 -24 -36 -46 -40 -64 -47 -52 -41 69 8
160 20 177 61 86z m-529 -1 c5 -26 3 -33 -9 -33 -12 0 -16 10 -16 42 0 47 14
42 25 -9z m3795 37 c0 -5 -5 -10 -11 -10 -5 0 -7 5 -4 10 3 6 8 10 11 10 2 0
4 -4 4 -10z m-2550 -54 c0 -11 -12 -33 -27 -48 -19 -20 -29 -43 -33 -76 -4
-34 -10 -48 -22 -50 -28 -5 -23 56 13 149 30 78 32 80 50 63 10 -9 19 -26 19
-38z m-110 -11 c-6 -15 -13 -26 -16 -23 -2 3 0 18 6 33 6 15 13 26 16 23 2 -3
0 -18 -6 -33z m-2900 -5 c0 -11 7 -20 15 -20 11 0 15 -12 16 -47 1 -27 3 -66
5 -88 3 -32 -1 -43 -16 -53 -18 -11 -22 -9 -30 13 -13 35 -13 215 0 215 6 0
10 -9 10 -20z m108 -32 c6 -24 14 -73 17 -110 l7 -67 -32 9 c-18 5 -34 11 -35
12 -6 7 -13 187 -8 192 4 3 14 6 23 6 12 0 21 -13 28 -42z m2559 -10 c-18
-150 -25 -176 -66 -237 -43 -63 -72 -86 -97 -77 -18 7 -19 74 -2 113 15 33
159 253 166 253 3 0 2 -24 -1 -52z m-483 -42 l-7 -77 -24 23 c-19 18 -23 29
-19 53 4 16 12 35 19 40 7 6 16 19 20 29 13 35 17 10 11 -68z m-1855 -11 c18
-62 21 -87 15 -145 -7 -76 -19 -90 -30 -36 -3 19 -12 37 -20 40 -10 4 -14 22
-14 58 0 70 11 158 19 158 4 0 17 -34 30 -75z m286 23 c-9 -74 -16 -89 -26
-58 -4 14 -5 -25 -2 -87 3 -61 2 -119 -2 -130 -15 -33 -24 55 -18 171 5 91 10
112 27 131 12 13 22 23 24 24 1 1 0 -23 -3 -51z m2201 -71 c-8 -28 -22 -61
-31 -72 -16 -19 -16 -17 -11 28 3 27 16 70 28 95 18 40 22 43 25 24 3 -12 -2
-46 -11 -75z m1500 1 c-27 -56 -34 -65 -30 -38 8 43 56 140 61 123 2 -6 -12
-44 -31 -85z m-3499 60 c-3 -8 -6 -5 -6 6 -1 11 2 17 5 13 3 -3 4 -12 1 -19z
m-372 -10 c5 4 5 -1 2 -11 -4 -10 -7 -30 -7 -45 0 -36 -19 -16 -30 32 -7 32
-6 35 10 26 9 -5 21 -6 25 -2z m47 3 c6 10 8 5 4 -16 -3 -16 -8 -59 -11 -95
-9 -91 -25 -113 -25 -34 0 72 11 165 18 145 4 -11 6 -11 14 0z m1838 -35 c0
-8 -6 -21 -14 -28 -7 -8 -23 -32 -34 -54 -17 -32 -22 -36 -27 -21 -7 18 11 54
49 94 25 27 26 27 26 9z m2239 -47 c-12 -24 -29 -55 -39 -69 -17 -25 -51 -80
-102 -168 -15 -26 -28 -39 -28 -30 0 9 4 19 9 22 4 3 16 27 25 53 17 47 32 83
65 152 19 39 84 107 89 92 2 -5 -7 -29 -19 -52z m-4009 20 c0 -10 -4 -19 -10
-19 -5 0 -10 12 -10 26 0 14 4 23 10 19 6 -3 10 -15 10 -26z m1610 -77 c0 -24
-8 -49 -18 -63 l-19 -22 -11 33 c-13 36 -16 99 -6 125 6 15 10 13 30 -9 17
-17 24 -37 24 -64z m189 -42 c0 -19 -4 -42 -9 -50 -8 -13 -13 -11 -35 12 -32
35 -32 56 3 111 l27 45 7 -42 c3 -22 7 -57 7 -76z m521 96 c0 -8 -7 -19 -15
-26 -12 -10 -15 -10 -15 3 0 25 11 47 21 41 5 -3 9 -11 9 -18z m-486 -37 c7
-37 -4 -62 -15 -33 -11 27 -11 76 0 70 4 -3 11 -20 15 -37z m-2495 -46 c1 -13
-3 -23 -9 -23 -5 0 -10 21 -9 48 1 38 2 42 9 22 4 -14 8 -35 9 -47z m3061 1
c0 -14 -12 -19 -23 -8 -9 9 4 35 14 28 5 -3 9 -12 9 -20z m-861 -68 c1 -23 -8
-52 -20 -72 -21 -34 -39 -44 -39 -22 0 13 28 134 37 158 8 23 21 -16 22 -64z
m106 -22 l-27 -49 7 50 c4 28 12 59 18 70 10 19 10 19 20 -1 7 -16 3 -33 -18
-70z m-1658 -96 c-2 -35 -3 -9 -3 57 0 66 1 94 3 63 2 -32 2 -86 0 -120z
m2373 145 c0 -21 -8 -32 -33 -52 -17 -13 -18 -12 -11 15 11 48 44 76 44 37z
m1763 -27 c-10 -14 -22 -26 -26 -26 -5 0 1 14 13 31 12 16 24 28 27 25 3 -2
-3 -16 -14 -30z m-4316 -23 c-3 -10 -5 -2 -5 17 0 19 2 27 5 18 2 -10 2 -26 0
-35z m-43 -61 l-8 -47 -7 55 c-8 59 -2 83 13 55 6 -10 7 -36 2 -63z m73 56
c-3 -8 -6 -5 -6 6 -1 11 2 17 5 13 3 -3 4 -12 1 -19z m2219 -25 c-2 -3 -9 -2
-15 2 -8 4 -7 13 1 28 l13 22 3 -23 c2 -13 1 -26 -2 -29z m1714 29 c0 -20 -63
-196 -82 -228 -15 -26 -27 -34 -49 -34 -36 0 -39 -27 -5 -40 22 -8 24 -13 16
-39 -9 -33 -39 -80 -65 -101 -12 -10 -19 -10 -27 -2 -9 9 -8 21 5 47 13 28 14
40 6 54 -24 38 73 253 142 316 38 34 59 44 59 27z m-2020 -24 c0 -19 -2 -20
-10 -8 -7 11 -10 7 -10 -17 0 -17 -4 -35 -10 -38 -6 -4 -10 12 -10 39 0 39 3
46 20 46 14 0 20 -7 20 -22z m-1791 -75 c0 -69 -2 -83 -10 -63 -9 22 -3 150 7
150 2 0 4 -39 3 -87z m1731 25 c0 -46 -6 -72 -21 -98 l-21 -34 -14 24 c-16 29
-18 86 -4 95 5 3 17 21 26 40 9 19 20 35 25 35 5 0 9 -28 9 -62z m-1866 -115
c8 -113 3 -151 -19 -133 -16 13 -31 182 -20 236 6 33 7 35 19 18 7 -11 17 -65
20 -121z m6267 108 c-13 -9 -40 -31 -62 -50 -22 -19 -42 -31 -45 -29 -7 8 68
89 91 98 31 12 41 -1 16 -19z m-4556 -67 c-7 -51 -21 -57 -30 -14 -5 22 -1 39
11 58 22 33 29 17 19 -44z m-1268 14 c-3 -7 -5 -2 -5 12 0 14 2 19 5 13 2 -7
2 -19 0 -25z m2206 -20 c-3 -16 -9 -28 -14 -28 -10 0 -12 41 -3 65 10 26 23
-4 17 -37z m1667 43 c0 -6 -4 -12 -9 -15 -4 -3 -11 -20 -15 -37 -8 -43 -23
-59 -55 -59 -14 0 -21 4 -16 8 6 4 26 31 45 59 33 50 50 65 50 44z m-2330 -38
c0 -16 -5 -35 -10 -43 -7 -11 -10 -4 -10 28 0 23 5 42 10 42 6 0 10 -12 10
-27z m-1515 -68 c6 -73 -3 -173 -14 -143 -6 17 -2 223 4 216 2 -2 6 -34 10
-73z m-288 33 c-3 -7 -5 -2 -5 12 0 14 2 19 5 13 2 -7 2 -19 0 -25z m-280 -40
c-2 -13 -4 -5 -4 17 -1 22 1 32 4 23 2 -10 2 -28 0 -40z m152 35 c0 -10 -4
-36 -8 -58 -9 -40 -9 -39 -10 18 0 32 3 57 9 57 6 0 10 -8 9 -17z m1909 -19
c7 -23 7 -45 2 -60 -10 -24 -30 -33 -30 -13 0 5 -4 7 -10 4 -14 -9 -13 78 2
93 18 18 24 15 36 -24z m4062 -19 c-7 -8 -22 -15 -33 -15 -19 0 -18 2 9 31 23
24 30 27 32 14 2 -9 -2 -22 -8 -30z m-4362 0 c16 -35 15 -51 -4 -80 -23 -35
-34 -22 -34 39 0 71 17 88 38 41z m2339 -30 c-4 -8 -11 -15 -17 -15 -7 0 -7 6
0 21 13 23 26 19 17 -6z m-2107 -20 c0 -8 -7 -15 -16 -15 -14 0 -14 3 -4 15 7
8 14 15 16 15 2 0 4 -7 4 -15z m-2923 -30 c12 -9 25 -31 29 -50 3 -20 12 -39
18 -43 18 -11 66 -113 68 -144 1 -16 4 -28 6 -28 2 0 17 13 34 29 27 25 132
61 144 49 6 -7 33 -272 28 -280 -6 -9 -66 -39 -71 -35 -1 2 -10 21 -18 43 -15
39 -15 39 -10 -40 4 -44 13 -88 21 -102 9 -13 13 -31 10 -41 -3 -10 5 -44 18
-75 l24 -58 -52 6 c-70 7 -82 -3 -68 -55 8 -35 8 -40 -3 -31 -8 6 -16 26 -20
43 -3 18 -13 57 -21 87 -33 114 -45 159 -79 290 -19 74 -41 160 -49 190 -15
53 -49 191 -59 238 -6 27 17 30 50 7z m748 -48 c9 -29 15 -69 13 -88 l-3 -34
-17 35 c-20 42 -36 156 -20 146 5 -3 18 -30 27 -59z m182 1 c-2 -13 -4 -3 -4
22 0 25 2 35 4 23 2 -13 2 -33 0 -45z m3777 25 c-12 -46 -89 -207 -107 -222
-44 -36 0 86 70 197 38 59 46 65 37 25z m-645 8 c11 -7 4 -33 -39 -137 -29
-71 -56 -138 -60 -149 -4 -11 -20 -51 -35 -90 -14 -38 -31 -78 -36 -87 -5 -10
-9 -25 -9 -33 0 -8 -4 -23 -9 -33 -5 -9 -13 -26 -16 -37 -6 -16 -10 -11 -21
25 -7 25 -14 65 -14 89 0 48 49 180 107 289 20 37 47 87 59 111 30 57 46 69
73 52z m492 -83 c-96 -138 -114 -152 -83 -63 18 52 122 171 129 148 3 -7 -18
-45 -46 -85z m-1912 12 c-12 -32 -29 -41 -29 -13 0 9 5 32 12 50 11 30 13 31
20 14 4 -11 2 -34 -3 -51z m86 2 c-4 -4 -10 -1 -12 6 -9 24 -23 12 -24 -20 -1
-25 -3 -27 -6 -10 -3 13 3 40 13 60 l18 37 9 -33 c6 -18 6 -36 2 -40z m1185
37 c0 -4 -23 -31 -50 -59 -59 -61 -70 -79 -70 -119 0 -16 -4 -33 -10 -36 -6
-4 -10 6 -10 22 0 35 26 159 40 194 11 25 13 26 56 16 24 -6 44 -14 44 -18z
m290 -28 c0 -34 -52 -131 -71 -131 -5 0 -9 -8 -9 -19 0 -10 -12 -34 -27 -54
-16 -20 -41 -59 -58 -87 -16 -28 -35 -59 -42 -68 -31 -43 -7 47 70 258 52 142
55 148 69 152 7 3 25 0 40 -6 23 -9 28 -16 28 -45z m-3041 -61 c0 -25 -2 -56
-6 -69 l-6 -23 -13 23 c-14 25 -19 160 -7 173 11 11 31 -54 32 -104z m3201 64
c0 -59 -22 -86 -35 -43 -6 19 -8 19 -24 5 -27 -25 -41 -19 -41 17 0 43 10 52
60 52 39 1 40 0 40 -31z m40 12 c0 -8 -7 -16 -15 -20 -17 -6 -18 -4 -9 18 8
20 24 21 24 2z m-3760 -18 c0 -13 3 -33 6 -45 4 -13 2 -23 -4 -23 -13 0 -36
66 -27 80 11 18 25 11 25 -12z m729 -89 c-5 -51 -12 -98 -15 -104 -6 -14 5
155 12 183 12 44 13 15 3 -79z m-402 44 c-4 -17 -4 -17 -12 0 -4 9 -4 25 0 35
8 16 8 16 12 0 3 -10 3 -26 0 -35z m1697 -60 c-5 -15 -15 -28 -21 -31 -17 -5
-17 51 -1 81 l11 22 10 -23 c7 -15 7 -33 1 -49z m-1236 -93 c0 -52 -5 -113
-13 -135 -12 -38 -13 -34 -14 80 0 66 2 138 6 160 6 36 7 38 14 15 4 -14 7
-68 7 -120z m2792 85 c0 -19 -4 -35 -9 -35 -5 0 -12 -12 -16 -27 -3 -16 -18
-44 -33 -63 l-26 -34 -7 24 c-6 23 -7 22 -8 -7 -1 -33 -51 -104 -134 -188 -43
-44 -43 -28 1 42 91 146 124 193 133 188 5 -4 9 5 9 18 0 13 14 41 30 62 17
21 30 42 30 46 0 5 7 9 15 9 10 0 15 -11 15 -35z m565 -28 c-14 -48 -55 -131
-79 -162 -15 -20 -15 -19 -16 6 0 41 27 108 63 155 17 24 35 44 39 44 3 0 0
-20 -7 -43z m-4381 8 c4 -16 19 -30 41 -39 20 -9 37 -21 39 -28 3 -7 7 -76 10
-153 5 -128 4 -138 -11 -120 -15 19 -15 19 -8 -5 7 -23 7 -23 -9 -7 -13 13
-22 15 -36 7 -22 -12 -23 -8 -39 90 l-9 55 -1 -44 c-1 -42 -2 -43 -19 -27 -15
13 -21 43 -30 139 -17 168 -19 157 27 157 33 0 40 -4 45 -25z m245 -132 c-1
-90 -4 -127 -9 -105 -11 49 -23 219 -15 232 19 30 25 -1 24 -127z m308 85 c-2
-13 -4 -5 -4 17 -1 22 1 32 4 23 2 -10 2 -28 0 -40z m3713 9 c0 -15 -29 -57
-30 -42 0 6 3 20 6 33 7 24 24 31 24 9z m-4070 -94 c0 -61 -3 -83 -10 -73 -13
20 -13 160 0 160 6 0 10 -36 10 -87z m387 50 c-3 -10 -5 -4 -5 12 0 17 2 24 5
18 2 -7 2 -21 0 -30z m-427 5 c0 -13 3 -41 5 -63 4 -28 3 -34 -3 -20 -14 30
-21 105 -11 105 5 0 9 -10 9 -22z m197 -145 c6 -85 -1 -133 -17 -133 -5 0 -8
19 -7 43 0 23 -2 92 -6 152 -7 109 -6 110 9 65 9 -25 18 -82 21 -127z m383
134 c0 -12 -5 -29 -10 -37 -7 -11 -10 -3 -10 28 0 26 4 41 10 37 6 -3 10 -16
10 -28z m820 -2 c0 -8 -4 -15 -9 -15 -5 0 -14 -12 -20 -27 -6 -16 -23 -44 -37
-63 l-26 -35 6 55 c5 43 13 60 34 77 31 26 52 29 52 8z m360 -14 c0 -5 -7 -14
-15 -21 -12 -10 -15 -10 -15 2 0 8 3 18 7 21 9 10 23 9 23 -2z m1229 0 c7 -5
12 -14 9 -21 -2 -7 -10 -4 -22 9 -19 21 -12 28 13 12z m1549 -32 c-10 -29 -53
-49 -105 -49 -22 0 -22 0 -5 34 12 24 27 36 52 43 55 14 70 7 58 -28z m-3921
-111 c-2 -24 -4 -5 -4 42 0 47 2 66 4 43 2 -24 2 -62 0 -85z m-648 85 c0 -25
-1 -25 -8 -8 -5 11 -7 23 -4 28 8 14 13 7 12 -20z m1263 -10 c2 -20 1 -59 -3
-87 -4 -28 -10 -73 -14 -100 -10 -72 -25 -38 -25 56 0 75 17 168 31 168 4 0 9
-17 11 -37z m3396 5 c8 -8 15 -8 26 1 33 28 33 4 1 -34 -33 -38 -36 -39 -50
-21 -12 15 -14 37 -6 64 2 6 18 1 29 -10z m-4510 -228 c0 -66 -3 -96 -8 -80
-4 14 -8 90 -7 170 0 116 2 132 7 80 4 -36 8 -112 8 -170z m662 170 l-7 -45
-2 55 c0 32 3 50 8 45 5 -6 5 -30 1 -55z m1476 -51 l-14 -34 -1 31 c-1 17 5
46 12 65 l12 34 3 -31 c2 -17 -4 -47 -12 -65z m-2263 -41 c4 -46 3 -58 -9 -58
-11 0 -14 19 -13 93 1 98 11 82 22 -35z m2604 90 c-3 -8 -6 -5 -6 6 -1 11 2
17 5 13 3 -3 4 -12 1 -19z m1404 -47 c-17 -26 -31 -53 -31 -59 0 -7 -4 -12
-10 -12 -5 0 -10 2 -10 4 0 12 35 83 53 108 34 46 32 13 -2 -41z m69 18 c0
-21 -68 -115 -76 -106 -2 2 7 24 21 48 14 24 28 52 31 62 9 24 24 21 24 -4z
m-2346 -61 c-11 -38 -44 -52 -44 -19 0 11 8 37 17 56 16 34 18 35 27 16 5 -13
5 -33 0 -53z m856 41 c0 -10 -4 -19 -10 -19 -5 0 -10 12 -10 26 0 14 4 23 10
19 6 -3 10 -15 10 -26z m-1183 -16 c-12 -82 -22 -108 -84 -231 -61 -121 -63
-125 -57 -77 3 28 7 70 9 95 3 40 45 130 107 230 20 31 31 23 25 -17z m1672
-17 c-9 -8 -10 -7 -5 7 3 10 7 24 7 30 1 7 3 4 6 -7 3 -10 -1 -23 -8 -30z
m-932 -23 c-3 -10 -5 -4 -5 12 0 17 2 24 5 18 2 -7 2 -21 0 -30z m2593 10 c0
-40 -13 -58 -29 -40 -9 12 -9 21 0 41 16 34 29 33 29 -1z m-840 13 c0 -7 -61
-96 -66 -96 -2 0 4 16 13 35 9 19 20 35 25 35 4 0 8 7 8 15 0 8 5 15 10 15 6
0 10 -2 10 -4z m-330 -13 c0 -5 -5 -15 -10 -23 -8 -12 -10 -11 -10 8 0 12 5
22 10 22 6 0 10 -3 10 -7z m154 -36 c-8 -38 -24 -69 -41 -80 -7 -4 -13 -15
-13 -22 0 -8 -4 -15 -9 -15 -5 0 -23 -3 -41 -6 l-32 -7 38 54 c21 30 44 58 51
62 7 4 13 14 13 20 0 18 21 37 32 31 5 -3 6 -20 2 -37z m-3237 -44 c-2 -16 -4
-3 -4 27 0 30 2 43 4 28 2 -16 2 -40 0 -55z m3029 -31 c-29 -47 -41 -56 -62
-48 -12 5 -11 13 9 50 13 25 35 58 48 75 l24 31 3 -34 c2 -24 -5 -47 -22 -74z
m-242 0 c2 -4 -3 -23 -11 -42 -14 -32 -16 -33 -23 -15 -9 20 -4 106 7 135 4 9
9 -3 14 -28 4 -23 10 -46 13 -50z m-107 11 c-7 -44 -24 -64 -33 -40 -7 18 16
77 30 77 5 0 6 -16 3 -37z m-1077 -53 c0 -33 -4 -60 -10 -60 -11 0 -14 78 -4
104 11 28 14 18 14 -44z m1760 -14 c-25 -75 -40 -85 -40 -26 0 29 7 47 27 69
15 16 29 28 31 26 2 -2 -6 -33 -18 -69z m474 34 c3 -22 11 -40 16 -40 6 0 10
-7 10 -15 0 -7 8 -18 18 -24 15 -9 14 -13 -18 -46 -37 -39 -113 -81 -128 -71
-18 11 66 236 87 236 5 0 11 -18 15 -40z m-1393 -33 c-8 -8 -11 -4 -11 14 0
33 14 47 18 19 2 -12 -1 -27 -7 -33z m-1990 -24 c-9 -16 -10 -16 -11 -1 0 9 3
25 7 35 7 16 8 17 11 1 2 -10 -1 -25 -7 -35z m1655 -10 c-11 -11 -19 6 -11 24
8 17 8 17 12 0 3 -10 2 -21 -1 -24z m-956 -33 c-6 -11 -15 -18 -20 -15 -6 4
-2 17 7 32 19 29 30 15 13 -17z m1474 15 c5 -13 -3 -41 -33 -119 -20 -51 -23
-20 -6 58 17 74 27 91 39 61z m1474 -42 c2 -13 -6 -26 -22 -37 -29 -18 -31
-13 -15 33 12 35 32 37 37 4z m-1688 -10 c0 -16 -5 -35 -10 -43 -7 -11 -10 -4
-10 28 0 23 5 42 10 42 6 0 10 -12 10 -27z m1028 -14 c-23 -42 -48 -69 -48
-52 0 12 58 93 66 93 3 0 -5 -18 -18 -41z m-1518 -18 c0 -31 -5 -53 -15 -61
-13 -11 -15 -7 -15 26 0 22 3 49 6 62 11 39 24 24 24 -27z m-2376 7 c3 -16 2
-28 -3 -28 -11 0 -22 40 -15 52 8 12 10 9 18 -24z m3097 -26 c-13 -45 -41 -77
-41 -46 0 30 34 104 43 95 5 -5 4 -27 -2 -49z m1327 13 c-11 -24 -28 -34 -28
-16 0 21 13 41 26 41 11 0 11 -5 2 -25z m-443 -27 c-4 -24 -12 -52 -17 -62 -9
-17 -11 -17 -19 -3 -9 15 23 107 37 107 3 0 3 -19 -1 -42z m-2065 1 c0 -5 -4
-9 -10 -9 -5 0 -10 7 -10 16 0 8 5 12 10 9 6 -3 10 -10 10 -16z m907 -90 c-3
-27 -13 -61 -22 -76 -16 -27 -16 -27 -10 32 8 79 15 106 27 99 6 -4 8 -27 5
-55z m1383 35 c0 -13 -42 -74 -51 -74 -13 0 -11 9 12 46 18 30 39 45 39 28z
m-4355 -34 c-3 -5 -11 -10 -16 -10 -6 0 -7 5 -4 10 3 6 11 10 16 10 6 0 7 -4
4 -10z m-71 -26 c4 -9 0 -25 -9 -34 -14 -15 -13 -18 11 -29 43 -19 20 -24 -43
-8 -92 24 -113 35 -113 56 0 16 8 21 43 24 93 8 105 7 111 -9z m4484 -86 c-6
-18 -26 -48 -43 -66 -18 -18 -42 -59 -54 -92 -12 -32 -36 -73 -54 -92 -29 -31
-32 -32 -35 -12 -10 65 134 292 185 294 9 0 9 -8 1 -32z m516 -20 c-10 -31
-34 -68 -46 -68 -5 0 -20 7 -34 17 l-25 16 43 28 c54 35 72 37 62 7z m-4373
-150 c-8 -28 -9 -22 -10 44 -1 96 13 138 17 51 2 -34 -1 -77 -7 -95z m2642 80
c-7 -40 -33 -72 -46 -59 -11 11 9 78 26 85 24 9 26 6 20 -26z m2024 -30 c-3
-8 -6 -5 -6 6 -1 11 2 17 5 13 3 -3 4 -12 1 -19z m-5278 -60 c2 -7 12 -19 23
-28 14 -11 21 -40 30 -119 10 -97 10 -105 -7 -117 -26 -19 -28 -18 -54 17 -23
30 -29 49 -71 204 -10 39 -21 78 -25 88 -6 15 0 14 46 -8 30 -13 56 -30 58
-37z m3172 -55 c-9 -17 -10 -17 -16 0 -4 9 -1 32 6 50 l14 32 3 -32 c2 -18 -1
-41 -7 -50z m-833 -41 c3 -65 -11 -85 -22 -31 -10 54 -7 101 7 97 7 -3 13 -28
15 -66z m-2240 0 c7 -26 16 -75 20 -110 8 -60 8 -63 -12 -60 -23 3 -31 31 -42
151 -6 65 -4 77 8 72 8 -3 20 -27 26 -53z m5472 49 c0 -5 3 -18 7 -28 6 -16 5
-16 -10 -4 -19 15 -23 41 -7 41 6 0 10 -4 10 -9z m-5363 -93 c-2 -13 -4 -5 -4
17 -1 22 1 32 4 23 2 -10 2 -28 0 -40z m2647 15 c3 -11 0 -26 -5 -34 -6 -10
-9 -2 -9 25 0 40 8 45 14 9z m-2591 -101 c5 -64 4 -83 -6 -79 -8 2 -13 35 -14
103 -2 116 11 100 20 -24z m5138 55 l26 -22 -33 -53 c-25 -42 -33 -49 -38 -35
-9 28 -10 108 -2 121 10 16 17 15 47 -11z m-1409 -29 c-7 -7 -12 -8 -12 -2 0
14 12 26 19 19 2 -3 -1 -11 -7 -17z m-4141 -99 l39 -67 -36 -36 c-21 -21 -37
-30 -39 -23 -8 21 -45 209 -45 226 1 22 31 -15 81 -100z m4315 -3 c-24 -55
-56 -80 -41 -33 3 12 11 40 16 62 6 22 18 48 27 59 17 18 17 18 20 -6 2 -14
-8 -50 -22 -82z m1377 87 c4 -3 -15 -29 -43 -60 -31 -34 -50 -64 -50 -79 0
-13 3 -24 8 -24 4 0 25 -16 47 -35 l39 -35 -30 -28 c-17 -15 -68 -61 -113
-102 -76 -69 -101 -88 -101 -78 0 2 13 44 30 93 16 49 28 90 26 92 -2 2 -17
-28 -33 -67 -21 -49 -32 -66 -36 -55 -10 25 12 116 38 155 12 19 44 76 70 125
62 118 61 117 104 109 20 -4 40 -9 44 -11z m-5384 -51 c1 -7 -3 -10 -9 -7 -5
3 -10 21 -9 38 1 31 1 31 9 7 4 -14 8 -31 9 -38z m2398 -59 c-2 -16 -4 -3 -4
27 0 30 2 43 4 28 2 -16 2 -40 0 -55z m1240 -83 c-6 -16 -15 -26 -20 -21 -10
10 12 63 24 56 4 -3 2 -19 -4 -35z m122 -12 c-5 -18 -9 -34 -9 -35 0 -2 -4 -3
-10 -3 -13 0 -13 26 0 51 17 31 30 22 19 -13z m-579 -10 c0 -7 -4 -19 -9 -27
-11 -17 -23 1 -15 23 7 19 24 21 24 4z m-1450 -65 c0 -20 -3 -24 -11 -16 -7 7
-9 19 -6 27 10 24 17 19 17 -11z m287 5 c-3 -8 -6 -5 -6 6 -1 11 2 17 5 13 3
-3 4 -12 1 -19z m-3279 -50 c13 -32 7 -35 -20 -11 -10 9 -18 28 -18 42 0 22 2
23 13 11 7 -8 19 -27 25 -42z m4631 -39 c-19 -45 -35 -75 -37 -66 -4 22 23
106 44 136 30 42 27 12 -7 -70z m-2304 -17 c-6 -24 -8 -25 -17 -9 -5 10 -7 30
-3 45 6 24 8 25 17 9 5 -10 7 -30 3 -45z m2512 36 c-3 -8 -6 -5 -6 6 -1 11 2
17 5 13 3 -3 4 -12 1 -19z m-74 -48 c9 -36 -10 -85 -68 -170 -62 -91 -86 -122
-91 -117 -6 6 55 157 87 215 58 103 62 108 72 72z m1794 -22 c-14 -24 -35 -63
-48 -88 -25 -50 -55 -87 -82 -101 -17 -10 -17 -8 -2 27 19 46 19 50 -1 33 -8
-7 -26 -34 -40 -60 -36 -72 -69 -84 -40 -14 15 35 211 245 229 245 5 0 -2 -19
-16 -42z m-5808 -109 c16 -28 19 -40 10 -37 -18 6 -75 86 -83 118 -7 24 -5 23
22 -7 15 -18 39 -51 51 -74z m-79 -63 c22 -43 40 -89 40 -102 0 -12 5 -35 10
-50 6 -14 15 -54 20 -88 5 -33 12 -74 16 -91 5 -29 5 -29 -10 -11 -9 11 -16
26 -16 34 0 8 -10 27 -21 44 -18 25 -19 32 -8 39 11 6 5 18 -27 51 -39 41 -94
129 -94 151 0 5 8 16 17 22 17 13 17 14 0 32 -17 20 -23 64 -10 77 12 11 40
-26 83 -108z m-207 -45 c36 -50 86 -124 111 -164 46 -74 92 -187 77 -187 -5 0
-41 39 -79 88 -39 48 -90 109 -113 135 -23 26 -36 47 -28 45 10 -2 14 7 12 30
-1 27 2 32 15 27 13 -5 13 -3 -2 14 -10 11 -24 17 -31 15 -8 -4 -20 8 -30 29
-9 20 -25 43 -36 53 -14 12 -16 20 -8 30 14 17 28 2 112 -115z m27 39 c0 -14
-14 -12 -28 2 -19 19 -14 30 8 18 11 -6 20 -15 20 -20z m4250 16 c0 -15 -130
-189 -137 -182 -7 6 122 196 134 196 1 0 3 -6 3 -14z m-1141 -78 l-12 -22 -9
24 c-5 14 -6 36 -3 50 l7 25 14 -28 c12 -21 12 -32 3 -49z m-3329 -36 c0 -9
-13 2 -30 24 -38 51 -38 69 0 25 17 -18 30 -41 30 -49z m273 66 c-2 -5 5 -16
15 -26 18 -18 172 -314 172 -330 0 -4 -18 25 -40 63 -22 39 -45 77 -50 85 -6
8 -20 34 -32 58 -12 23 -25 42 -29 42 -11 0 -66 72 -74 98 -6 21 -4 23 17 20
12 -2 22 -6 21 -10z m241 -47 c39 -64 47 -90 15 -51 -20 25 -59 94 -59 105 0
14 12 0 44 -54z m4715 50 c11 -7 -1 -31 -54 -110 -37 -55 -68 -101 -70 -101
-3 0 3 44 17 110 17 82 65 127 107 101z m916 -51 c-15 -22 -34 -45 -43 -52
-28 -24 -3 34 31 69 40 43 47 34 12 -17z m-1280 -57 c-4 -36 -15 -63 -31 -81
l-24 -27 4 25 c3 14 7 43 10 66 3 23 13 59 23 80 16 36 17 37 21 15 2 -14 1
-49 -3 -78z m1809 75 c-4 -7 -21 -31 -39 -53 -77 -97 -281 -437 -374 -623
-177 -354 -365 -877 -422 -1177 -19 -100 -29 -86 -29 41 0 213 45 522 83 562
11 12 15 22 9 22 -17 0 -15 29 9 128 20 81 26 90 73 135 52 49 55 62 5 26 -22
-16 -29 -17 -29 -6 0 35 98 282 177 444 21 42 142 159 278 268 140 111 158
132 50 58 -11 -7 -23 -13 -28 -13 -13 0 226 199 241 200 2 0 0 -6 -4 -12z
m-2235 -44 c-31 -33 -36 -22 -8 17 13 19 25 27 27 20 2 -7 -6 -23 -19 -37z
m1591 21 c0 -15 -51 -67 -58 -60 -5 5 46 75 54 75 2 0 4 -7 4 -15z m-166 -47
c-28 -56 -103 -162 -110 -155 -7 6 48 151 65 171 15 17 45 34 64 35 4 1 -4
-23 -19 -51z m-2678 5 c-11 -11 -19 6 -11 24 8 17 8 17 12 0 3 -10 2 -21 -1
-24z m76 -10 c1 -30 -29 -93 -44 -93 -9 0 1 84 14 119 11 31 29 16 30 -26z
m-3134 -33 c23 -35 42 -68 42 -72 0 -5 -12 -1 -27 8 -16 9 -7 -1 18 -24 30
-27 55 -63 74 -104 15 -35 37 -76 48 -92 36 -50 127 -260 117 -266 -6 -4 -2
-14 11 -26 19 -17 49 -75 49 -95 0 -27 -23 0 -58 69 -86 171 -307 541 -362
607 -31 37 -32 45 -8 55 39 15 51 7 96 -60z m5936 36 c-6 -16 -24 -23 -24 -8
0 10 22 33 27 28 2 -2 1 -11 -3 -20z m-5538 -102 c54 -114 64 -152 27 -98 -10
14 -28 36 -40 49 -14 13 -23 34 -23 52 0 17 -7 49 -15 72 -26 75 -4 43 51 -75z
m4816 70 c-6 -68 -21 -110 -58 -158 -20 -26 -38 -45 -40 -43 -5 4 30 114 63
205 19 52 39 50 35 -4z m-126 -9 c-15 -77 -110 -342 -132 -366 -10 -11 -19
-18 -21 -16 -2 2 19 66 47 142 28 75 49 142 48 147 -2 6 -22 -31 -43 -82 -31
-73 -41 -87 -43 -67 -4 34 49 145 89 188 18 19 36 46 41 62 14 38 21 34 14 -8z
m409 -23 c-21 -39 -55 -89 -55 -79 0 4 12 36 27 72 18 45 30 62 37 55 7 -7 4
-22 -9 -48z m131 -2 c-31 -89 -48 -78 -25 16 8 31 17 44 29 44 16 0 15 -4 -4
-60z m-1316 36 c0 -7 -14 -30 -30 -52 -17 -21 -38 -53 -47 -72 -18 -37 -33
-28 -33 20 0 19 14 39 51 72 56 51 59 52 59 32z m945 4 c6 -10 -24 -64 -32
-56 -3 3 -2 18 2 35 7 31 19 39 30 21z m600 -81 c-15 -59 -90 -194 -122 -221
-10 -8 -12 -4 -8 18 3 16 12 63 20 104 13 71 16 78 65 123 29 26 54 46 57 44
2 -3 -3 -33 -12 -68z m-1948 29 c-3 -7 -5 -2 -5 12 0 14 2 19 5 13 2 -7 2 -19
0 -25z m1392 6 c-17 -21 -31 -17 -19 6 6 11 15 18 21 14 6 -4 6 -11 -2 -20z
m105 -51 c-25 -65 -54 -123 -39 -78 4 11 11 45 17 75 12 64 14 70 33 70 11 0
8 -15 -11 -67z m-39 3 c-7 -30 -21 -75 -30 -100 -9 -24 -15 -49 -11 -54 3 -5
-11 -27 -32 -50 -20 -22 -50 -59 -66 -81 -51 -71 -54 -58 -20 91 19 81 121
248 152 248 18 0 19 -3 7 -54z m585 27 c-1 -15 -49 -98 -50 -86 0 21 31 93 41
93 5 0 9 -3 9 -7z m-2950 -29 c0 -14 -4 -23 -10 -19 -5 3 -10 15 -10 26 0 10
5 19 10 19 6 0 10 -12 10 -26z m-2526 -10 c3 -9 6 -23 6 -32 -1 -12 -5 -10
-15 8 -8 14 -14 28 -15 33 0 13 18 7 24 -9z m2185 -38 c-9 -8 -10 -7 -5 7 3
10 7 24 7 30 1 7 3 4 6 -7 3 -10 -1 -23 -8 -30z m2881 -55 c-9 -55 -20 -82
-48 -121 -58 -77 -51 -29 16 121 11 24 23 53 26 63 14 41 17 4 6 -63z m-970
54 c0 -9 -7 -31 -14 -50 -19 -45 -38 -47 -24 -2 5 17 12 40 15 50 7 21 23 23
23 2z m1150 -103 c-20 -109 -39 -160 -55 -152 -12 6 -11 10 22 130 45 165 63
176 33 22z m-5130 56 c0 -5 16 -31 35 -59 32 -47 42 -69 31 -69 -8 0 -96 150
-96 163 1 13 30 -22 30 -35z m201 -26 c-8 -3 -5 -15 8 -35 24 -39 38 -107 22
-107 -9 0 -41 88 -46 130 -1 8 -6 23 -10 33 -4 9 -4 25 0 35 6 14 10 11 22
-18 10 -24 12 -35 4 -38z m3360 -9 c-9 -16 -10 -15 -11 9 0 14 3 35 8 45 6 15
8 14 10 -9 2 -15 -1 -35 -7 -45z m-3680 -121 c42 -112 45 -138 13 -111 -32 27
-105 219 -103 274 0 31 55 -66 90 -163z m-277 114 c9 -14 16 -33 16 -42 0 -10
7 -25 15 -34 8 -8 22 -34 31 -55 16 -40 16 -40 -4 -22 -11 10 -41 59 -67 108
-35 69 -42 88 -27 80 10 -6 27 -21 36 -35z m4990 22 c-13 -45 -134 -252 -134
-232 0 32 120 254 137 254 2 0 1 -10 -3 -22z m-4874 -65 c0 -22 -8 -14 -19 20
-10 29 -9 30 4 13 8 -11 15 -26 15 -33z m385 16 c9 -17 14 -36 12 -42 -3 -9
-37 54 -37 69 0 12 12 0 25 -27z m3845 -20 c-7 -11 -14 -18 -17 -15 -3 3 0 12
7 21 18 21 23 19 10 -6z m-1890 -96 l-21 -38 6 42 c3 23 10 54 17 70 l12 28 4
-32 c2 -19 -5 -47 -18 -70z m257 55 c-3 -8 -6 -5 -6 6 -1 11 2 17 5 13 3 -3 4
-12 1 -19z m-1941 -76 c6 -73 -12 -38 -21 40 -5 42 -4 49 5 35 6 -10 14 -44
16 -75z m4322 -2 c-19 -57 -22 -61 -30 -40 -5 12 -6 31 -3 41 7 21 46 72 51
66 2 -2 -6 -32 -18 -67z m348 4 c-8 -31 -22 -64 -30 -72 -13 -13 -13 -8 0 44
17 63 33 99 40 91 3 -3 -2 -31 -10 -63z m-5106 2 c22 -50 37 -120 20 -94 -6
10 -22 47 -36 83 -26 71 -14 80 16 11z m4640 51 c0 -8 -32 -116 -46 -154 -16
-45 -36 -60 -27 -20 4 17 0 15 -21 -12 -14 -19 -26 -31 -26 -25 0 16 103 214
112 214 4 0 8 -1 8 -3z m-1098 -42 c-2 -14 -8 -28 -13 -31 -10 -6 -12 26 -3
50 9 24 22 10 16 -19z m-3769 -5 c3 -11 2 -18 -3 -15 -4 3 -10 14 -13 25 -3
11 -2 18 3 15 4 -3 10 -14 13 -25z m5248 -72 c-17 -36 -20 -39 -21 -18 0 25
28 76 37 67 2 -3 -5 -25 -16 -49z m-306 -10 c-11 -71 -25 -108 -47 -119 -19
-10 -21 -9 -15 17 7 36 54 144 63 144 3 0 3 -19 -1 -42z m461 -42 c-15 -45
-25 -63 -29 -53 -7 18 8 70 31 105 23 36 23 21 -2 -52z m-5298 -18 c25 -43 42
-85 42 -103 l0 -30 -20 25 c-40 50 -92 180 -73 180 5 0 27 -33 51 -72z m-285
-161 c126 -151 211 -284 243 -380 35 -106 73 -250 68 -259 -3 -4 -16 -3 -29 2
-35 13 -31 6 8 -18 32 -19 34 -23 51 -123 28 -177 47 -423 30 -406 -4 3 -24
73 -45 154 -100 388 -268 795 -459 1112 -44 73 -80 136 -80 140 0 12 135 -129
213 -222z m5058 186 c-12 -20 -14 -14 -5 12 4 9 9 14 11 11 3 -2 0 -13 -6 -23z
m-4981 -43 c26 -51 26 -68 -1 -44 -19 17 -59 84 -59 99 0 18 43 -22 60 -55z
m108 35 c-3 -3 -9 2 -12 12 -6 14 -5 15 5 6 7 -7 10 -15 7 -18z m5602 -13 c0
-5 -13 -21 -30 -37 -35 -33 -39 -26 -9 16 19 28 39 38 39 21z m-771 -56 c-9
-8 -10 -7 -5 7 3 10 7 24 7 30 1 7 3 4 6 -7 3 -10 -1 -23 -8 -30z m442 1 c-16
-16 -26 0 -10 19 9 11 15 12 17 4 2 -6 -1 -17 -7 -23z m75 3 c-3 -16 -9 -43
-12 -59 -3 -16 -12 -32 -20 -35 -13 -5 -14 0 -9 27 8 35 34 97 42 97 2 0 2
-13 -1 -30z m-171 -12 c-8 -36 -25 -62 -25 -37 0 15 22 69 28 69 2 0 1 -15 -3
-32z m-5244 -171 c11 -22 19 -41 17 -43 -2 -2 -27 27 -55 64 -28 37 -65 80
-82 96 -17 17 -31 34 -31 40 0 18 131 -118 151 -157z m537 111 c18 -68 -1 -40
-23 32 -5 17 -4 22 3 15 6 -5 15 -27 20 -47z m5048 -92 c-26 -69 -46 -132 -46
-139 0 -14 -48 -72 -55 -66 -3 4 8 86 26 189 11 58 17 69 63 113 28 26 52 44
54 39 2 -6 -17 -67 -42 -136z m-5557 52 c30 -64 33 -87 6 -52 -21 26 -55 91
-55 104 0 27 22 4 49 -52z m4907 20 c-15 -21 -16 -22 -16 -2 0 11 6 26 12 32
19 19 22 -4 4 -30z m-4576 -57 c0 -16 3 -36 6 -45 3 -9 2 -16 -4 -16 -6 0 -22
35 -36 78 l-26 77 30 -33 c19 -20 30 -43 30 -61z m4471 46 c-29 -29 -36 -16
-9 18 14 18 23 24 26 16 2 -7 -5 -22 -17 -34z m-4561 -54 c0 -7 -4 -13 -9 -13
-10 0 -21 36 -20 65 0 16 4 13 14 -10 8 -16 14 -36 15 -42z m5116 -10 c-6 -48
-29 -93 -46 -93 -24 0 -4 88 27 122 24 27 26 23 19 -29z m-231 0 c-19 -44 -35
-64 -35 -42 0 15 36 79 45 79 3 0 -2 -17 -10 -37z m68 5 c-9 -47 -29 -92 -47
-108 -14 -10 -16 -10 -16 6 1 31 51 134 66 134 2 0 1 -15 -3 -32z m-393 -15
c0 -23 -56 -112 -71 -113 -15 0 10 93 31 115 30 32 40 32 40 -2z m56 -22 c-3
-21 -15 -58 -26 -82 l-20 -44 4 45 c3 46 29 120 42 120 4 0 4 -18 0 -39z
m-4741 -42 c23 -68 13 -72 -14 -7 -38 89 -37 85 -18 70 9 -8 23 -36 32 -63z
m94 24 c6 -20 8 -39 6 -41 -5 -6 -35 61 -35 78 0 23 20 -2 29 -37z m5066 -42
c-18 -74 -55 -128 -55 -80 0 22 35 117 54 147 17 27 17 1 1 -67z m-4681 33
c10 -25 -1 -29 -14 -5 -6 12 -7 21 -1 21 5 0 12 -7 15 -16z m4103 -74 c-4 -30
-16 -65 -32 -87 l-27 -38 7 40 c3 22 13 50 21 62 8 12 14 31 14 41 0 18 8 32
18 32 3 0 2 -22 -1 -50z m-4617 -2 c0 -6 -7 -5 -15 2 -8 7 -15 17 -15 22 0 6
7 5 15 -2 8 -7 15 -17 15 -22z m4660 -88 l-30 -85 3 61 c2 43 10 72 27 100 36
57 36 24 0 -76z m-4619 -6 c12 -25 18 -48 15 -51 -7 -7 -5 -10 -34 43 -25 47
-26 54 -11 54 5 0 19 -21 30 -46z m503 30 c5 -14 4 -15 -9 -4 -17 14 -19 20
-6 20 5 0 12 -7 15 -16z m-330 -81 c9 -26 16 -55 16 -66 0 -33 -27 -1 -35 41
-3 20 -9 48 -12 61 -10 42 14 14 31 -36z m5173 4 c-11 -52 -27 -63 -27 -19 0
24 27 78 35 70 2 -2 -2 -24 -8 -51z m-791 -49 c-8 -75 -22 -114 -56 -158 l-19
-25 6 70 c5 64 51 185 69 185 4 0 3 -33 0 -72z m545 11 c-10 -23 -10 -23 -10
7 -1 17 2 34 7 38 11 12 14 -18 3 -45z m-171 12 c0 -23 -45 -79 -55 -69 -11
11 34 87 53 88 1 0 2 -9 2 -19z m244 -35 c-4 -26 -15 -57 -25 -69 -18 -22 -18
-22 -12 18 6 45 31 111 38 103 3 -3 2 -26 -1 -52z m100 -40 c-4 -31 -9 -54
-12 -52 -2 3 -1 30 3 61 3 31 9 55 11 52 3 -2 2 -30 -2 -61z m-5030 -13 c4
-14 3 -23 -3 -23 -9 0 -31 61 -31 85 1 12 25 -32 34 -62z m4712 -4 c-9 -27
-14 -36 -15 -22 -1 24 17 78 24 71 3 -2 -1 -24 -9 -49z m98 -6 c-6 -43 -39
-133 -48 -133 -7 0 26 156 36 167 17 21 20 15 12 -34z m-193 -113 c-21 -61
-30 -77 -30 -55 -1 44 14 101 35 133 28 43 26 13 -5 -78z m-265 54 c-4 -9 -9
-15 -11 -12 -3 3 -3 13 1 22 4 9 9 15 11 12 3 -3 3 -13 -1 -22z m-625 -54 c-9
-24 -10 -24 -10 7 -1 17 2 40 7 50 6 15 7 14 10 -7 2 -14 -2 -37 -7 -50z
m1170 3 c-10 -17 -10 -16 -11 3 0 23 13 41 18 25 2 -6 -1 -18 -7 -28z m-4921
-69 c0 -18 3 -40 7 -50 4 -11 3 -15 -4 -11 -6 4 -14 26 -18 50 -3 23 -9 51
-11 62 -5 20 -5 20 10 1 9 -11 16 -34 16 -52z m4985 -39 l-13 -100 5 95 c5 87
10 116 18 108 2 -2 -3 -48 -10 -103z m-113 -27 c-7 -7 -12 -8 -12 -2 0 14 12
26 19 19 2 -3 -1 -11 -7 -17z m-1201 -45 c-10 -17 -10 -16 -11 3 0 23 13 41
18 25 2 -6 -1 -18 -7 -28z m1024 -30 c-8 -75 -24 -133 -34 -133 -5 0 -4 19 1
43 5 23 14 66 20 95 15 69 22 66 13 -5z m-4756 -252 c2 -91 -6 -52 -12 59 -4
74 -3 89 3 50 4 -30 8 -79 9 -109z m165 98 c10 -51 7 -246 -4 -228 -14 24 -25
259 -13 259 6 0 13 -14 17 -31z"/>
<path d="M7722 6420 c0 -14 2 -19 5 -12 2 6 2 18 0 25 -3 6 -5 1 -5 -13z"/>
<path d="M4000 7296 c0 -8 -3 -23 -6 -33 -5 -12 -4 -15 3 -8 16 15 26 55 14
55 -6 0 -11 -6 -11 -14z"/>
<path d="M5891 7024 c0 -11 3 -14 6 -6 3 7 2 16 -1 19 -3 4 -6 -2 -5 -13z"/>
<path d="M6959 6453 c-56 -58 -87 -108 -76 -119 3 -3 11 -3 17 1 19 12 122
155 118 166 -2 5 -28 -17 -59 -48z"/>
<path d="M6892 6125 c0 -16 2 -22 5 -12 2 9 2 23 0 30 -3 6 -5 -1 -5 -18z"/>
<path d="M4063 6495 c0 -22 2 -30 4 -17 2 12 2 30 0 40 -3 9 -5 -1 -4 -23z"/>
<path d="M8120 6400 c0 -5 5 -10 11 -10 5 0 7 5 4 10 -3 6 -8 10 -11 10 -2 0
-4 -4 -4 -10z"/>
<path d="M8063 6338 c-42 -45 -60 -78 -42 -78 11 0 37 29 76 87 31 46 15 41
-34 -9z"/>
<path d="M7272 6360 c0 -19 2 -27 5 -17 2 9 2 25 0 35 -3 9 -5 1 -5 -18z"/>
<path d="M7247 6291 c-2 -10 -1 -25 4 -32 6 -10 9 -4 9 19 0 36 -5 42 -13 13z"/>
<path d="M4597 6469 c-3 -11 1 -35 8 -52 l14 -32 1 47 c0 49 -14 72 -23 37z"/>
<path d="M5110 6111 c0 -25 6 -27 13 -6 4 8 2 17 -3 20 -6 4 -10 -3 -10 -14z"/>
<path d="M2412 4830 c0 -19 2 -27 5 -17 2 9 2 25 0 35 -3 9 -5 1 -5 -18z"/>
<path d="M2423 4735 c0 -22 2 -30 4 -17 2 12 2 30 0 40 -3 9 -5 -1 -4 -23z"/>
<path d="M6327 10895 c-4 -16 -11 -47 -16 -67 -5 -22 -5 -36 0 -32 5 3 9 14 9
25 0 11 5 29 11 40 5 11 9 30 7 42 -3 19 -5 18 -11 -8z"/>
<path d="M1821 10624 c0 -11 3 -14 6 -6 3 7 2 16 -1 19 -3 4 -6 -2 -5 -13z"/>
<path d="M6919 10614 c-50 -58 -219 -376 -219 -412 0 -25 105 144 198 321 43
82 54 128 21 91z"/>
<path d="M1842 10550 c0 -19 2 -27 5 -17 2 9 2 25 0 35 -3 9 -5 1 -5 -18z"/>
<path d="M3830 10531 c0 -7 7 -42 15 -79 8 -37 16 -85 18 -107 3 -31 4 -28 5
17 1 31 -5 83 -13 114 -14 56 -25 79 -25 55z"/>
<path d="M5431 10444 c0 -11 3 -14 6 -6 3 7 2 16 -1 19 -3 4 -6 -2 -5 -13z"/>
<path d="M8590 10241 c0 -5 7 -15 17 -22 15 -13 15 -12 4 9 -12 23 -21 28 -21
13z"/>
<path d="M8934 10168 l-29 -31 32 22 c35 23 50 41 35 41 -4 0 -21 -14 -38 -32z"/>
<path d="M8173 10168 c-13 -16 -15 -119 -3 -133 5 -6 21 -47 35 -92 19 -60 33
-88 56 -107 17 -14 35 -26 41 -26 7 0 7 -4 0 -12 -10 -12 -15 -57 -13 -105 1
-12 11 -33 24 -46 30 -32 47 -63 47 -87 0 -11 8 -23 18 -26 9 -3 40 -16 67
-29 28 -13 67 -29 88 -36 25 -9 37 -19 37 -32 0 -10 8 -30 19 -43 11 -14 17
-35 15 -53 -4 -36 11 -49 25 -22 6 11 20 23 31 26 11 3 20 13 20 21 0 8 5 14
10 14 6 0 10 26 10 58 0 31 3 67 6 80 l7 23 11 -23 c17 -35 48 -33 84 4 61 63
71 71 88 64 25 -9 45 12 38 40 -4 15 1 34 12 51 25 40 20 118 -12 164 -13 19
-51 52 -83 73 -57 38 -59 39 -55 78 2 22 6 44 9 49 4 5 -3 9 -14 9 -11 0 -23
-5 -27 -11 -3 -6 -17 -9 -30 -6 -20 4 -22 2 -13 -16 8 -15 7 -23 -5 -35 -14
-15 -18 -14 -43 10 -56 54 -379 188 -451 188 -22 0 -44 -6 -49 -12z"/>
<path d="M6238 9928 c-34 -53 -108 -249 -108 -283 1 -18 72 137 101 219 30 83
32 102 7 64z"/>
<path d="M4980 9891 c-8 -6 -18 -7 -22 -5 -17 11 -78 -18 -97 -45 -11 -16 -23
-47 -27 -69 -5 -35 -11 -42 -35 -47 -32 -7 -34 -12 -15 -38 9 -11 17 -14 20
-8 4 6 13 8 20 5 11 -4 11 -11 0 -42 -18 -50 -19 -272 -1 -296 11 -15 15 -16
47 -2 50 22 141 107 143 134 1 17 7 22 28 22 14 0 35 10 47 23 66 68 70 76 77
139 7 65 24 96 64 118 l24 12 -33 16 c-33 16 -31 16 -120 -16 -13 -5 -13 -3
-2 11 18 21 9 33 -33 47 -19 6 -40 20 -45 31 -12 21 -18 23 -40 10z"/>
<path d="M4252 9830 c0 -19 2 -27 5 -17 2 9 2 25 0 35 -3 9 -5 1 -5 -18z"/>
<path d="M3551 9814 c0 -11 3 -14 6 -6 3 7 2 16 -1 19 -3 4 -6 -2 -5 -13z"/>
<path d="M4105 9708 c2 -70 8 -136 14 -145 16 -28 13 129 -4 207 l-14 65 4
-127z"/>
<path d="M4647 9769 c7 -7 15 -10 18 -7 3 3 -2 9 -12 12 -14 6 -15 5 -6 -5z"/>
<path d="M4695 9560 c-3 -5 -1 -10 4 -10 6 0 11 5 11 10 0 6 -2 10 -4 10 -3 0
-8 -4 -11 -10z"/>
<path d="M5456 9461 c-21 -40 -68 -192 -61 -199 2 -3 7 4 11 14 4 10 15 39 26
64 31 72 50 130 45 143 -2 7 -12 -3 -21 -22z"/>
<path d="M5992 9460 c0 -14 2 -19 5 -12 2 6 2 18 0 25 -3 6 -5 1 -5 -13z"/>
<path d="M7836 9443 c-6 -14 -5 -15 5 -6 7 7 10 15 7 18 -3 3 -9 -2 -12 -12z"/>
<path d="M7790 9379 c-7 -11 -10 -23 -7 -25 2 -2 9 7 15 21 14 30 7 33 -8 4z"/>
<path d="M5962 9315 c0 -16 2 -22 5 -12 2 9 2 23 0 30 -3 6 -5 -1 -5 -18z"/>
<path d="M6296 9325 c-3 -8 -1 -15 4 -15 6 0 10 7 10 15 0 8 -2 15 -4 15 -2 0
-6 -7 -10 -15z"/>
<path d="M4932 9040 c0 -14 2 -19 5 -12 2 6 2 18 0 25 -3 6 -5 1 -5 -13z"/>
<path d="M5152 9000 c0 -14 2 -19 5 -12 2 6 2 18 0 25 -3 6 -5 1 -5 -13z"/>
<path d="M3623 8920 c0 -25 2 -35 4 -22 2 12 2 32 0 45 -2 12 -4 2 -4 -23z"/>
<path d="M5142 8925 c0 -16 2 -22 5 -12 2 9 2 23 0 30 -3 6 -5 -1 -5 -18z"/>
<path d="M5122 8825 c0 -16 2 -22 5 -12 2 9 2 23 0 30 -3 6 -5 -1 -5 -18z"/>
<path d="M3613 8785 c0 -27 2 -38 4 -22 2 15 2 37 0 50 -2 12 -4 0 -4 -28z"/>
<path d="M5107 8745 c-5 -27 -10 -68 -12 -90 -2 -22 -2 -29 1 -15 2 14 9 41
15 60 6 20 9 49 7 65 -3 25 -5 21 -11 -20z"/>
<path d="M3380 8744 c0 -21 58 -147 59 -128 1 17 -31 107 -46 129 -13 19 -13
19 -13 -1z"/>
<path d="M3593 8650 c0 -30 2 -43 4 -27 2 15 2 39 0 55 -2 15 -4 2 -4 -28z"/>
<path d="M3762 8680 c0 -14 2 -19 5 -12 2 6 2 18 0 25 -3 6 -5 1 -5 -13z"/>
<path d="M2505 8631 c12 -38 59 -115 168 -271 110 -159 122 -175 111 -145 -31
83 -224 388 -270 425 -15 14 -16 13 -9 -9z"/>
<path d="M5856 8585 c-9 -26 -7 -32 5 -12 6 10 9 21 6 23 -2 3 -7 -2 -11 -11z"/>
<path d="M7512 8510 c0 -14 2 -19 5 -12 2 6 2 18 0 25 -3 6 -5 1 -5 -13z"/>
<path d="M3770 8476 c0 -8 4 -17 9 -20 5 -4 7 3 4 14 -6 23 -13 26 -13 6z"/>
<path d="M5433 8430 c0 -30 2 -43 4 -27 2 15 2 39 0 55 -2 15 -4 2 -4 -28z"/>
<path d="M3791 8414 c0 -11 3 -14 6 -6 3 7 2 16 -1 19 -3 4 -6 -2 -5 -13z"/>
<path d="M2832 8395 c0 -16 2 -22 5 -12 2 9 2 23 0 30 -3 6 -5 -1 -5 -18z"/>
<path d="M7476 8362 c-4 -29 -6 -56 -3 -59 8 -8 19 60 15 88 -3 15 -7 5 -12
-29z"/>
<path d="M8070 8378 c-12 -22 -12 -22 6 -6 10 10 15 20 12 24 -4 3 -12 -5 -18
-18z"/>
<path d="M3806 8355 c17 -73 43 -148 43 -125 1 28 -23 111 -39 138 -8 13 -9
11 -4 -13z"/>
<path d="M5453 8290 c0 -36 2 -50 4 -32 2 17 2 47 0 65 -2 17 -4 3 -4 -33z"/>
<path d="M2842 8240 c0 -19 2 -27 5 -17 2 9 2 25 0 35 -3 9 -5 1 -5 -18z"/>
<path d="M1639 8163 c-7 -51 45 -181 82 -207 15 -10 22 -27 23 -58 1 -32 9
-50 29 -70 15 -15 27 -33 27 -40 0 -8 27 -22 65 -33 36 -11 65 -25 65 -31 0
-6 7 -17 15 -24 8 -7 15 -23 15 -36 0 -13 5 -24 10 -24 6 0 10 5 10 11 0 6 7
17 15 25 9 10 15 35 16 67 0 29 3 46 6 40 8 -22 30 -14 58 22 15 19 35 35 43
37 15 3 22 32 22 88 0 46 -22 81 -69 108 -32 19 -47 34 -49 51 -3 31 -5 33
-26 25 -9 -3 -16 -15 -16 -25 0 -23 -1 -23 -42 0 -79 47 -295 100 -299 74z"/>
<path d="M2855 8093 c4 -10 11 -54 15 -98 l7 -80 1 75 c2 82 -5 120 -20 120
-6 0 -7 -8 -3 -17z"/>
<path d="M4467 7794 c-4 -4 -7 -98 -6 -208 l1 -201 14 80 c26 145 20 358 -9
329z"/>
<path d="M4784 7735 c-3 -8 -4 -20 -2 -27 3 -7 7 -1 10 15 6 29 1 36 -8 12z"/>
<path d="M5083 7665 c-35 -69 -108 -283 -99 -292 3 -3 10 5 15 19 5 13 23 55
41 93 46 102 82 204 78 223 -3 11 -15 -5 -35 -43z"/>
<path d="M4871 7685 c0 -16 4 -37 9 -45 8 -12 10 -11 9 5 -1 11 -5 31 -9 45
-8 24 -8 24 -9 -5z"/>
<path d="M8615 7669 c-4 -6 -5 -12 -2 -15 2 -3 7 2 10 11 7 17 1 20 -8 4z"/>
<path d="M4725 7600 c-3 -5 -1 -10 4 -10 6 0 11 5 11 10 0 6 -2 10 -4 10 -3 0
-8 -4 -11 -10z"/>
<path d="M6466 7544 c-9 -24 -2 -26 12 -4 7 11 8 20 3 20 -5 0 -12 -7 -15 -16z"/>
<path d="M6787 7410 c-40 -53 -182 -329 -174 -337 10 -9 145 216 192 320 15
32 25 60 23 62 -2 3 -21 -18 -41 -45z"/>
<path d="M4862 7365 c0 -16 2 -22 5 -12 2 9 2 23 0 30 -3 6 -5 -1 -5 -18z"/>
<path d="M3852 7345 c0 -16 2 -22 5 -12 2 9 2 23 0 30 -3 6 -5 -1 -5 -18z"/>
<path d="M4471 7354 c0 -11 3 -14 6 -6 3 7 2 16 -1 19 -3 4 -6 -2 -5 -13z"/>
<path d="M4851 7304 c0 -11 3 -14 6 -6 3 7 2 16 -1 19 -3 4 -6 -2 -5 -13z"/>
<path d="M7740 7249 c-7 -11 -10 -23 -7 -25 2 -2 9 7 15 21 14 30 7 33 -8 4z"/>
<path d="M4832 7225 c0 -16 2 -22 5 -12 2 9 2 23 0 30 -3 6 -5 -1 -5 -18z"/>
<path d="M6497 7193 c-4 -3 -7 -11 -7 -17 0 -6 5 -5 12 2 6 6 9 14 7 17 -3 3
-9 2 -12 -2z"/>
<path d="M7305 7180 c-3 -5 -1 -10 4 -10 6 0 11 5 11 10 0 6 -2 10 -4 10 -3 0
-8 -4 -11 -10z"/>
<path d="M7270 7149 c0 -5 5 -7 10 -4 6 3 10 8 10 11 0 2 -4 4 -10 4 -5 0 -10
-5 -10 -11z"/>
<path d="M4632 7080 c0 -14 2 -19 5 -12 2 6 2 18 0 25 -3 6 -5 1 -5 -13z"/>
<path d="M7605 7031 c-8 -16 -20 -35 -28 -43 -18 -18 -130 -228 -125 -234 3
-2 15 19 28 46 13 28 29 50 35 50 6 0 22 26 35 57 13 31 30 65 38 74 16 19 44
79 37 79 -3 0 -11 -13 -20 -29z"/>
<path d="M2241 6814 c0 -11 3 -14 6 -6 3 7 2 16 -1 19 -3 4 -6 -2 -5 -13z"/>
<path d="M6626 6785 c-9 -26 -7 -32 5 -12 6 10 9 21 6 23 -2 3 -7 -2 -11 -11z"/>
<path d="M2269 6728 c4 -28 6 -29 9 -9 2 13 0 27 -5 32 -6 6 -7 -3 -4 -23z"/>
<path d="M2291 6658 c1 -7 5 -24 9 -38 8 -24 8 -24 9 7 1 17 -3 35 -9 38 -5 3
-10 0 -9 -7z"/>
<path d="M2321 6560 c0 -14 4 -34 9 -45 7 -17 9 -16 9 10 0 17 -4 37 -9 45 -8
12 -10 10 -9 -10z"/>
<path d="M2491 6544 c0 -11 3 -14 6 -6 3 7 2 16 -1 19 -3 4 -6 -2 -5 -13z"/>
<path d="M2351 6465 c0 -16 4 -39 9 -50 7 -17 9 -16 9 10 0 17 -4 39 -9 50 -7
17 -9 16 -9 -10z"/>
<path d="M10213 6086 c-72 -39 -184 -109 -237 -150 -30 -24 -14 -36 24 -17 48
24 109 59 145 82 17 10 37 22 45 26 25 13 104 67 124 86 20 17 20 17 0 16 -10
0 -56 -20 -101 -43z"/>
<path d="M8405 5398 c-37 -44 -77 -141 -71 -175 3 -24 1 -33 -9 -33 -19 0 -55
-48 -55 -74 0 -11 -6 -33 -14 -48 -8 -14 -11 -30 -7 -35 4 -4 15 -29 24 -54
19 -49 14 -100 -9 -120 -23 -19 -16 -26 22 -23 25 2 47 13 70 35 32 31 34 31
34 11 0 -19 6 -22 38 -23 20 -1 41 -1 46 0 5 1 13 -4 17 -11 7 -10 12 -11 26
0 10 6 28 16 39 21 12 5 31 22 44 38 20 25 22 36 17 95 -5 62 -4 69 16 83 19
13 20 17 7 25 -8 6 -27 7 -42 4 -26 -5 -28 -3 -28 26 0 17 -16 72 -35 122 -60
156 -88 184 -130 136z"/>
<path d="M1719 4997 c-31 -18 -62 -37 -70 -43 -8 -6 -30 -14 -50 -18 -44 -8
-92 -57 -109 -111 -7 -22 -20 -54 -28 -71 -18 -38 -11 -113 13 -130 8 -6 25
-40 37 -75 11 -35 25 -70 31 -76 18 -24 49 -13 93 33 51 53 69 85 79 137 5 23
14 38 27 43 14 4 16 9 8 19 -7 9 -1 32 26 88 36 77 63 190 51 220 -10 25 -46
20 -108 -16z"/>
<path d="M8165 4905 c-24 -25 -33 -41 -25 -43 16 -6 73 54 67 71 -2 7 -19 -4
-42 -28z"/>
<path d="M9380 4013 c-80 -52 -100 -67 -100 -75 0 -9 104 53 130 78 19 19 1
17 -30 -3z"/>
<path d="M450 3986 c27 -25 130 -87 130 -77 0 5 -29 28 -65 50 -66 42 -91 52
-65 27z"/>
<path d="M1589 3483 c12 -18 24 -33 27 -33 9 0 -15 37 -33 51 -12 10 -11 5 6
-18z"/>
<path d="M1820 3493 c0 -7 11 -25 25 -40 32 -36 32 -17 0 22 -13 17 -24 25
-25 18z"/>
<path d="M644 3381 c7 -10 99 -75 136 -96 8 -4 2 6 -13 22 -29 31 -136 96
-123 74z"/>
<path d="M1530 2822 c0 -5 7 -15 15 -22 8 -7 15 -8 15 -2 0 5 -7 15 -15 22 -8
7 -15 8 -15 2z"/>
<path d="M7820 2810 c-14 -11 -20 -20 -15 -20 6 0 21 9 35 20 14 11 21 20 15
20 -5 0 -21 -9 -35 -20z"/>
</g>
</svg>
