<?xml version="1.0" standalone="no"?>
<!DOCTYPE svg PUBLIC "-//W3C//DTD SVG 20010904//EN"
 "http://www.w3.org/TR/2001/REC-SVG-20010904/DTD/svg10.dtd">
<svg version="1.0" xmlns="http://www.w3.org/2000/svg"
 width="1280.000000pt" height="831.000000pt" viewBox="0 0 1280.000000 831.000000"
 preserveAspectRatio="xMidYMid meet">
<metadata>
Created by potrace 1.15, written by Peter Selinger 2001-2017
</metadata>
<g transform="translate(0.000000,831.000000) scale(0.100000,-0.100000)"
fill="#0000FF" stroke="none">
<path d="M7903 8289 c-163 -81 -222 -287 -120 -421 40 -52 78 -75 148 -88 104
-20 240 -106 226 -144 -9 -24 -43 -16 -192 46 -132 55 -200 91 -288 152 -56
40 -62 41 -150 45 -51 2 -123 -2 -160 -9 -56 -10 -75 -19 -107 -49 -68 -65
-76 -169 -23 -313 40 -109 108 -202 268 -369 81 -85 247 -262 369 -394 121
-132 261 -281 311 -331 156 -157 455 -364 581 -403 74 -22 172 -72 336 -168
102 -60 135 -85 164 -124 52 -71 104 -179 104 -215 0 -57 -141 -203 -237 -246
-23 -10 -53 -32 -67 -48 -13 -17 -36 -34 -51 -40 -39 -15 -226 -30 -373 -30
-188 0 -412 -18 -512 -41 -126 -30 -235 -46 -388 -59 -300 -24 -352 -33 -352
-60 0 -27 136 -50 306 -51 147 0 166 4 158 35 -5 20 -2 21 98 21 57 1 155 5
219 9 l115 9 46 -47 c35 -35 53 -46 76 -46 18 0 43 -10 60 -25 38 -32 104 -33
258 -5 182 33 244 60 244 107 0 19 9 28 43 43 53 23 183 48 296 56 83 7 87 8
123 45 38 40 52 74 63 152 4 30 10 45 17 41 19 -12 97 -188 105 -239 7 -39 13
-51 29 -53 11 -2 90 31 175 73 85 41 178 83 207 92 34 11 74 36 111 68 77 66
203 205 251 278 34 50 38 61 29 85 -13 39 -92 113 -163 156 -128 77 -172 19
-50 -65 42 -29 45 -33 30 -45 -16 -11 -14 -15 18 -41 40 -31 45 -43 18 -43
-25 0 -47 -26 -62 -73 -12 -38 -28 -50 -82 -61 -21 -5 -28 -12 -28 -30 0 -40
-72 -127 -117 -140 -25 -8 -115 21 -223 70 -190 88 -242 156 -150 194 16 7 30
16 30 19 0 14 -56 59 -132 105 -98 60 -167 121 -184 163 -11 25 -23 35 -56 44
-127 33 -318 138 -318 174 0 25 26 65 43 65 6 0 26 -15 44 -32 27 -26 37 -30
51 -22 25 16 21 54 -9 76 -35 26 -107 25 -199 -3 -95 -29 -131 -23 -266 45
-127 65 -193 118 -174 140 9 11 18 13 37 5 58 -22 50 35 -10 71 -46 29 -60 26
-52 -9 5 -24 2 -30 -14 -36 -33 -10 -119 33 -147 74 -32 47 -30 66 6 93 35 26
38 43 9 58 -26 15 -49 6 -49 -18 0 -25 -23 -44 -44 -36 -9 4 -35 34 -58 68
-60 90 -179 223 -423 476 -244 253 -285 305 -285 364 0 45 62 166 85 166 8 0
24 -18 35 -40 21 -41 25 -43 72 -40 15 1 73 -17 129 -39 115 -46 139 -49 200
-21 60 27 71 26 59 -5 -11 -28 6 -51 46 -61 41 -10 81 3 135 46 64 51 77 51
307 4 353 -71 502 -117 561 -172 22 -21 86 -66 143 -101 158 -98 242 -165 368
-291 76 -75 141 -153 189 -224 138 -203 255 -326 333 -347 22 -6 50 -22 62
-36 69 -82 72 -85 119 -94 76 -14 206 -80 272 -139 89 -78 175 -115 325 -140
151 -25 216 -42 295 -75 66 -27 125 -33 125 -12 0 37 -127 106 -285 156 -179
58 -218 73 -350 135 -157 75 -332 177 -480 281 -143 100 -216 164 -272 239
-62 82 -123 146 -150 157 -13 5 -23 16 -23 24 0 75 -171 235 -388 364 -64 39
-142 90 -172 116 -30 25 -89 62 -130 83 -41 20 -127 75 -190 121 -151 111
-259 181 -345 223 -101 51 -309 128 -344 128 -39 0 -44 11 -31 60 15 54 8 62
-42 44 -23 -8 -43 -12 -46 -10 -2 3 8 20 22 39 34 44 33 73 -5 108 -30 28 -73
42 -114 36 -16 -2 -21 5 -23 31 -6 59 8 66 133 58 144 -8 368 -40 465 -67 252
-68 686 -352 1046 -686 136 -126 220 -223 354 -413 210 -297 410 -549 559
-704 170 -176 395 -290 636 -322 276 -36 521 -136 673 -273 242 -219 509 -500
606 -639 32 -45 71 -91 87 -102 41 -30 76 -84 173 -270 l85 -162 -32 -27 c-88
-72 -137 -125 -137 -148 0 -13 11 -46 25 -73 36 -71 33 -91 -28 -168 -30 -37
-72 -95 -95 -128 -27 -40 -58 -72 -91 -92 -98 -61 -225 -80 -274 -42 -33 26
-73 25 -151 -4 -107 -41 -216 -120 -232 -168 -9 -30 -1 -31 62 -5 77 32 114
40 195 39 77 -1 99 -10 146 -59 35 -38 45 -39 145 -7 106 34 299 188 314 250
3 16 17 45 30 65 14 20 29 62 34 93 10 61 33 107 75 146 120 113 126 336 15
565 -90 188 -242 374 -595 734 -440 447 -500 483 -946 566 -273 51 -357 81
-478 170 -171 126 -453 446 -731 829 -77 107 -162 208 -262 310 -221 230 -458
431 -538 458 -19 6 -53 30 -76 53 -49 51 -232 161 -415 250 -105 51 -148 66
-194 70 -74 7 -164 19 -325 45 -159 25 -205 25 -257 -1z m-375 -540 c62 -30
106 -108 68 -122 -7 -3 -26 1 -42 9 -31 16 -134 113 -134 126 0 16 65 8 108
-13z m929 -146 c7 -19 -38 -63 -66 -63 -38 0 -56 50 -23 69 28 17 82 13 89 -6z
m101 -52 c5 -29 -16 -53 -41 -49 -29 4 -31 20 -6 52 24 31 42 30 47 -3z m255
-2537 c20 -4 37 -10 37 -14 0 -20 -109 -54 -185 -57 -68 -4 -85 -1 -113 17
-64 40 -27 57 128 59 52 0 112 -2 133 -5z"/>
<path d="M8240 7317 c0 -7 20 -33 45 -57 50 -49 54 -60 26 -60 -25 0 -50 -35
-44 -61 7 -24 42 -25 86 -3 37 19 77 53 77 66 0 14 -62 68 -103 89 -64 33 -87
40 -87 26z"/>
<path d="M8566 7039 c-47 -56 -27 -92 70 -123 120 -38 118 -72 -10 -158 -20
-14 17 -28 74 -28 30 0 86 -3 124 -7 67 -6 70 -8 122 -60 30 -29 54 -58 54
-64 0 -7 -31 -8 -93 -3 -67 5 -100 3 -117 -6 -22 -12 -22 -12 -4 -31 13 -12
46 -22 99 -30 157 -22 221 -38 246 -65 23 -24 23 -25 3 -44 -13 -13 -41 -21
-94 -27 -85 -9 -101 -29 -40 -50 55 -19 114 -16 142 7 l25 19 46 -30 c51 -34
109 -105 105 -129 -3 -12 -19 -15 -78 -15 -67 0 -75 -2 -75 -19 0 -23 39 -52
82 -61 27 -5 37 -2 59 20 19 19 33 25 49 21 26 -7 95 -79 95 -100 0 -22 -28
-27 -71 -14 -46 13 -55 8 -37 -21 16 -26 67 -51 103 -51 54 0 175 -159 175
-230 0 -61 147 -134 158 -78 2 9 -21 40 -54 73 -45 44 -54 59 -43 66 11 7 3
20 -39 61 -49 48 -52 53 -36 65 23 17 12 38 -75 141 -37 43 -120 147 -185 231
-150 193 -257 314 -465 524 -160 162 -256 247 -279 247 -5 0 -22 -14 -36 -31z"/>
<path d="M8984 7007 c-35 -30 -27 -57 16 -57 59 0 90 36 58 68 -18 18 -44 14
-74 -11z"/>
<path d="M9135 6821 c-18 -30 155 -95 203 -76 15 5 14 8 -8 26 -55 42 -180 74
-195 50z"/>
<path d="M9325 6646 c-19 -14 -19 -15 -2 -34 19 -21 90 -55 140 -67 35 -9 35
6 0 51 -44 58 -100 78 -138 50z"/>
<path d="M9944 5928 c-5 -17 0 -28 21 -45 34 -30 69 -27 73 5 8 52 -78 89 -94
40z"/>
<path d="M11471 5746 c-16 -19 -4 -44 30 -61 33 -18 56 -11 65 18 13 40 -67
77 -95 43z"/>
<path d="M10538 5609 c-10 -5 -22 -27 -28 -49 -6 -24 -22 -48 -41 -62 -95 -71
-107 -101 -40 -98 63 3 70 1 86 -30 46 -89 -3 -201 -136 -305 -33 -26 -59 -51
-59 -56 0 -17 54 -9 90 12 19 12 67 50 105 84 82 73 121 95 170 95 52 0 83
-20 153 -98 42 -48 71 -72 89 -74 57 -7 57 -68 0 -68 -42 0 -90 19 -162 65
-56 36 -115 55 -115 38 0 -22 65 -106 133 -170 62 -58 85 -73 157 -100 47 -17
109 -41 138 -54 40 -18 55 -20 64 -11 18 18 -18 51 -64 58 -43 7 -47 14 -17
32 16 10 20 21 17 50 -2 24 1 36 9 35 85 -17 92 -16 102 9 10 26 29 38 60 38
10 0 28 11 41 25 34 36 32 109 -4 142 -24 22 -26 30 -26 107 0 70 -4 88 -23
117 -35 53 -112 78 -255 86 -64 3 -125 10 -134 15 -11 5 -18 20 -18 37 0 16
-7 34 -16 42 -20 17 -53 -2 -86 -50 -13 -19 -35 -43 -50 -54 -25 -19 -32 -19
-83 -8 -31 7 -59 19 -62 26 -2 8 14 48 37 90 23 41 38 79 35 85 -8 13 -45 12
-67 -1z"/>
<path d="M11275 5571 c-11 -35 40 -110 61 -89 10 10 -15 74 -35 93 -18 16 -20
15 -26 -4z"/>
<path d="M11410 5440 c0 -27 2 -50 5 -50 11 0 26 55 20 77 -10 41 -25 24 -25
-27z"/>
<path d="M11667 5373 c-4 -3 -7 -20 -7 -36 0 -30 2 -31 60 -16 10 3 14 -2 12
-16 -2 -11 -4 -45 -5 -75 -2 -68 35 -154 94 -217 36 -39 40 -49 34 -76 -12
-55 -11 -62 11 -65 30 -4 48 43 39 100 -20 117 -129 338 -191 387 -28 22 -37
25 -47 14z"/>
<path d="M11484 5275 c-8 -20 2 -280 12 -312 19 -67 55 14 55 125 0 124 -44
247 -67 187z"/>
<path d="M5207 5260 c-49 -9 -372 -22 -1007 -40 -436 -13 -561 -23 -715 -55
-66 -13 -194 -34 -285 -45 -91 -11 -200 -28 -242 -36 -295 -58 -771 -293
-1115 -550 -192 -143 -381 -343 -674 -714 -178 -225 -201 -261 -294 -454 -108
-222 -207 -450 -229 -527 -17 -57 -46 -294 -46 -369 l0 -45 20 25 c38 50 72
130 77 182 5 60 68 259 154 488 162 433 178 458 586 888 95 101 194 213 220
250 70 101 99 128 208 195 55 34 134 89 175 122 120 97 166 125 247 152 99 32
186 67 357 143 185 82 256 99 446 109 142 7 158 10 192 33 61 41 203 61 573
78 738 33 1942 45 2225 22 259 -22 446 -46 1005 -131 145 -22 200 -18 200 14
0 45 -127 82 -430 125 -82 12 -242 36 -355 55 -232 38 -315 49 -585 70 -228
19 -641 28 -708 15z"/>
<path d="M12045 5018 c-9 -23 -2 -83 10 -83 14 0 19 75 6 88 -7 7 -12 5 -16
-5z"/>
<path d="M10508 5009 c-24 -14 -23 -36 3 -49 24 -13 119 -4 119 11 0 10 -76
49 -95 48 -5 0 -18 -4 -27 -10z"/>
<path d="M9090 4989 c-8 -14 -8 -24 -1 -33 12 -14 -6 -37 -64 -81 -19 -15 -32
-31 -29 -36 7 -13 171 -11 219 2 42 11 85 44 85 64 0 7 -9 24 -21 39 -48 60
-166 89 -189 45z"/>
<path d="M8065 4934 c-39 -40 24 -58 80 -24 19 12 33 26 29 31 -9 16 -91 10
-109 -7z"/>
<path d="M9435 4910 c11 -77 37 -158 56 -176 17 -16 19 -16 26 2 13 30 8 121
-6 138 -8 9 -22 16 -33 16 -12 0 -25 12 -34 33 l-15 32 6 -45z"/>
<path d="M10667 4902 c-8 -12 18 -78 53 -132 37 -57 72 -85 95 -76 39 15 -7
112 -85 179 -44 38 -55 43 -63 29z"/>
<path d="M9944 4788 c-87 -77 -85 -204 6 -265 57 -39 69 -3 20 61 -17 22 -30
50 -30 62 0 13 22 47 50 80 59 67 64 94 20 94 -19 0 -42 -11 -66 -32z"/>
<path d="M8660 4744 c-108 -61 -105 -79 9 -71 126 8 158 30 111 77 -27 27 -66
25 -120 -6z"/>
<path d="M8100 4741 c-45 -24 -75 -57 -60 -66 14 -9 185 -9 200 0 13 8 -68 84
-90 84 -8 0 -31 -8 -50 -18z"/>
<path d="M9054 4729 c-17 -5 -38 -16 -45 -25 -11 -14 -10 -18 6 -30 25 -19
146 -18 191 1 91 38 -44 86 -152 54z"/>
<path d="M5896 4686 c-30 -8 -62 -27 -83 -49 -50 -50 -38 -61 54 -53 81 6 159
35 169 61 16 42 -59 63 -140 41z"/>
<path d="M7179 4663 c-66 -34 -101 -82 -97 -133 3 -29 7 -35 29 -38 19 -2 41
11 87 52 40 35 77 59 104 67 51 13 68 25 68 49 0 41 -112 42 -191 3z"/>
<path d="M11764 4620 c-106 -53 -173 -125 -159 -170 10 -31 30 -24 75 28 50
56 105 92 143 92 35 0 87 26 87 43 0 45 -65 48 -146 7z"/>
<path d="M3411 4574 c-24 -31 -28 -74 -7 -74 20 0 68 59 64 79 -5 26 -34 24
-57 -5z"/>
<path d="M4041 4586 c-25 -30 21 -76 77 -76 28 0 62 26 62 48 0 36 -114 58
-139 28z"/>
<path d="M8943 4538 c-40 -17 -70 -35 -67 -39 9 -15 138 -11 159 5 18 13 18
15 2 40 -10 14 -18 26 -20 26 -1 -1 -35 -15 -74 -32z"/>
<path d="M9166 4551 c-17 -18 -17 -20 3 -40 14 -14 34 -21 62 -21 78 0 98 34
38 65 -39 21 -83 19 -103 -4z"/>
<path d="M11160 4555 c-26 -32 13 -81 48 -59 34 22 22 74 -18 74 -10 0 -23 -7
-30 -15z"/>
<path d="M11995 4499 c-152 -92 -171 -115 -115 -144 54 -28 79 -20 141 44 52
53 99 125 99 151 0 20 -27 9 -125 -51z"/>
<path d="M10943 4515 c-52 -37 -6 -78 86 -79 55 -1 64 18 29 58 -29 34 -84 44
-115 21z"/>
<path d="M11452 4493 c-14 -25 -3 -72 18 -83 44 -24 75 26 42 69 -24 32 -48
38 -60 14z"/>
<path d="M9650 4470 c0 -28 91 -112 156 -145 60 -30 143 -40 151 -18 10 28
-173 145 -269 171 -34 9 -38 8 -38 -8z"/>
<path d="M8335 4466 c-68 -17 -94 -32 -106 -63 -21 -56 13 -68 91 -32 63 28
110 67 110 90 0 22 -20 23 -95 5z"/>
<path d="M4305 4441 c-103 -37 -119 -56 -59 -67 58 -11 106 2 137 36 46 52 14
64 -78 31z"/>
<path d="M3756 4410 c-19 -24 -26 -43 -26 -76 0 -57 16 -57 76 0 37 35 45 50
42 73 -2 23 -8 29 -34 31 -25 2 -37 -3 -58 -28z"/>
<path d="M4928 4410 c-27 -17 -48 -35 -48 -40 0 -16 73 -12 98 6 23 16 27 54
7 61 -5 1 -31 -11 -57 -27z"/>
<path d="M8743 4394 c-48 -52 -54 -69 -20 -59 53 17 82 41 85 73 5 45 -13 41
-65 -14z"/>
<path d="M10336 4398 c-21 -35 -39 -99 -30 -108 10 -9 35 -13 75 -11 66 3 83
65 30 113 -38 34 -56 35 -75 6z"/>
<path d="M2895 4346 c-13 -9 -20 -31 -24 -82 -5 -62 -8 -69 -31 -74 -35 -8
-54 -49 -34 -71 23 -26 66 -30 409 -38 325 -8 370 -14 382 -48 21 -61 82 -71
136 -23 42 37 56 37 107 4 33 -22 42 -24 55 -14 13 11 24 7 68 -23 29 -20 73
-45 99 -57 53 -23 157 -36 210 -26 46 8 128 63 128 85 0 9 -27 42 -60 74 -75
70 -77 87 -11 87 92 0 140 33 105 71 -36 39 -135 19 -223 -46 -39 -29 -64 -30
-204 -13 -88 11 -103 10 -152 -7 l-55 -18 -51 26 c-59 31 -59 31 -59 14 0 -7
-6 -21 -13 -31 -13 -18 -15 -17 -53 2 -46 23 -102 36 -244 58 -145 22 -285 52
-348 76 -43 16 -57 27 -68 54 -15 37 -38 43 -69 20z"/>
<path d="M9064 4335 c-39 -39 -18 -52 41 -26 51 22 56 44 12 49 -18 2 -35 -5
-53 -23z"/>
<path d="M9467 4354 c-27 -27 20 -104 64 -104 22 0 22 0 3 14 -13 10 -19 27
-19 53 0 31 -4 39 -20 41 -12 2 -24 0 -28 -4z"/>
<path d="M11561 4334 c-25 -31 -26 -38 -8 -52 21 -18 59 14 55 46 -4 35 -22
38 -47 6z"/>
<path d="M7563 4337 c-24 -7 -55 -24 -69 -39 -51 -50 -41 -164 12 -144 13 5
15 15 11 50 -8 53 0 61 70 71 55 7 90 33 80 60 -7 18 -43 18 -104 2z"/>
<path d="M3486 4305 c-19 -19 -19 -21 -6 -45 19 -36 100 -37 100 -1 0 39 -68
72 -94 46z"/>
<path d="M4592 4308 c-22 -22 -14 -55 17 -68 70 -29 101 33 34 69 -27 14 -36
14 -51 -1z"/>
<path d="M7861 4302 c-46 -22 -52 -42 -13 -42 32 0 91 18 107 32 6 6 5 12 -5
18 -22 14 -51 12 -89 -8z"/>
<path d="M8110 4306 c-29 -17 -64 -76 -51 -89 24 -24 110 54 97 88 -7 18 -14
18 -46 1z"/>
<path d="M9130 4261 c0 -13 40 -24 71 -19 42 5 26 23 -23 26 -29 2 -48 -1 -48
-7z"/>
<path d="M7050 4210 c-32 -32 -16 -53 37 -47 24 2 46 1 49 -4 3 -5 0 -25 -5
-46 -14 -50 -5 -54 30 -15 41 45 39 86 -3 112 -42 25 -83 25 -108 0z"/>
<path d="M9798 4208 c-73 -25 -74 -40 -9 -101 49 -46 111 -81 162 -91 14 -3
44 -20 68 -38 90 -69 103 -77 144 -83 64 -10 116 -46 190 -128 52 -58 75 -76
103 -81 19 -4 78 -20 130 -36 105 -33 222 -56 231 -46 38 37 -470 346 -783
476 -135 56 -164 77 -164 118 0 37 3 37 -72 10z"/>
<path d="M9600 4193 c-93 -61 -110 -129 -27 -100 29 10 87 79 87 104 0 18 -30
16 -60 -4z"/>
<path d="M11489 4185 c-61 -46 -112 -128 -107 -173 3 -24 7 -27 38 -24 44 3
90 49 90 92 0 18 11 42 30 63 17 19 30 42 30 51 0 24 -41 20 -81 -9z"/>
<path d="M7769 4163 c-51 -27 -92 -74 -76 -89 17 -18 234 86 222 106 -12 20
-91 10 -146 -17z"/>
<path d="M12390 4175 c-14 -16 -10 -47 6 -52 17 -6 68 42 60 55 -10 17 -51 15
-66 -3z"/>
<path d="M4784 4149 c-22 -36 135 -100 261 -106 88 -4 115 5 149 50 31 41 13
50 -72 35 -65 -11 -80 -10 -164 10 -101 24 -163 28 -174 11z"/>
<path d="M8300 4123 c-36 -46 -13 -80 30 -45 18 14 22 25 16 45 -8 34 -19 34
-46 0z"/>
<path d="M10571 4140 c-18 -4 -41 -15 -50 -24 -27 -28 3 -37 95 -30 92 7 86
11 124 -80 28 -67 46 -80 56 -40 10 38 -12 114 -40 143 -34 34 -114 48 -185
31z"/>
<path d="M2661 4126 c-19 -23 -29 -71 -19 -89 13 -24 35 -21 54 8 13 20 14 30
4 60 -13 38 -21 43 -39 21z"/>
<path d="M4520 4128 c-14 -6 -40 -18 -57 -26 -64 -28 -25 -68 56 -58 121 17
121 17 121 40 0 48 -61 70 -120 44z"/>
<path d="M2445 4079 c-44 -23 -75 -48 -75 -60 0 -4 12 -21 26 -38 34 -41 73
-41 124 -1 46 37 68 83 50 105 -18 21 -79 19 -125 -6z"/>
<path d="M12157 4082 c-21 -23 -22 -51 -1 -59 23 -9 55 27 48 55 -8 27 -25 28
-47 4z"/>
<path d="M7914 4050 c-11 -4 -28 -20 -37 -34 -17 -25 -26 -28 -129 -41 -59 -8
-69 -24 -57 -90 11 -61 39 -91 103 -110 86 -26 118 -79 55 -92 -74 -15 -47
-143 31 -143 41 0 83 40 131 125 24 41 49 77 57 80 20 8 40 -11 68 -67 29 -57
30 -103 4 -143 -37 -56 -17 -105 42 -105 27 0 30 2 24 25 -9 34 11 68 89 160
36 42 65 83 65 91 0 34 -89 7 -142 -44 -15 -14 -31 -23 -34 -19 -8 8 41 168
66 218 28 55 45 63 148 74 53 6 97 15 99 21 7 20 -51 36 -145 42 -87 4 -94 3
-117 -18 -14 -13 -30 -41 -35 -62 -17 -62 -50 -92 -102 -93 -32 0 -57 -8 -85
-28 -50 -34 -59 -34 -78 4 -15 28 -19 30 -56 24 -34 -6 -39 -4 -39 12 0 45
104 167 166 195 13 6 24 15 24 20 0 10 -88 9 -116 -2z"/>
<path d="M9196 4039 c-65 -51 -55 -89 23 -81 46 4 50 2 96 -42 48 -45 56 -68
17 -47 -28 15 -54 3 -50 -22 5 -35 33 -44 65 -21 33 25 71 78 80 112 7 31 -9
42 -63 42 -44 0 -70 19 -61 44 15 38 -63 49 -107 15z"/>
<path d="M1798 4009 c-10 -5 -18 -19 -18 -29 0 -35 68 -25 120 17 2 2 -2 8
-10 13 -20 13 -71 12 -92 -1z"/>
<path d="M5234 4006 c-13 -33 16 -49 74 -42 l53 6 -2 -46 c-2 -38 1 -50 19
-65 47 -37 152 -33 152 6 0 27 -62 85 -123 114 -78 38 -164 51 -173 27z"/>
<path d="M4715 3956 c-31 -47 14 -65 55 -21 26 28 26 31 -12 40 -21 5 -30 2
-43 -19z"/>
<path d="M6272 3964 c-31 -22 -29 -67 4 -93 15 -12 32 -21 39 -21 37 0 52 93
19 117 -23 17 -35 16 -62 -3z"/>
<path d="M11630 3961 c0 -13 55 -24 80 -16 37 12 21 25 -30 25 -27 0 -50 -4
-50 -9z"/>
<path d="M7982 3943 c-58 -28 -69 -83 -17 -83 32 0 88 52 83 77 -4 24 -27 26
-66 6z"/>
<path d="M4500 3924 c-22 -26 5 -87 67 -154 76 -82 143 -116 143 -72 0 41
-120 201 -170 227 -25 13 -30 13 -40 -1z"/>
<path d="M6040 3908 c0 -7 14 -31 30 -52 17 -22 28 -41 25 -44 -2 -2 -18 1
-36 7 -46 16 -79 14 -79 -5 0 -46 94 -159 124 -148 28 11 66 87 66 132 0 45
-35 96 -73 107 -12 4 -30 9 -39 11 -11 3 -18 0 -18 -8z"/>
<path d="M11369 3898 c-20 -10 -72 -23 -115 -28 -149 -17 -314 -69 -314 -99 0
-13 53 -21 144 -21 98 -1 153 -12 171 -37 20 -27 234 -25 291 3 35 17 39 24
42 59 3 42 -23 106 -45 113 -8 2 -13 -6 -13 -20 0 -72 -60 -73 -91 -2 -11 24
-23 45 -27 47 -4 3 -23 -4 -43 -15z"/>
<path d="M4967 3843 c-12 -12 -7 -50 8 -63 16 -13 47 -10 52 6 4 12 -34 64
-46 64 -4 0 -11 -3 -14 -7z"/>
<path d="M9523 3815 c-36 -36 -38 -51 -12 -68 11 -7 27 -4 53 8 45 21 65 57
46 80 -20 24 -49 18 -87 -20z"/>
<path d="M9821 3821 c-25 -25 -37 -69 -23 -83 16 -16 74 46 70 74 -4 30 -23
33 -47 9z"/>
<path d="M9091 3757 c-28 -14 -48 -43 -38 -53 9 -9 97 32 97 45 0 5 -7 12 -16
15 -19 7 -14 8 -43 -7z"/>
<path d="M5652 3708 c-20 -20 -13 -46 18 -68 43 -30 84 -24 88 13 2 17 -4 37
-14 48 -19 21 -73 26 -92 7z"/>
<path d="M5007 3703 c-14 -13 -6 -41 18 -67 32 -35 55 -34 55 2 0 41 -52 87
-73 65z"/>
<path d="M1886 3669 c-16 -10 -17 -19 -12 -69 8 -65 -6 -90 -48 -90 -13 0 -29
-7 -36 -14 -17 -22 -9 -60 15 -64 45 -6 206 129 220 185 5 22 2 31 -15 45 -25
20 -94 24 -124 7z"/>
<path d="M11834 3660 c-90 -19 -124 -31 -134 -49 -23 -44 45 -53 214 -27 110
17 142 34 114 62 -19 20 -131 28 -194 14z"/>
<path d="M10072 3576 c-22 -117 -13 -154 33 -142 44 11 70 98 44 149 -11 21
-48 56 -60 57 -3 0 -11 -29 -17 -64z"/>
<path d="M5828 3593 c-32 -8 -20 -45 31 -94 53 -51 117 -89 150 -89 18 0 51
34 51 52 0 21 -43 48 -75 48 -43 0 -95 25 -95 45 0 15 -27 46 -38 44 -4 -1
-15 -3 -24 -6z"/>
<path d="M8631 3591 c-9 -6 -11 -18 -7 -38 6 -27 1 -35 -39 -74 -26 -24 -57
-65 -70 -90 -31 -60 -47 -72 -84 -64 -23 5 -35 1 -50 -14 -29 -29 -27 -51 4
-51 39 0 86 23 138 68 63 54 83 65 137 72 l45 5 3 54 c4 68 -3 96 -28 121 -22
22 -29 24 -49 11z"/>
<path d="M11605 3567 c-16 -5 -52 -25 -80 -44 -57 -38 -96 -42 -143 -13 -18
11 -39 20 -48 20 -17 0 -53 -73 -54 -109 0 -21 3 -23 33 -16 112 24 147 15
147 -37 0 -41 -39 -91 -98 -125 -37 -22 -63 -29 -127 -33 -67 -4 -80 -8 -83
-24 -6 -29 11 -38 105 -53 180 -29 169 -29 186 3 8 16 30 74 48 129 22 67 49
123 83 173 28 40 58 84 66 97 20 32 5 46 -35 32z"/>
<path d="M10910 3534 c0 -24 84 -104 108 -104 43 0 58 78 20 104 -32 23 -128
22 -128 0z"/>
<path d="M6548 3499 c-38 -22 -14 -69 35 -69 39 0 67 17 67 40 0 34 -63 52
-102 29z"/>
<path d="M7915 3479 c-40 -35 -65 -77 -65 -109 0 -30 39 -26 86 9 52 37 77 76
70 107 -9 34 -47 31 -91 -7z"/>
<path d="M3276 3454 c-29 -29 -12 -64 31 -64 37 0 50 51 19 72 -17 12 -33 9
-50 -8z"/>
<path d="M3596 3440 c-65 -20 -101 -97 -61 -130 39 -32 204 85 168 121 -14 14
-73 20 -107 9z"/>
<path d="M8360 3432 c-44 -24 -59 -47 -42 -64 19 -19 106 29 110 60 4 28 -20
29 -68 4z"/>
<path d="M4857 3423 c-13 -12 -7 -39 14 -61 25 -27 39 -21 39 18 0 33 -35 62
-53 43z"/>
<path d="M5590 3417 c-44 -15 -49 -40 -15 -63 25 -16 31 -16 68 -3 44 15 68
42 51 59 -17 17 -67 20 -104 7z"/>
<path d="M469 3387 c-9 -19 -8 -31 3 -53 18 -39 54 -44 70 -9 10 22 8 30 -9
53 -27 36 -50 39 -64 9z"/>
<path d="M2940 3397 c-40 -14 -71 -60 -53 -78 14 -14 90 -14 129 1 57 22 85
70 48 84 -25 9 -86 6 -124 -7z"/>
<path d="M8846 3379 c-48 -42 -88 -126 -89 -188 -1 -61 16 -85 55 -77 15 3 28
3 28 0 0 -12 -37 -75 -85 -144 -54 -78 -105 -162 -105 -173 0 -4 9 -2 20 5 52
33 119 -63 120 -168 0 -62 -25 -156 -61 -226 -10 -20 -19 -47 -19 -58 0 -18 5
-21 38 -18 l37 3 3 53 c3 48 6 55 36 73 44 26 56 56 56 147 1 111 15 207 56
372 36 146 55 302 37 313 -5 3 -28 -19 -52 -49 -49 -63 -78 -83 -87 -59 -10
24 4 76 36 140 45 92 38 109 -24 54z"/>
<path d="M10852 3384 c-82 -57 74 -139 162 -84 20 12 36 25 36 30 0 13 -50 45
-89 58 -47 16 -82 15 -109 -4z"/>
<path d="M2171 3366 c-16 -19 -11 -46 12 -60 25 -16 52 4 52 40 0 24 -5 30
-26 32 -14 2 -31 -4 -38 -12z"/>
<path d="M5059 3320 l-24 -20 24 -20 c42 -36 151 -18 151 24 0 36 -113 48
-151 16z"/>
<path d="M6160 3322 c0 -19 35 -62 50 -62 16 0 23 49 10 65 -18 22 -60 19 -60
-3z"/>
<path d="M9273 3315 c-24 -17 -40 -72 -25 -87 12 -12 74 58 70 80 -4 22 -20
25 -45 7z"/>
<path d="M4525 3280 c-8 -26 18 -127 49 -188 49 -97 103 -142 171 -142 52 0
74 27 68 83 -5 42 -3 46 23 59 18 8 29 21 29 33 0 17 -7 20 -50 20 -48 0 -50
1 -46 25 3 14 5 39 5 55 1 24 -3 30 -19 28 -11 -1 -46 -5 -77 -9 -55 -6 -59
-5 -87 25 -33 36 -57 40 -66 11z"/>
<path d="M7896 3284 c-25 -24 -19 -43 18 -65 34 -20 56 -60 71 -126 9 -42 17
-41 38 2 20 42 22 113 5 150 -22 49 -100 72 -132 39z"/>
<path d="M8176 3292 c-13 -21 -20 -142 -8 -142 19 0 42 43 42 80 0 40 -22 80
-34 62z"/>
<path d="M8614 3275 c-30 -46 7 -61 53 -20 24 21 26 26 13 35 -25 16 -49 11
-66 -15z"/>
<path d="M5770 3272 c-52 -17 -66 -67 -23 -83 45 -17 163 15 163 45 0 23 -103
51 -140 38z"/>
<path d="M2518 3249 c-10 -5 -18 -20 -18 -33 0 -28 36 -68 58 -64 24 5 28 65
6 89 -20 22 -22 22 -46 8z"/>
<path d="M10352 3253 c-7 -3 -19 -17 -27 -33 -12 -24 -12 -30 0 -40 22 -19 55
5 55 40 0 31 -8 40 -28 33z"/>
<path d="M3861 3221 c-28 -28 -48 -98 -33 -113 14 -14 55 20 78 64 19 36 18
45 -6 58 -15 8 -24 6 -39 -9z"/>
<path d="M5262 3228 c-18 -22 15 -60 83 -93 61 -29 165 -124 165 -149 0 -19
14 -28 34 -20 38 15 7 131 -50 188 -63 62 -204 107 -232 74z"/>
<path d="M1596 3184 c-50 -50 -26 -90 49 -81 52 5 85 30 85 62 0 32 -19 45
-66 45 -31 0 -48 -6 -68 -26z"/>
<path d="M3959 3171 c-62 -62 -51 -121 19 -105 57 14 99 74 82 119 -15 38 -54
33 -101 -14z"/>
<path d="M9384 3159 c-8 -14 28 -64 47 -64 18 0 24 42 9 61 -15 17 -46 19 -56
3z"/>
<path d="M3350 3122 c0 -30 7 -45 33 -70 41 -39 207 -108 207 -85 0 5 -17 22
-37 40 l-38 32 33 7 c25 5 32 12 32 30 0 32 -31 46 -87 38 -41 -5 -53 -2 -86
20 -21 14 -42 26 -47 26 -6 0 -10 -17 -10 -38z"/>
<path d="M9927 3153 c-10 -10 -8 -81 2 -87 12 -8 21 18 21 60 0 32 -8 42 -23
27z"/>
<path d="M10100 3115 c-14 -16 -10 -47 6 -52 17 -6 68 42 60 55 -10 17 -51 15
-66 -3z"/>
<path d="M10736 3082 c-27 -47 -4 -118 31 -96 23 14 28 41 13 70 -13 24 -36
38 -44 26z"/>
<path d="M8178 3043 c-81 -85 -110 -153 -65 -153 30 0 80 52 106 110 39 86 20
106 -41 43z"/>
<path d="M5990 3043 c-25 -32 -22 -44 14 -61 21 -10 34 -11 61 -2 41 14 46 39
13 70 -30 28 -62 25 -88 -7z"/>
<path d="M11287 3030 c-15 -12 -36 -42 -47 -67 -44 -100 -200 -306 -252 -334
-30 -16 -45 3 -29 37 16 36 6 42 -24 14 -27 -25 -45 -76 -45 -125 0 -40 -58
-161 -100 -209 -36 -40 -78 -66 -109 -66 -33 0 -34 18 -2 67 30 44 41 93 22
93 -15 0 -35 -30 -96 -149 -48 -93 -66 -118 -88 -126 -29 -9 -47 2 -60 39 -9
24 -29 -15 -51 -100 -34 -135 -58 -169 -156 -229 -67 -41 -109 -85 -120 -126
-6 -23 -23 -47 -44 -62 -27 -21 -35 -36 -41 -74 -10 -66 -20 -81 -58 -85 -29
-3 -32 -6 -35 -41 -6 -70 -60 -60 -115 22 -37 55 -47 56 -47 4 0 -53 23 -93
93 -163 40 -40 68 -78 72 -95 14 -65 24 -68 162 -50 75 9 93 -1 93 -54 0 -59
20 -113 55 -148 34 -34 62 -41 96 -23 30 16 22 42 -22 73 -60 41 -50 62 26 61
72 -1 147 -24 208 -64 24 -17 66 -34 93 -39 66 -13 118 -36 182 -80 71 -49 75
-69 23 -131 -22 -27 -41 -54 -41 -61 0 -9 38 -11 160 -6 175 6 216 0 268 -40
29 -22 72 -77 72 -93 0 -3 -10 -10 -22 -15 -19 -8 -24 -20 -28 -73 -3 -40 -10
-66 -20 -72 -31 -20 -86 -22 -257 -10 -180 12 -255 8 -301 -16 -55 -28 -200
-8 -263 37 -14 10 -43 50 -63 89 -43 81 -52 85 -159 76 -125 -11 -225 26 -315
116 -66 65 -134 200 -117 228 8 12 53 -10 79 -39 26 -29 43 -26 51 8 10 46
-12 110 -41 121 -31 12 -30 18 7 79 32 51 33 81 4 81 -23 0 -52 -16 -111 -61
-28 -22 -59 -39 -68 -39 -9 0 -34 14 -55 31 -21 16 -69 43 -107 58 -37 15 -70
33 -72 39 -2 6 16 21 39 33 88 45 181 3 195 -88 l6 -44 25 23 c37 34 83 109
83 133 0 34 -38 44 -209 60 -171 16 -205 23 -256 55 -46 28 -59 54 -51 101 3
22 4 39 2 39 -3 0 -26 -18 -51 -40 -56 -48 -85 -51 -157 -14 -72 36 -209 127
-232 152 -37 42 -80 18 -80 -43 0 -44 19 -65 61 -65 46 0 91 -20 168 -76 36
-25 87 -54 113 -64 37 -13 55 -29 84 -71 28 -41 46 -57 80 -69 139 -48 408
-259 408 -319 0 -58 -36 -70 -87 -29 -55 43 -126 77 -376 179 -122 50 -250
104 -286 120 -76 35 -158 45 -432 54 -190 6 -341 24 -394 45 -40 17 -107 14
-385 -15 -129 -14 -316 -29 -415 -35 -111 -6 -201 -16 -235 -26 -109 -32 -237
-63 -375 -88 -77 -14 -171 -32 -210 -40 -94 -19 -350 -44 -609 -60 -119 -7
-221 -18 -234 -25 -30 -16 -28 -49 4 -61 48 -19 192 -10 516 30 455 56 594 77
743 111 72 16 256 48 410 71 l280 42 355 0 355 1 235 -38 c267 -43 398 -72
555 -124 340 -111 584 -253 696 -403 61 -82 76 -93 157 -114 34 -8 130 -43
212 -76 338 -135 558 -157 995 -100 300 39 290 37 309 59 10 11 21 43 25 73
10 68 29 110 80 178 51 67 57 89 37 129 -18 34 -81 81 -108 81 -25 0 -22 -17
6 -35 43 -28 40 -91 -5 -115 -54 -29 -126 -4 -461 161 -328 162 -408 224 -448
343 -24 74 -52 251 -44 283 4 16 13 23 31 23 30 0 83 -50 83 -79 0 -17 5 -20
28 -15 22 5 53 -7 138 -52 209 -110 240 -124 384 -170 167 -52 355 -141 452
-214 157 -116 204 -262 94 -290 -62 -16 -66 -18 -66 -34 0 -56 33 -68 140 -49
133 23 159 66 106 178 -71 154 -423 411 -613 449 -105 22 -182 52 -357 140
-314 159 -494 294 -552 412 -47 95 -25 136 145 272 188 150 401 385 401 441 0
23 19 41 43 41 64 0 256 252 302 395 15 50 16 59 3 71 -13 13 -18 12 -41 -6z
m-919 -1203 c18 -21 70 -192 116 -377 52 -212 59 -250 43 -250 -14 0 -217 207
-217 222 0 6 10 3 23 -6 42 -30 78 -47 87 -41 19 12 -19 62 -109 144 -83 76
-108 111 -81 111 6 0 38 -12 72 -26 44 -18 64 -22 72 -14 22 22 -5 46 -98 87
-22 10 -41 24 -44 30 -3 12 104 133 118 133 4 0 12 -6 18 -13z m-231 -349 c47
-51 123 -172 114 -181 -14 -14 -101 -20 -141 -10 -25 7 -36 15 -38 32 -2 13
-17 30 -33 39 -38 22 -37 46 7 98 40 49 61 54 91 22z"/>
<path d="M7844 3019 c20 -63 17 -125 -8 -208 -27 -87 -32 -131 -17 -131 15 0
80 72 133 149 l52 74 -62 58 c-34 32 -71 63 -83 70 -20 10 -21 9 -15 -12z"/>
<path d="M4050 2974 c-35 -80 -40 -77 133 -69 83 4 157 12 162 17 25 23 -81
72 -139 64 -31 -5 -48 -1 -71 14 -47 31 -63 26 -85 -26z"/>
<path d="M1572 2955 c-103 -75 -111 -130 -16 -103 54 14 94 58 94 102 0 19 -4
37 -9 40 -5 3 -36 -14 -69 -39z"/>
<path d="M9480 2960 c-35 -38 -59 -105 -43 -121 27 -27 93 49 93 108 0 45 -16
49 -50 13z"/>
<path d="M10940 2946 c0 -50 16 -70 26 -32 8 33 2 69 -13 74 -9 2 -13 -10 -13
-42z"/>
<path d="M4590 2950 c0 -5 16 -45 35 -89 40 -90 42 -106 18 -98 -63 20 -63 20
-63 -1 0 -24 22 -43 64 -57 22 -7 37 -23 53 -54 41 -82 69 -99 97 -59 54 76
-21 248 -147 339 -42 30 -57 35 -57 19z"/>
<path d="M5677 2939 c-15 -9 -16 -13 -5 -26 35 -43 265 -114 298 -92 24 15
-56 84 -121 103 -74 22 -150 29 -172 15z"/>
<path d="M11079 2930 c-24 -20 -24 -20 -5 -35 26 -20 90 -19 107 1 11 14 10
19 -10 35 -30 24 -63 24 -92 -1z"/>
<path d="M4796 2913 c-15 -15 -5 -63 15 -74 29 -15 51 7 39 38 -10 23 -43 46
-54 36z"/>
<path d="M44 2886 c-9 -36 3 -83 18 -68 15 15 15 69 0 84 -8 8 -13 4 -18 -16z"/>
<path d="M2630 2890 c-97 -18 -115 -34 -126 -113 -6 -40 -4 -46 22 -66 22 -17
37 -21 63 -17 58 9 142 57 200 113 52 50 54 54 38 70 -20 20 -124 27 -197 13z"/>
<path d="M10271 2825 c-44 -48 -52 -75 -22 -75 21 0 71 53 71 75 0 7 3 20 6
29 11 29 -13 16 -55 -29z"/>
<path d="M1094 2807 c-31 -27 -28 -57 6 -57 24 0 70 42 70 65 0 23 -45 18 -76
-8z"/>
<path d="M1562 2790 c-71 -45 -86 -72 -66 -112 16 -31 107 -83 130 -74 11 4
14 29 14 103 0 54 -4 103 -8 110 -5 9 -25 1 -70 -27z"/>
<path d="M2347 2823 c-13 -22 33 -81 53 -68 14 8 13 48 -2 63 -13 13 -44 16
-51 5z"/>
<path d="M9056 2799 c-44 -35 -58 -73 -50 -136 5 -47 2 -65 -21 -124 -32 -79
-26 -103 17 -69 31 24 84 105 93 142 6 23 3 29 -19 39 -34 16 -33 39 5 93 19
26 29 51 26 60 -8 21 -19 20 -51 -5z"/>
<path d="M2873 2802 c-20 -13 -32 -56 -22 -75 14 -25 34 -21 71 12 27 25 31
33 22 48 -12 19 -52 28 -71 15z"/>
<path d="M3316 2769 c-16 -24 -11 -49 10 -49 21 0 68 45 60 58 -12 19 -54 14
-70 -9z"/>
<path d="M3585 2786 c-5 -3 -22 -7 -37 -10 -41 -9 -37 -46 7 -85 41 -36 72
-46 121 -38 42 7 43 -3 7 -77 -15 -31 -24 -58 -21 -62 12 -12 168 78 204 118
46 51 36 65 -35 47 -28 -7 -53 -10 -57 -7 -3 3 0 25 7 47 17 58 7 66 -99 68
-48 1 -91 1 -97 -1z"/>
<path d="M8300 2728 c-55 -96 -62 -148 -21 -148 33 0 68 53 80 121 6 34 8 66
5 70 -13 21 -36 5 -64 -43z"/>
<path d="M5015 2756 c-38 -16 -59 -41 -52 -60 6 -16 116 -53 185 -63 39 -5 42
-4 42 18 0 37 -37 89 -75 105 -42 17 -61 17 -100 0z"/>
<path d="M6352 2727 c-40 -42 -16 -84 28 -49 17 13 20 24 15 45 -9 33 -15 34
-43 4z"/>
<path d="M8065 2730 c-19 -21 -14 -50 9 -50 24 0 60 35 53 53 -9 23 -40 21
-62 -3z"/>
<path d="M8621 2731 c-10 -10 -21 -34 -24 -52 -13 -77 -49 -286 -53 -306 -6
-33 -51 -80 -110 -118 -29 -19 -60 -48 -69 -65 -17 -34 -17 -91 1 -97 6 -2 61
42 124 97 90 81 119 100 139 98 23 -3 26 -7 25 -40 -1 -32 -11 -48 -68 -108
-36 -39 -66 -79 -66 -89 0 -34 -12 -52 -45 -65 -34 -15 -64 -50 -110 -130
l-28 -49 49 34 c72 50 317 297 348 350 14 26 24 53 21 62 -4 8 -24 29 -46 47
-60 48 -64 67 -33 163 34 108 42 212 20 255 -19 37 -46 42 -75 13z"/>
<path d="M10799 2721 c-20 -16 -24 -29 -27 -97 -3 -73 -2 -77 13 -59 8 10 25
50 37 87 25 78 17 102 -23 69z"/>
<path d="M4455 2688 c-2 -7 -11 -44 -20 -83 -9 -38 -18 -79 -22 -90 -4 -14 8
-8 40 22 49 45 81 58 123 50 53 -10 39 58 -18 93 -37 22 -96 27 -103 8z"/>
<path d="M6743 2684 c-13 -35 95 -96 141 -78 20 8 20 14 0 42 -32 46 -127 71
-141 36z"/>
<path d="M10460 2622 c-49 -52 -92 -128 -88 -155 3 -20 5 -20 43 15 36 33 94
117 111 161 12 31 -27 19 -66 -21z"/>
<path d="M1790 2605 c-26 -32 13 -81 48 -59 34 22 22 74 -18 74 -10 0 -23 -7
-30 -15z"/>
<path d="M7893 2594 c-15 -23 -15 -30 -2 -67 29 -81 75 -73 73 13 -1 77 -37
105 -71 54z"/>
<path d="M10260 2598 c-44 -30 -74 -72 -66 -93 13 -35 126 54 126 99 0 22 -21
20 -60 -6z"/>
<path d="M5929 2551 c-19 -20 -29 -40 -29 -60 0 -27 3 -31 28 -31 30 0 64 24
81 57 14 28 14 29 -5 47 -23 23 -42 20 -75 -13z"/>
<path d="M4092 2540 c-59 -56 -64 -102 -9 -81 27 11 70 68 64 86 -6 18 -32 16
-55 -5z"/>
<path d="M6910 2538 c-43 -23 -32 -49 30 -74 30 -12 71 -24 90 -25 49 -5 52
25 7 69 -39 37 -90 49 -127 30z"/>
<path d="M3869 2519 c-18 -18 -19 -23 -6 -42 18 -28 40 -32 61 -12 20 21 20
39 0 59 -20 21 -30 20 -55 -5z"/>
<path d="M4536 2525 c-8 -21 1 -42 42 -98 19 -26 32 -50 29 -53 -3 -4 -37 0
-75 6 -130 24 -232 -2 -240 -59 -4 -24 23 -61 43 -61 6 0 38 20 71 45 32 24
64 45 71 45 6 0 35 -20 65 -43 75 -62 96 -72 115 -55 12 10 14 27 11 78 -5 70
-33 136 -76 183 -29 30 -47 34 -56 12z"/>
<path d="M5 2455 c-15 -119 10 -305 36 -264 12 19 11 95 -2 203 -15 118 -25
136 -34 61z"/>
<path d="M9895 2478 c-31 -17 -115 -100 -131 -130 -28 -53 -14 -51 63 7 52 39
113 108 113 128 0 10 -22 8 -45 -5z"/>
<path d="M4757 2443 c-12 -11 -8 -53 8 -83 31 -60 112 -75 166 -32 l22 18 -39
31 c-69 54 -140 84 -157 66z"/>
<path d="M9059 2431 c-55 -25 -70 -41 -67 -70 2 -21 8 -26 32 -26 25 0 33 7
54 47 13 26 22 51 21 56 -2 5 -20 2 -40 -7z"/>
<path d="M6325 2346 c-31 -47 14 -65 55 -21 26 28 26 31 -12 40 -21 5 -30 2
-43 -19z"/>
<path d="M7145 2361 c-11 -5 -28 -18 -38 -28 -16 -19 -16 -21 -1 -34 26 -21
101 -16 126 8 l20 21 -21 21 c-22 22 -51 26 -86 12z"/>
<path d="M9928 2355 c-52 -28 -46 -91 6 -67 29 13 60 57 51 72 -8 14 -25 12
-57 -5z"/>
<path d="M2551 2289 c-16 -46 -14 -85 6 -105 16 -15 18 -15 40 10 38 44 30
126 -12 126 -17 0 -26 -9 -34 -31z"/>
<path d="M557 2273 c-3 -5 1 -33 9 -63 8 -30 26 -120 39 -200 32 -188 75 -320
137 -423 28 -45 70 -116 95 -157 51 -85 89 -130 113 -130 8 0 42 -13 75 -30
33 -16 77 -30 97 -30 47 0 116 27 128 51 21 39 13 44 -67 44 -63 0 -89 5 -133
26 -73 34 -120 75 -120 104 0 23 -16 41 -54 60 -14 7 -24 26 -30 54 -7 34 -17
48 -43 64 -34 19 -34 21 -28 68 6 45 5 48 -23 63 -25 13 -30 22 -35 68 -14
125 -48 316 -62 354 -9 23 -23 48 -33 57 -22 19 -59 30 -65 20z"/>
<path d="M1629 2268 c-9 -7 -20 -26 -23 -42 -4 -16 -34 -57 -68 -92 -33 -34
-57 -68 -53 -73 10 -18 65 -12 136 13 141 50 186 121 111 174 -37 27 -84 36
-103 20z"/>
<path d="M6070 2265 c-13 -16 -10 -47 6 -52 15 -5 64 35 64 53 0 19 -54 19
-70 -1z"/>
<path d="M2741 2251 c-25 -25 -37 -69 -24 -82 15 -15 75 48 71 74 -4 29 -23
32 -47 8z"/>
<path d="M7347 2259 c-87 -20 -113 -50 -87 -100 16 -30 60 -23 145 22 l77 40
-7 -30 c-6 -28 -4 -31 17 -31 13 1 52 7 88 15 100 22 101 18 15 -31 -91 -51
-140 -93 -126 -107 10 -10 417 85 462 108 58 31 46 90 -14 66 -94 -38 -103
-38 -175 1 -37 20 -94 41 -126 47 -70 13 -215 13 -269 0z"/>
<path d="M8152 2192 c-28 -29 -56 -46 -96 -57 -64 -19 -71 -28 -80 -108 -8
-62 -16 -70 -76 -81 -42 -7 -86 13 -82 37 2 9 -1 17 -6 17 -11 0 -144 -137
-167 -174 -18 -28 -18 -29 0 -43 22 -16 58 -11 123 18 125 54 295 205 292 258
-3 45 -1 47 35 43 41 -5 87 24 111 70 14 27 14 32 1 46 -14 13 -20 10 -55 -26z"/>
<path d="M10285 2206 c-24 -24 -36 -86 -16 -86 16 0 72 71 69 88 -5 26 -26 25
-53 -2z"/>
<path d="M9080 2202 c-43 -24 -59 -47 -43 -63 18 -18 107 30 111 59 4 28 -20
29 -68 4z"/>
<path d="M5442 2179 c-24 -21 -42 -59 -42 -85 0 -24 40 -15 71 16 53 52 24
119 -29 69z"/>
<path d="M3103 2150 c-48 -21 -53 -34 -22 -50 39 -21 79 -15 111 17 17 17 27
36 24 42 -11 17 -66 12 -113 -9z"/>
<path d="M5600 2130 c-22 -41 20 -55 58 -19 27 25 21 39 -18 39 -19 0 -33 -7
-40 -20z"/>
<path d="M9213 2128 c-12 -13 -34 -49 -49 -82 -23 -50 -26 -68 -22 -126 4 -50
13 -81 32 -114 30 -52 97 -126 114 -126 6 0 14 24 17 53 8 60 -13 127 -39 127
-9 0 -23 11 -32 25 -24 37 -15 119 20 172 32 47 32 86 1 91 -12 2 -30 -7 -42
-20z"/>
<path d="M9335 2138 c-12 -34 -9 -108 5 -108 15 0 54 86 47 104 -7 19 -46 22
-52 4z"/>
<path d="M4294 2132 c-15 -10 -44 -67 -44 -88 0 -15 2 -15 21 2 28 26 53 74
42 85 -4 4 -13 5 -19 1z"/>
<path d="M3223 2050 c-58 -26 -56 -48 10 -117 125 -134 218 -159 107 -30 -28
32 -50 65 -50 74 0 8 11 29 25 45 14 16 23 34 19 39 -9 15 -66 10 -111 -11z"/>
<path d="M4503 2050 c-23 -5 -55 -16 -72 -24 -16 -9 -46 -16 -65 -16 -40 0
-55 -16 -34 -36 10 -11 55 -15 188 -17 147 -2 181 -5 210 -21 54 -28 89 -66
96 -102 7 -40 17 -49 70 -63 32 -9 50 -23 80 -64 57 -76 119 -77 100 -2 -3 13
-33 57 -66 97 -34 40 -85 105 -116 145 -60 80 -76 88 -209 104 -84 10 -126 10
-182 -1z"/>
<path d="M1873 2040 c-12 -5 -29 -20 -38 -34 -15 -23 -15 -27 0 -58 21 -41 91
-115 127 -134 41 -22 80 -17 130 16 44 29 74 73 62 91 -4 6 -36 8 -83 3 -66
-5 -80 -4 -95 11 -16 17 -16 19 10 46 26 27 27 31 12 45 -19 19 -94 28 -125
14z"/>
<path d="M4000 1967 c-24 -55 -46 -177 -36 -203 7 -18 9 -17 32 9 13 15 24 38
24 51 0 32 21 54 55 58 25 3 30 8 33 33 4 43 -31 95 -63 95 -21 0 -30 -8 -45
-43z"/>
<path d="M5116 1974 c-22 -21 -20 -67 3 -88 29 -26 95 -32 126 -12 35 23 32
58 -6 90 -36 30 -98 35 -123 10z"/>
<path d="M2757 1974 c-3 -3 4 -33 14 -67 10 -34 19 -72 19 -84 0 -35 34 -46
117 -39 40 4 73 4 73 1 0 -3 -11 -23 -25 -43 -33 -49 -32 -61 12 -99 l38 -32
-33 -7 c-34 -7 -58 -36 -46 -55 4 -7 23 -8 49 -5 49 8 64 -2 96 -68 29 -57 46
-74 83 -82 44 -9 56 -22 56 -58 0 -44 -22 -70 -71 -85 -23 -7 -92 -36 -153
-64 -107 -50 -114 -52 -186 -49 -41 2 -233 4 -426 5 -328 2 -353 3 -373 21
-46 42 -53 151 -12 207 29 40 26 57 -14 76 -48 23 -60 9 -73 -85 -12 -85 -21
-98 -82 -125 -57 -25 -80 -45 -80 -70 0 -18 5 -19 51 -13 58 8 56 14 22 -77
-20 -53 -18 -56 43 -93 15 -10 17 -16 8 -30 -25 -43 -214 -87 -439 -102 -137
-10 -195 -22 -195 -41 0 -23 107 -30 585 -41 493 -11 550 -16 1101 -85 434
-55 496 -65 672 -109 204 -52 339 -58 847 -37 560 23 663 34 679 78 24 62
-221 346 -370 429 -133 74 -184 60 -98 -28 27 -27 78 -73 114 -101 171 -134
198 -159 221 -202 51 -95 -26 -69 -141 49 -24 25 -47 46 -51 46 -4 0 1 -32 11
-71 10 -39 16 -77 13 -85 -14 -36 -127 -29 -204 13 -62 33 -94 70 -130 148
-35 77 -84 133 -160 184 -64 43 -119 55 -119 26 0 -8 35 -50 78 -93 67 -65 80
-83 86 -119 5 -34 12 -46 36 -58 32 -16 53 -51 64 -102 11 -51 -16 -63 -149
-63 -162 0 -237 17 -318 73 -16 10 -21 8 -37 -13 -45 -60 -50 -63 -95 -57
-102 14 -291 96 -353 152 -81 72 -78 147 7 234 64 66 135 101 187 94 29 -4 58
2 106 21 91 37 146 52 277 76 63 12 128 28 144 37 26 13 28 18 23 48 l-7 34
93 -2 93 -2 102 58 c146 84 161 87 402 87 335 0 505 21 612 76 116 59 61 64
-191 19 -110 -19 -184 -20 -200 0 -16 19 -71 19 -157 -1 -94 -22 -255 -16
-301 11 -18 11 -35 31 -38 45 -12 52 -11 52 -51 35 -69 -29 -100 -74 -72 -102
43 -43 -114 -118 -293 -139 -75 -9 -88 2 -88 73 0 96 -8 100 -226 134 -67 10
-162 32 -210 50 -110 39 -228 69 -273 69 -18 0 -59 -12 -91 -26 -32 -14 -66
-24 -77 -22 -15 3 -13 7 14 32 18 16 30 33 27 37 -3 5 -29 9 -58 9 -71 0 -119
17 -111 39 13 32 9 36 -42 38 -60 2 -115 27 -227 102 -77 52 -120 74 -129 65z
m444 -363 l23 -18 -27 -18 c-32 -21 -86 -14 -111 14 -17 18 -16 20 1 30 29 17
88 13 114 -8z m448 -41 c16 0 41 -10 55 -21 24 -19 26 -24 13 -36 -20 -21
-183 -33 -304 -23 -107 9 -136 16 -130 34 3 7 29 10 78 8 54 -3 86 1 115 13
46 20 114 34 132 29 8 -2 26 -4 41 -4z m-55 -202 c22 -35 -27 -74 -59 -48 -18
15 -20 56 -2 64 22 9 50 1 61 -16z m416 13 c0 -15 -86 -89 -130 -111 -23 -12
-49 -19 -58 -17 -24 5 56 79 121 112 55 27 67 30 67 16z m-295 -131 c-10 -17
-75 -46 -163 -74 -94 -29 -92 -29 -92 -17 0 15 202 99 243 100 10 1 15 -4 12
-9z m-327 -100 c12 -24 22 -56 22 -70 0 -62 -128 -197 -230 -244 -68 -30 -151
-28 -222 7 -31 15 -59 34 -62 42 -13 35 93 83 257 114 114 22 174 45 182 70 2
9 0 34 -5 55 -9 43 2 80 23 74 7 -2 22 -24 35 -48z m-685 -106 c3 -3 -1 -26
-8 -51 -16 -54 -6 -62 58 -44 23 7 50 15 60 17 28 8 20 -18 -19 -58 -45 -49
-67 -52 -115 -17 -40 28 -56 24 -79 -20 -24 -48 -35 -52 -80 -34 -47 19 -80
52 -80 79 0 34 23 46 73 39 53 -8 86 6 136 59 35 36 43 41 54 30z"/>
<path d="M1470 1921 c-72 -38 -91 -91 -34 -91 27 0 114 75 114 99 0 17 -40 13
-80 -8z"/>
<path d="M110 1884 c0 -43 20 -124 30 -124 34 0 20 140 -16 154 -10 4 -14 -3
-14 -30z"/>
<path d="M8216 1875 c-31 -29 -30 -48 3 -53 27 -4 71 33 71 60 0 27 -42 23
-74 -7z"/>
<path d="M5883 1854 c-18 -8 -16 -39 3 -54 11 -10 23 -11 41 -4 27 9 52 39 41
49 -8 9 -71 15 -85 9z"/>
<path d="M8743 1844 c-35 -18 -133 -116 -133 -134 0 -7 8 -9 23 -5 37 12 40
11 54 -17 17 -33 23 -34 54 -9 l24 19 -27 29 c-16 16 -28 34 -28 41 0 6 20 25
45 42 66 45 57 68 -12 34z"/>
<path d="M3536 1818 c-16 -23 -22 -78 -8 -78 20 1 72 63 72 87 0 22 -48 15
-64 -9z"/>
<path d="M7461 1806 c-28 -34 -39 -216 -13 -216 4 0 26 9 47 21 36 18 51 20
145 14 108 -6 138 1 127 29 -8 19 -39 33 -122 53 -83 19 -145 51 -145 73 0 27
-25 44 -39 26z"/>
<path d="M2242 1795 c-51 -16 -82 -41 -82 -66 0 -29 34 -41 79 -29 37 10 154
81 166 101 9 14 -114 10 -163 -6z"/>
<path d="M4173 1799 c-45 -13 -63 -44 -63 -105 0 -71 13 -79 79 -49 29 14 57
25 61 25 5 0 8 -19 7 -42 -2 -41 -1 -43 30 -46 42 -4 87 20 146 76 60 59 60
72 2 72 -54 0 -115 23 -115 44 0 29 -83 44 -147 25z"/>
<path d="M6325 1763 c-40 -41 -46 -73 -14 -73 29 0 79 53 79 84 0 37 -22 33
-65 -11z"/>
<path d="M6495 1763 c-40 -41 -46 -73 -14 -73 29 0 79 53 79 84 0 37 -22 33
-65 -11z"/>
<path d="M1373 1715 c-56 -24 -65 -75 -10 -60 48 13 147 58 147 66 0 14 -101
10 -137 -6z"/>
<path d="M5169 1707 c-36 -24 -50 -64 -27 -78 18 -12 83 -11 175 2 87 13 98
18 89 47 -17 51 -175 71 -237 29z"/>
<path d="M7345 1723 c-81 -20 -255 -110 -255 -132 0 -14 64 -24 103 -17 19 4
56 28 92 61 33 31 75 61 93 67 55 20 31 36 -33 21z"/>
<path d="M910 1710 c0 -6 27 -10 60 -10 33 0 60 4 60 10 0 6 -27 10 -60 10
-33 0 -60 -4 -60 -10z"/>
<path d="M6624 1681 c-51 -24 -105 -60 -143 -95 -33 -31 -64 -56 -69 -56 -4 0
-12 10 -17 23 -9 20 -16 22 -80 21 -39 -1 -133 -14 -210 -29 -77 -15 -178 -29
-225 -32 -82 -5 -140 -23 -140 -43 0 -22 48 -31 166 -31 140 0 181 4 302 32
109 25 142 25 149 -1 8 -29 37 -33 101 -15 123 36 262 128 288 192 36 85 4 94
-122 34z"/>
<path d="M9559 1694 c-16 -20 -24 -126 -11 -150 9 -15 147 -62 189 -64 7 0 -1
20 -18 48 -22 34 -29 55 -26 77 5 30 4 31 -29 27 -33 -4 -36 -2 -51 37 -17 44
-32 51 -54 25z"/>
<path d="M2450 1668 c-26 -28 -25 -47 2 -57 51 -19 81 12 54 54 -20 31 -29 31
-56 3z"/>
<path d="M2806 1669 c-21 -31 -4 -61 31 -57 34 4 52 32 37 56 -17 26 -50 27
-68 1z"/>
<path d="M5492 1679 c-37 -14 -24 -42 26 -53 51 -11 105 3 110 27 6 31 -82 48
-136 26z"/>
<path d="M7855 1680 c-10 -17 86 -71 120 -68 24 2 30 8 30 28 0 16 -8 29 -25
37 -30 15 -116 17 -125 3z"/>
<path d="M161 1657 c19 -12 38 -36 42 -52 28 -99 45 -141 94 -235 67 -131 161
-264 189 -268 59 -8 46 71 -20 121 -42 33 -68 72 -144 217 -89 169 -141 240
-175 240 -16 0 -13 -5 14 -23z"/>
<path d="M5773 1652 c-48 -30 -53 -41 -20 -43 59 -3 97 17 97 53 0 26 -28 22
-77 -10z"/>
<path d="M8068 1674 c-97 -29 248 -80 385 -58 109 19 -25 55 -218 59 -82 2
-158 2 -167 -1z"/>
<path d="M5920 1637 c-32 -16 -38 -52 -11 -66 26 -14 66 1 82 30 10 19 9 25
-7 36 -22 16 -32 16 -64 0z"/>
<path d="M6990 1630 c-36 -36 -21 -82 20 -60 13 7 20 21 20 40 0 38 -14 46
-40 20z"/>
<path d="M2555 1493 c-73 -19 -22 -42 129 -57 68 -7 128 -16 135 -20 21 -13
11 -47 -25 -92 -30 -36 -34 -45 -20 -50 24 -9 58 2 104 36 51 37 57 76 17 116
-48 48 -111 68 -220 70 -55 2 -109 0 -120 -3z"/>
<path d="M1674 1438 c-18 -28 145 -122 177 -102 39 24 -71 114 -140 114 -16 0
-33 -5 -37 -12z"/>
<path d="M4293 1169 c-12 -4 -26 -17 -32 -27 -14 -27 1 -38 64 -47 48 -7 85
-24 113 -52 18 -18 61 -16 69 3 8 20 -27 55 -88 88 -64 36 -99 45 -126 35z"/>
<path d="M530 1025 c0 -4 6 -18 14 -33 37 -71 136 -130 296 -176 165 -47 372
-59 339 -20 -16 19 -91 40 -219 60 -145 22 -231 53 -284 102 -24 22 -58 47
-74 56 -30 16 -72 22 -72 11z"/>
<path d="M4943 1003 c-38 -15 19 -73 71 -73 18 0 37 5 43 11 34 34 -59 85
-114 62z"/>
<path d="M5265 1001 c-16 -3 -30 -11 -30 -16 0 -20 73 -34 187 -34 112 -1 168
8 168 27 0 25 -239 42 -325 23z"/>
<path d="M3790 961 c0 -29 168 -131 225 -136 33 -3 85 -30 85 -44 0 -15 90
-101 106 -101 14 0 16 8 12 45 -10 84 -79 145 -166 145 -49 0 -91 15 -162 56
-63 37 -100 50 -100 35z"/>
<path d="M10702 728 c-18 -19 -37 -23 -131 -28 -120 -7 -141 -16 -141 -61 0
-31 22 -49 51 -42 27 7 102 -40 139 -87 38 -48 71 -52 112 -13 36 35 35 41 -7
49 -19 3 -35 9 -35 13 0 4 11 23 25 41 36 48 50 101 36 129 -15 26 -21 26 -49
-1z"/>
<path d="M1196 21 c-18 -7 -18 -8 5 -14 32 -9 119 -8 143 2 18 7 18 8 -5 14
-32 9 -119 8 -143 -2z"/>
<path d="M2896 21 c-18 -7 -18 -8 -2 -14 25 -10 128 -8 144 2 29 18 -99 29
-142 12z"/>
</g>
</svg>
